<?xml version="1.0" standalone="no"?>
<!DOCTYPE svg PUBLIC "-//W3C//DTD SVG 1.1//EN" "http://www.w3.org/Graphics/SVG/1.1/DTD/svg11.dtd">
<svg xmlns="http://www.w3.org/2000/svg">
<defs >
<font id="RedHatText" horiz-adv-x="523" ><font-face
    font-family="Red Hat Text Light"
    units-per-em="1000"
    panose-1="2 1 3 3 4 2 1 13 3 3"
    ascent="1018"
    descent="-305"
    alphabetic="0" />
<glyph unicode=" " horiz-adv-x="238" />
<glyph unicode="!" horiz-adv-x="201" d="M69 199L174 710H227L110 199H69ZM49 -8Q33 -8 22 4T10 33Q10 55 26 70T65 85Q82 85 93 73T104 44Q104 30 97 18T77 -1T49 -8Z" />
<glyph unicode="&quot;" horiz-adv-x="312" d="M145 554L176 750H229L180 554H145ZM268 554L299 750H352L303 554H268Z" />
<glyph unicode="#" horiz-adv-x="659" d="M-4 0L121 228H18L27 271H144L231 429H109L118 472H254L379 700H429L304 472H492L617 700H667L542 472H645L636 429H519L432 271H554L545 228H409L284 0H234L359 228H171L46 0H-4ZM194 271H382L469 429H281L194 271Z" />
<glyph unicode="$" horiz-adv-x="527" d="M171 -67L191 27Q98 43 24 119L56 151Q91 116 125 96T200 69L257 339L232 349Q167 375 137 414T107 506Q107 584 167 630T329 676L348 767H392L372 671Q414 663 454 640T527 581L493 551Q465 583 432 602T363 629L308
371L334 360Q409 329 439 293T469 201Q469 149 440 109T359 46T234 23L215 -67H171ZM266 383L320 633Q244 633 199 599T154 507Q154 470 174 442T241 394L266 383ZM243 66Q296 66 336 83T399 132T422 202Q422 241 400 266T321 316L298 326L243 66Z" />
<glyph unicode="%" horiz-adv-x="746" d="M210 345Q155 345 121 382T87 482Q87 542 110 592T171 674T256 705Q312 705 345 668T379 568Q379 508 356 458T295 376T210 345ZM215 381Q248 381 276 407T321 475T339 568Q339 615 315 642T252 669Q220 669 191 643T145
575T127 482Q127 435 151 408T215 381ZM102 0L646 700H694L150 0H102ZM538 -5Q483 -5 449 32T415 132Q415 192 438 242T499 324T584 355Q640 355 673 318T707 218Q707 158 684 107T623 26T538 -5ZM543 31Q576 31 604 57T649 125T667 218Q667 265 643 292T580 319Q548
319 519 293T473 225T455 132Q455 85 479 58T543 31Z" />
<glyph unicode="&amp;" horiz-adv-x="649" d="M589 23L555 -11Q533 9 510 32T463 80Q369 -11 242 -11Q178 -11 129 12T53 78T25 175Q25 220 43 257T107 329T233 401Q211 442 203 471T194 534Q194 585 217 625T279 688T367 711Q407 711 437 695T484 651T502 586Q502
531 468 491T352 410L297 382Q337 318 380 260T466 150Q502 191 532 240T583 345L630 332Q605 268 571 215T496 116Q519 91 542 68T589 23ZM243 533Q243 506 251 481T278 420L344 453Q401 482 427 512T453 582Q453 620 429 643T365 666Q313 666 278 628T243 533ZM76
182Q76 116 122 76T245 35Q295 35 342 55T432 115Q390 165 346 225T252 363Q152 318 114 275T76 182Z" />
<glyph unicode="&apos;" horiz-adv-x="189" d="M145 554L176 750H229L180 554H145Z" />
<glyph unicode="(" horiz-adv-x="385" d="M214 -220Q141 -159 104 -69T66 139Q66 264 107 377T223 579T398 715L420 675Q352 642 297 588T201 462T139 309T117 140Q117 -81 246 -186L214 -220Z" />
<glyph unicode=")" horiz-adv-x="385" d="M197 715Q270 654 307 564T345 356Q345 231 304 118T189 -83T13 -220L-9 -180Q59 -147 114 -93T210 33T272 186T294 355Q294 576 165 681L197 715Z" />
<glyph unicode="*" horiz-adv-x="436" d="M223 350L256 497L126 428L109 464L245 533L146 614L173 645L269 563L295 700H334L305 564L429 628L446 592L313 526L417 444L388 412L290 496L262 350H223Z" />
<glyph unicode="+" horiz-adv-x="600" d="M282 152L321 334H153L162 379H331L370 561H415L376 379H543L534 334H366L327 152H282Z" />
<glyph unicode="," horiz-adv-x="250" d="M-21 -152L74 60H132L20 -152H-21Z" />
<glyph unicode="-" horiz-adv-x="443" d="M66 258L77 302H393L382 258H66Z" />
<glyph unicode="." horiz-adv-x="250" d="M74 -8Q58 -8 47 4T35 33Q35 48 42 59T62 78T90 85Q107 85 118 73T129 44Q129 30 122 18T102 -1T74 -8Z" />
<glyph unicode="/" horiz-adv-x="440" d="M-141 -209L438 700H494L-85 -209H-141Z" />
<glyph unicode="0" horiz-adv-x="648" d="M389 711Q454 711 504 679T584 584T614 428Q614 333 589 253T519 113T421 22T307 -11Q243 -11 192 21T112 116T82 272Q82 367 107 447T177 587T276 678T389 711ZM391 665Q341 665 295 636T212 553T154 430T133 276Q133
160 181 98T305 35Q355 35 401 64T484 147T542 271T563 424Q563 540 515 602T391 665Z" />
<glyph unicode="1" horiz-adv-x="281" d="M95 0L230 637L117 593L129 647L264 700H293L144 0H95Z" />
<glyph unicode="2" horiz-adv-x="538" d="M261 0L269 38L647 394Q694 438 716 477T738 553Q738 603 701 634T605 666Q559 666 511 649T402 587L380 626Q437 670 493 690T601 711Q656 711 698 692T764 638T789 559Q789 507 765 464T679 363L341 45H697L687 0H261Z" />
<glyph unicode="3" horiz-adv-x="574" d="M509 -11Q438 -11 381 18T273 107L311 140Q353 86 403 60T517 34Q571 34 612 54T676 112T699 196Q699 238 679 270T623 320T542 339H486L495 383H579Q623 383 659 403T718 456T740 530Q740 591 697 628T582 666Q529 666
489 651T404 599L376 634Q417 673 468 692T580 711Q643 711 690 689T764 629T791 538Q791 472 753 425T639 352Q689 334 719 294T750 204Q750 142 719 93T634 17T509 -11Z" />
<glyph unicode="4" horiz-adv-x="587" d="M357 0L399 195H29L37 233L505 700H556L457 240H556L546 195H448L406 0H357ZM108 240H408L490 621L108 240Z" />
<glyph unicode="5" horiz-adv-x="559" d="M499 -11Q427 -11 369 18T272 100L306 132Q344 82 392 58T501 34Q561 34 608 60T682 132T709 234Q709 307 664 347T536 387Q502 387 467 379T389 354L358 368L442 700H819L809 655H478L413 400Q451 416 481 423T547 431Q613
431 660 408T734 341T760 237Q760 186 740 141T683 62T600 9T499 -11Z" />
<glyph unicode="6" horiz-adv-x="611" d="M313 -11Q253 -11 199 22T111 118T76 272Q76 376 102 457T175 595T282 681T410 711Q457 711 500 697T590 653L567 612Q524 640 489 653T413 666Q342 666 282 627T181 515T130 341Q173 387 226 412T337 438Q404 438 453
410T530 335T557 230Q557 174 538 130T484 54T405 6T313 -11ZM321 34Q374 34 415 60T481 131T506 233Q506 305 461 349T333 394Q277 394 223 367T127 292Q126 208 151 151T221 64T321 34Z" />
<glyph unicode="7" horiz-adv-x="547" d="M300 0L798 655H372L381 700H871L863 662L359 0H300Z" />
<glyph unicode="8" horiz-adv-x="602" d="M288 -11Q220 -11 167 14T82 83T51 182Q51 233 76 274T145 343T248 381Q200 401 173 438T146 525Q146 579 175 621T254 687T369 711Q430 711 476 690T549 631T576 544Q576 500 557 464T501 403T409 362Q467 338 501 293T535
192Q535 134 503 88T415 16T288 -11ZM357 397Q406 397 444 416T506 469T529 543Q529 602 486 634T365 667Q316 667 277 648T216 597T193 522Q193 463 236 430T357 397ZM292 34Q380 34 433 78T487 195Q487 240 462 274T394 328T294 348Q206 348 153 304T99 188Q99
144 124 109T192 54T292 34Z" />
<glyph unicode="9" horiz-adv-x="608" d="M330 711Q390 711 444 678T533 582T567 428Q567 324 541 243T468 105T361 19T233 -11Q186 -11 143 3T53 47L76 88Q119 60 154 47T230 34Q301 34 361 73T462 186T513 359Q470 313 418 288T306 262Q239 262 190 290T113
365T86 470Q86 526 105 570T159 646T238 694T330 711ZM322 666Q270 666 228 640T162 569T137 467Q137 395 182 351T310 306Q366 306 421 333T516 408Q517 492 492 549T422 636T322 666Z" />
<glyph unicode=":" horiz-adv-x="250" d="M74 -8Q58 -8 47 4T35 33Q35 48 42 59T62 78T90 85Q107 85 118 73T129 44Q129 30 122 18T102 -1T74 -8ZM161 402Q145 402 134 414T122 443Q122 458 129 469T149 488T177 495Q194 495 205 483T216 454Q216 440 209 428T189
409T161 402Z" />
<glyph unicode=";" horiz-adv-x="250" d="M161 402Q145 402 134 414T122 443Q122 458 129 469T149 488T177 495Q194 495 205 483T216 454Q216 440 209 428T189 409T161 402ZM-21 -152L74 60H132L20 -152H-21Z" />
<glyph unicode="&lt;" horiz-adv-x="600" d="M424 118L165 349L518 579L540 541L233 345L455 150L424 118Z" />
<glyph unicode="=" horiz-adv-x="600" d="M392 515L402 560H783L773 515H392ZM169 411L179 456H560L550 411H169Z" />
<glyph unicode="&gt;" horiz-adv-x="600" d="M241 579L500 348L147 118L125 156L432 352L210 547L241 579Z" />
<glyph unicode="?" horiz-adv-x="495" d="M164 -8Q148 -8 137 4T125 33Q125 55 141 70T180 85Q197 85 208 73T219 44Q219 30 212 18T192 -1T164 -8ZM181 201Q181 260 210 303T300 381L362 417Q406 443 430 479T454 553Q454 600 417 631T320 663Q275 663 231 641T144
579L113 619Q163 663 216 687T322 711Q375 711 416 691T480 635T503 554Q503 500 475 460T386 382L318 342Q270 314 248 280T225 201H181Z" />
<glyph unicode="@" horiz-adv-x="762" d="M395 -144Q322 -144 261 -118T154 -44T83 68T57 207Q57 285 82 352T152 469T257 546T390 574Q458 574 515 551T616 486T682 388T706 266Q706 204 684 157T624 83T542 57Q481 57 456 98Q432 76 406 65T355 53Q316 53 285
72T236 126T218 202Q218 251 239 290T297 354T378 378Q407 378 432 367T476 336L481 365H523L487 176Q480 138 495 118T545 97Q578 97 605 119T649 179T665 266Q665 343 629 403T531 499T388 534Q328 534 275 509T183 440T121 336T98 208Q98 119 137 48T244 -63T399
-104Q488 -104 562 -61L577 -98Q537 -120 491 -132T395 -144ZM363 91Q410 91 445 129Q443 140 443 152T446 178L467 290Q454 313 429 326T375 339Q344 339 318 321T277 272T261 204Q261 154 289 123T363 91Z" />
<glyph unicode="A" horiz-adv-x="626" d="M-40 0L377 700H441L564 0H513L473 234H156L18 0H-40ZM180 276H466L402 653L180 276Z" />
<glyph unicode="B" horiz-adv-x="640" d="M40 0L189 700H432Q489 700 529 681T590 626T611 544Q611 474 568 425T447 361Q507 348 540 311T573 218Q573 156 542 107T456 29T328 0H40ZM174 388H388Q468 388 514 431T561 540Q561 591 526 622T426 653H230L174 388ZM101
47H328Q388 47 431 69T498 130T522 216Q522 273 483 307T370 342H164L101 47Z" />
<glyph unicode="C" horiz-adv-x="714" d="M382 -11Q317 -11 262 13T165 81T102 183T79 310Q79 393 109 465T193 593T314 680T458 711Q538 711 605 678T716 583L676 555Q639 608 582 635T453 663Q387 663 329 635T226 557T156 444T130 309Q130 235 161 173T251
74T387 37Q452 37 510 57T615 121L647 83Q595 37 527 13T382 -11Z" />
<glyph unicode="D" horiz-adv-x="707" d="M40 0L189 700H377Q466 700 532 662T636 555T674 392Q674 310 646 239T567 114T445 30T292 0H40ZM378 653H230L101 47H301Q372 47 431 75T533 151T599 262T623 393Q623 473 592 531T506 621T378 653Z" />
<glyph unicode="E" horiz-adv-x="594" d="M40 0L189 700H644L634 653H230L171 377H451L441 330H161L101 47H509L499 0H40Z" />
<glyph unicode="F" horiz-adv-x="584" d="M40 0L189 700H643L633 653H230L170 372H445L435 325H160L91 0H40Z" />
<glyph unicode="G" horiz-adv-x="779" d="M382 -11Q317 -11 262 13T165 81T102 183T79 310Q79 393 109 465T193 593T314 680T458 711Q536 711 606 677T723 579L683 551Q643 606 584 634T453 663Q387 663 329 635T226 557T156 444T130 309Q130 235 161 173T251
74T387 37Q468 37 531 72T636 169T689 309H445L455 356H748L739 310Q722 220 674 148T551 32T382 -11Z" />
<glyph unicode="H" horiz-adv-x="709" d="M40 0L189 700H240L171 376H596L665 700H716L567 0H516L586 329H161L91 0H40Z" />
<glyph unicode="I" horiz-adv-x="233" d="M40 0L189 700H240L91 0H40Z" />
<glyph unicode="J" horiz-adv-x="570" d="M226 -11Q142 -11 86 33T10 159L54 177Q71 107 115 72T227 36Q315 36 369 92T445 251L541 700H592L496 251Q479 169 444 110T356 20T226 -11Z" />
<glyph unicode="K" horiz-adv-x="564" d="M40 0L189 700H240L170 372L586 700H662L221 355L517 0H449L165 348L91 0H40Z" />
<glyph unicode="L" horiz-adv-x="583" d="M40 0L189 700H240L101 47H500L490 0H40Z" />
<glyph unicode="M" horiz-adv-x="827" d="M40 0L189 700H263L395 157L755 700H834L685 0H637L774 647L373 50L226 650L88 0H40Z" />
<glyph unicode="N" horiz-adv-x="712" d="M40 0L189 700H246L540 74L671 700H719L570 0H523L222 639L88 0H40Z" />
<glyph unicode="O" horiz-adv-x="793" d="M382 -11Q317 -11 262 13T165 81T102 183T79 310Q79 393 109 465T193 593T314 680T458 711Q523 711 578 687T675 619T738 517T761 390Q761 307 731 235T647 107T526 20T382 -11ZM387 37Q453 37 511 65T614 143T684 256T710
391Q710 465 679 527T590 626T453 663Q387 663 329 635T226 557T156 444T130 309Q130 235 161 173T251 74T387 37Z" />
<glyph unicode="P" horiz-adv-x="626" d="M39 0L188 700H441Q500 700 542 680T607 620T630 527Q630 460 600 408T515 327T391 297H153L90 0H39ZM163 344H391Q447 344 489 367T555 431T579 525Q579 585 541 619T435 653H229L163 344Z" />
<glyph unicode="Q" horiz-adv-x="792" d="M606 -20L567 42Q525 17 479 3T382 -11Q317 -11 262 13T165 81T102 183T79 310Q79 393 109 465T193 593T314 680T458 711Q523 711 578 687T675 619T738 517T761 390Q761 291 718 207T603 67L656 -16L606 -20ZM387 37Q429
37 468 48T541 82L459 212L508 216L577 107Q637 157 673 231T710 391Q710 465 679 527T590 626T453 663Q387 663 329 635T226 557T156 444T130 309Q130 235 161 173T251 74T387 37Z" />
<glyph unicode="R" horiz-adv-x="619" d="M39 0L188 700H440Q498 700 540 680T605 621T628 529Q628 472 604 426T537 350T436 311L523 0H472L386 308H156L90 0H39ZM166 355H390Q445 355 487 377T553 438T577 527Q577 586 539 619T433 653H229L166 355Z" />
<glyph unicode="S" horiz-adv-x="604" d="M306 -11Q229 -11 152 26T22 136L59 171Q103 104 171 71T307 37Q365 37 409 57T479 112T505 194Q505 244 472 275T358 326L260 351Q181 371 140 414T99 521Q99 579 128 621T211 687T334 711Q409 711 478 683T606 599L572
561Q523 609 460 636T332 663Q250 663 200 625T150 525Q150 477 180 447T275 399L373 374Q468 350 512 308T556 198Q556 137 524 90T436 16T306 -11Z" />
<glyph unicode="T" horiz-adv-x="592" d="M219 0L358 653H118L128 700H659L649 653H409L270 0H219Z" />
<glyph unicode="U" horiz-adv-x="688" d="M315 -11Q230 -11 173 29T93 139T89 299L175 700H226L138 289Q122 214 139 158T200 69T314 37Q410 37 476 99T570 289L658 700H709L619 279Q599 184 556 119T452 22T315 -11Z" />
<glyph unicode="V" horiz-adv-x="626" d="M233 0L109 700H159L271 45L657 700H713L297 0H233Z" />
<glyph unicode="W" horiz-adv-x="857" d="M160 0L142 700H192L207 93L500 700H551L586 88L859 700H911L595 0H546L511 626L209 0H160Z" />
<glyph unicode="X" horiz-adv-x="615" d="M-41 0L306 368L134 700H189L342 403L622 700H687L366 361L553 0H498L330 326L23 0H-41Z" />
<glyph unicode="Y" horiz-adv-x="609" d="M227 0L289 291L113 700H167L321 336L630 700H692L339 288L278 0H227Z" />
<glyph unicode="Z" horiz-adv-x="588" d="M-12 0L-4 39L561 653H129L139 700H642L634 661L69 47H513L503 0H-12Z" />
<glyph unicode="[" horiz-adv-x="338" d="M-29 -215L166 700H386L377 657H206L29 -172H200L191 -215H-29Z" />
<glyph unicode="\" horiz-adv-x="384" d="M315 -209L115 700H163L363 -209H315Z" />
<glyph unicode="]" horiz-adv-x="338" d="M386 700L191 -215H-29L-20 -172H151L328 657H157L166 700H386Z" />
<glyph unicode="^" horiz-adv-x="600" d="M146 350L399 700H444L546 350H500L413 646L199 350H146Z" />
<glyph unicode="_" horiz-adv-x="443" d="M-78 -123L-69 -80H376L367 -123H-78Z" />
<glyph unicode="`" horiz-adv-x="600" d="M362 579L232 695H307L410 579H362Z" />
<glyph unicode="a" horiz-adv-x="502" d="M197 -10Q125 -10 80 29T35 130Q35 175 58 209T122 262T215 282Q266 282 310 269T383 228L398 296Q414 368 388 407T284 447Q253 447 219 438T141 408L123 448Q170 470 210 479T287 489Q345 489 386 469T444 408T448 305L380
0H332L342 46Q309 19 273 5T197 -10ZM206 32Q248 32 283 47T352 91L374 189Q345 215 308 227T219 240Q161 240 122 210T82 135Q82 89 113 61T206 32Z" />
<glyph unicode="b" horiz-adv-x="555" d="M253 -9Q204 -9 162 11T92 75L75 0H27L179 725L230 737L166 427Q197 457 232 471T308 485Q364 485 408 457T477 380T503 268Q503 211 484 161T430 73T350 13T253 -9ZM248 36Q305 36 352 66T426 148T454 264Q454 344 410
392T294 441Q256 441 221 426T157 384L103 123Q121 85 161 61T248 36Z" />
<glyph unicode="c" horiz-adv-x="489" d="M258 -11Q202 -11 156 15T82 90T54 200Q54 259 74 311T129 404T211 466T309 489Q363 489 408 465T485 396L450 365Q425 401 389 422T308 443Q252 443 206 410T131 321T103 199Q103 150 125 113T183 56T263 35Q298 35 334
49T402 88L429 50Q392 21 348 5T258 -11Z" />
<glyph unicode="d" horiz-adv-x="555" d="M250 -8Q194 -8 150 20T81 97T55 209Q55 266 74 316T128 405T208 465T305 487Q352 487 393 468T463 407L529 725L580 737L426 0H377L387 45Q357 18 323 5T250 -8ZM264 36Q339 36 396 88L453 359Q434 396 395 418T310 441Q253
441 207 411T132 329T104 213Q104 134 149 85T264 36Z" />
<glyph unicode="e" horiz-adv-x="536" d="M260 -10Q201 -10 155 17T82 93T55 201Q55 260 75 312T131 404T213 466T312 489Q365 489 405 464T468 396T491 295Q491 279 490 264T487 231H106Q99 175 117 131T172 61T261 36Q293 36 328 47T398 81L424 43Q384 17 343
4T260 -10ZM114 272H442Q447 320 432 359T385 420T309 443Q265 443 226 421T157 361T114 272Z" />
<glyph unicode="f" horiz-adv-x="339" d="M82 0L175 438H71L80 481H184L211 607Q225 674 259 705T352 737Q372 737 390 734T425 724L416 677Q384 691 352 691Q311 691 290 670T259 603L233 481H374L365 438H224L131 0H82Z" />
<glyph unicode="g" horiz-adv-x="561" d="M237 -219Q185 -219 128 -201T31 -149L62 -109Q146 -172 234 -172Q289 -172 328 -139T377 -47L396 53Q365 22 328 7T250 -8Q194 -8 150 20T81 97T55 209Q55 266 74 316T128 405T208 465T305 487Q356 487 400 465T470 396L488
481H536L423 -59Q407 -136 359 -177T237 -219ZM264 36Q304 36 341 52T406 98L459 345Q443 387 402 414T310 441Q253 441 207 411T132 329T104 213Q104 134 149 85T264 36Z" />
<glyph unicode="h" horiz-adv-x="525" d="M27 0L179 725L230 737L161 408Q194 448 232 468T315 489Q369 489 406 464T460 395T463 290L400 0H351L413 282Q430 356 399 400T302 445Q259 445 220 424T152 363L76 0H27Z" />
<glyph unicode="i" horiz-adv-x="204" d="M184 607Q167 607 155 619T143 650Q143 664 149 675T167 693T193 700Q210 700 222 688T234 657Q234 636 220 622T184 607ZM26 0L129 481H178L75 0H26Z" />
<glyph unicode="j" horiz-adv-x="204" d="M184 607Q167 607 155 619T143 650Q143 663 150 674T168 693T193 700Q210 700 222 688T234 657Q234 638 219 623T184 607ZM-71 -219Q-81 -219 -92 -218T-112 -213L-102 -166Q-93 -170 -84 -171T-65 -173Q-36 -173 -20
-157T4 -105L129 481H178L51 -110Q39 -167 11 -193T-71 -219Z" />
<glyph unicode="k" horiz-adv-x="451" d="M27 0L179 725L230 737L132 267L418 481H490L175 249L387 0H328L126 238L76 0H27Z" />
<glyph unicode="l" horiz-adv-x="204" d="M27 0L179 725L230 737L76 0H27Z" />
<glyph unicode="m" horiz-adv-x="811" d="M27 0L130 481H179L164 410Q196 448 232 468T311 489Q362 489 397 463T445 392Q527 489 618 489Q667 489 701 465T749 398T751 299L686 0H637L701 295Q715 360 688 402T604 445Q561 445 524 422T451 354Q452 341 451 327T446
299L381 0H332L394 286Q410 358 382 401T298 445Q212 445 154 362L76 0H27Z" />
<glyph unicode="n" horiz-adv-x="525" d="M27 0L130 481H179L164 412Q196 450 233 469T315 489Q369 489 406 464T459 395T462 290L400 0H351L412 282Q428 356 398 400T302 445Q259 445 221 425T154 366L76 0H27Z" />
<glyph unicode="o" horiz-adv-x="560" d="M246 -11Q191 -11 148 15T79 90T54 200Q54 253 73 304T126 397T208 464T314 489Q370 489 413 463T481 389T506 278Q506 225 487 174T434 81T352 14T246 -11ZM248 35Q303 35 350 67T427 155T457 279Q457 353 417 398T312
443Q258 443 210 411T133 323T103 199Q103 126 143 81T248 35Z" />
<glyph unicode="p" horiz-adv-x="555" d="M-16 -209L132 481H180L169 432Q230 487 308 487Q365 487 409 459T478 382T503 269Q503 212 484 162T430 74T350 14T253 -8Q201 -8 161 13T94 74L33 -209H-16ZM294 441Q217 441 161 388L104 122Q123 85 162 62T248 38Q306
38 352 68T426 150T454 265Q454 343 410 392T294 441Z" />
<glyph unicode="q" horiz-adv-x="555" d="M334 -209L388 46Q358 18 324 5T250 -8Q194 -8 150 20T81 97T55 209Q55 266 74 316T128 405T208 465T305 487Q353 487 395 467T465 404L482 481H531L383 -209H334ZM264 36Q301 36 335 50T398 90L454 355Q435 393 396 417T310
441Q253 441 207 411T132 329T104 213Q104 134 149 85T264 36Z" />
<glyph unicode="r" horiz-adv-x="320" d="M25 0L130 481H179L161 398Q188 442 225 465T305 489Q335 489 354 482L344 436Q331 441 318 443T293 445Q252 445 215 419T149 345L74 0H25Z" />
<glyph unicode="s" horiz-adv-x="427" d="M194 -10Q142 -10 95 10T9 70L42 102Q83 65 119 50T195 34Q251 34 289 63T327 136Q327 165 308 182T244 213L174 233Q119 249 93 278T66 355Q66 414 111 451T228 489Q275 489 321 470T410 416L380 380Q337 415 300 430T227
445Q176 445 145 420T113 357Q113 326 130 308T186 278L257 257Q319 238 346 211T374 140Q374 97 351 63T288 10T194 -10Z" />
<glyph unicode="t" horiz-adv-x="345" d="M200 -10Q139 -10 114 25T100 114L169 438H71L80 481H178L206 612L258 625L227 481H366L357 438H218L150 117Q141 74 156 55T218 36Q231 36 243 38T273 46L263 0Q247 -5 232 -7T200 -10Z" />
<glyph unicode="u" horiz-adv-x="524" d="M211 -8Q158 -8 120 17T66 87T63 191L126 481H175L113 199Q97 125 128 81T224 36Q265 36 302 55T369 111L448 481H497L394 0H345L359 66Q328 30 292 11T211 -8Z" />
<glyph unicode="v" horiz-adv-x="467" d="M154 0L68 481H118L192 67L444 481H501L200 0H154Z" />
<glyph unicode="w" horiz-adv-x="662" d="M107 0L81 481H128L147 72L357 481H403L436 70L632 481H682L448 0H400L368 414L156 0H107Z" />
<glyph unicode="x" horiz-adv-x="451" d="M-37 0L204 254L85 481H140L238 287L421 481H482L259 246L386 0H331L224 213L24 0H-37Z" />
<glyph unicode="y" horiz-adv-x="467" d="M6 -219Q-2 -219 -12 -217T-40 -210L-31 -165Q-19 -169 -9 -171T8 -173Q34 -173 56 -158T97 -110L159 -4L72 481H124L197 62L445 481H502L141 -129Q113 -178 82 -198T6 -219Z" />
<glyph unicode="z" horiz-adv-x="436" d="M-10 0L-1 43L368 435H88L98 481H443L434 438L65 46H350L340 0H-10Z" />
<glyph unicode="{" horiz-adv-x="370" d="M168 -219Q107 -219 79 -190T54 -114T90 -16L153 83Q177 120 179 151T165 202T113 222H41L50 269H123Q175 269 204 306T222 407L203 523Q194 577 208 619T255 686T336 711Q356 711 376 706T415 691L394 651Q380 658 365
662T333 666Q295 666 268 636T250 541L270 399Q276 357 263 325T225 272T170 243Q208 225 222 183T202 83L127 -41Q93 -97 105 -136T174 -175Q186 -175 197 -173T221 -167L224 -210Q209 -214 196 -216T168 -219Z" />
<glyph unicode="|" horiz-adv-x="268" d="M16 -209L209 700H255L62 -209H16Z" />
<glyph unicode="}" horiz-adv-x="370" d="M197 705Q259 705 286 676T311 600T275 502L212 403Q189 366 187 335T201 284T252 264H324L315 217H242Q190 217 162 180T143 79L162 -37Q171 -90 157 -133T110 -200T29 -225Q10 -225 -11 -220T-50 -205L-29 -165Q-15
-172 0 -176T32 -180Q70 -180 97 -150T115 -55L95 87Q89 129 102 161T140 214T195 243V243Q170 255 155 278T139 333T163 403L238 527Q272 583 260 622T191 661Q179 661 168 659T144 653L141 696Q156 700 169 702T197 705Z" />
<glyph unicode="~" horiz-adv-x="600" d="M152 307L111 312Q124 377 161 413T245 449Q263 449 284 442T331 419L396 380Q416 368 432 363T461 357Q492 357 517 380T553 452L594 446Q582 381 546 346T462 310Q443 310 421 317T373 339L310 378Q287 392 271 397T241
402Q211 402 188 379T152 307Z" />
<glyph unicode="&#xa0;" horiz-adv-x="238" />
<glyph unicode="&#xa1;" horiz-adv-x="201" d="M133 293L28 -218H-25L92 293H133ZM153 500Q170 500 181 488T192 459Q192 437 176 422T137 407Q121 407 110 419T98 448Q98 463 105 474T125 493T153 500Z" />
<glyph unicode="&#xa2;" horiz-adv-x="505" d="M181 -120L206 -2Q140 15 97 69T54 203Q54 263 74 315T129 407T211 469T311 492L335 605H379L354 487Q394 479 427 457T485 399L450 368Q430 397 404 416T344 442L259 38Q297 38 333 52T402 91L429 53Q390 22 346
7T249 -8L225 -120H181ZM216 45L301 446Q247 444 202 410T130 322T103 202Q103 142 135 101T216 45Z" />
<glyph unicode="&#xa3;" horiz-adv-x="593" d="M-4 -25L-36 4Q15 81 98 87Q158 102 164 190L170 294H69L79 338H173L180 460Q185 540 210 596T280 681T385 711Q475 711 525 662T580 519L533 511Q531 587 493 626T384 665Q314 665 274 612T228 458L221 338H424L414
294H219L213 196Q208 114 163 82Q171 81 178 79T194 74L314 39Q387 17 429 25T502 73L536 42Q505 7 473 -9T400 -24T303 -7L184 29Q117 49 75 37T-4 -25Z" />
<glyph unicode="&#xa4;" horiz-adv-x="600" d="M85 69L56 100L150 195Q123 228 108 269T93 360Q93 409 108 450T150 525L56 620L85 651L178 557Q211 586 253 602T342 618Q389 618 431 602T506 557L599 651L628 620L534 525Q561 492 576 451T591 360Q591 311 576
270T534 195L628 100L599 69L506 163Q473 135 431 119T342 102Q295 102 253 118T178 163L85 69ZM342 150Q398 150 442 178T513 253T539 360Q539 419 513 466T443 542T342 570Q287 570 242 542T171 467T145 360Q145 301 171 254T242 178T342 150Z" />
<glyph unicode="&#xa5;" horiz-adv-x="609" d="M227 0L256 138H79L88 182H266L284 266H106L115 310H281L113 700H167L321 336L630 700H692L358 310H521L512 266H334L317 182H494L485 138H307L278 0H227Z" />
<glyph unicode="&#xa6;" horiz-adv-x="270" d="M121 288L209 700H255L167 288H121ZM16 -209L104 203H150L62 -209H16Z" />
<glyph unicode="&#xa7;" horiz-adv-x="551" d="M246 -49Q200 -49 154 -32T70 15L98 53Q175 -3 252 -3Q299 -3 326 20T353 84Q353 139 295 168L200 215Q146 242 123 272T100 346Q100 399 137 432T242 473Q191 512 191 572Q191 614 210 645T264 693T345 711Q388
711 434 694T519 647L492 609Q454 637 416 651T339 665Q293 665 265 641T237 577Q237 525 296 495L391 448Q444 422 467 391T491 316Q491 263 454 229T350 186Q399 149 399 90Q399 49 380 18T327 -31T246 -49ZM302 214Q370 218 407 244T445 316Q445 373 371 408L296
444Q224 442 185 417T146 347Q146 294 220 256L302 214Z" />
<glyph unicode="&#xa8;" horiz-adv-x="600" d="M286 607Q269 607 257 619T245 650Q245 671 259 685T295 700Q312 700 324 688T336 657Q336 636 322 622T286 607ZM480 607Q463 607 451 619T439 650Q439 671 453 685T489 700Q506 700 518 688T530 657Q530 636 516
622T480 607Z" />
<glyph unicode="&#xa9;" horiz-adv-x="790" d="M409 167Q364 167 330 189T277 249T258 331Q258 388 284 433T353 506T445 533Q485 533 521 514T580 461L549 435Q533 461 505 477T444 493Q405 493 372 471T319 411T299 331Q299 273 332 240T412 207Q460 207 509
245L528 209Q501 189 471 178T409 167ZM392 -11Q325 -11 268 13T169 81T102 184T78 313Q78 396 107 468T188 595T306 680T446 711Q513 711 570 687T669 619T736 516T760 387Q760 304 731 232T650 105T532 20T392 -11ZM392 26Q459 26 518 54T622 133T694 247T720
384Q720 467 685 532T587 636T446 674Q379 674 320 646T216 567T144 453T118 316Q118 234 153 168T251 64T392 26Z" />
<glyph unicode="&#xaa;" horiz-adv-x="389" d="M210 327Q152 327 115 355T78 430Q78 484 121 517T234 550Q306 550 356 507L370 571Q381 620 356 646T275 672Q249 672 224 666T163 645L150 682Q191 699 219 705T277 711Q352 711 389 675T413 576L361 331H318L326
366Q272 327 210 327ZM219 363Q285 363 333 401L349 473Q304 516 232 516Q181 516 151 493T121 432Q121 400 147 382T219 363Z" />
<glyph unicode="&#xab;" horiz-adv-x="585" d="M218 0L49 241L311 481H374L109 236L271 0H218ZM424 0L255 241L517 481H580L315 236L477 0H424Z" />
<glyph unicode="&#xac;" horiz-adv-x="600" d="M443 0L498 258H108L117 303H556L492 0H443Z" />
<glyph unicode="&#xad;" horiz-adv-x="600" d="M66 258L77 302H393L382 258H66Z" />
<glyph unicode="&#xae;" horiz-adv-x="486" d="M282 313Q233 313 195 336T136 399T115 490Q115 536 131 576T175 646T241 694T320 711Q370 711 407 688T466 626T487 535Q487 489 471 449T427 378T361 330T282 313ZM283 343Q330 343 369 369T432 438T456 535Q456
601 419 641T319 681Q272 681 233 655T170 586T146 490Q146 423 183 383T283 343ZM219 419L259 607H320Q346 607 359 594T373 554Q373 535 361 519T329 494L355 419H325L299 491H262L247 419H219ZM268 515H308Q325 515 334 525T344 552Q344 582 315 582H283L268
515Z" />
<glyph unicode="&#xaf;" horiz-adv-x="600" d="M252 607L260 647H513L505 607H252Z" />
<glyph unicode="&#xb0;" horiz-adv-x="399" d="M257 431Q221 431 192 448T147 495T130 558Q130 599 151 634T207 690T283 711Q320 711 348 694T393 647T410 584Q410 543 389 508T334 452T257 431ZM259 471Q288 471 313 486T353 526T369 581Q369 619 344 645T281
671Q253 671 228 656T187 616T171 561Q171 523 196 497T259 471Z" />
<glyph unicode="&#xb1;" horiz-adv-x="599" d="M80 -1L90 44H471L461 -1H80ZM284 165L323 347H154L164 392H332L371 574H416L377 392H545L535 347H368L329 165H284Z" />
<glyph unicode="&#xb2;" horiz-adv-x="280" d="M49 350L55 380L237 525Q265 548 278 568T292 611Q292 638 273 654T222 670Q199 670 177 661T126 631L105 661Q170 705 226 705Q270 705 300 681T331 618Q331 586 315 560T260 504L110 385H289L282 350H49Z" />
<glyph unicode="&#xb3;" horiz-adv-x="300" d="M185 345Q145 345 114 357T57 397L81 426Q125 380 184 380Q222 380 249 399T276 448Q276 475 255 492T197 510H169L175 541H202Q243 541 270 561T298 610Q298 636 278 653T225 670Q205 670 182 663T127 637L109 668Q168
705 227 705Q274 705 305 679T337 615Q337 582 312 557T245 524Q277 516 296 494T315 443Q315 415 299 393T253 358T185 345Z" />
<glyph unicode="&#xb4;" horiz-adv-x="600" d="M332 579L458 695H534L382 579H332Z" />
<glyph unicode="&#xb5;" horiz-adv-x="530" d="M-16 -209L130 481H179L116 184Q102 117 135 77T230 36Q271 36 308 55T375 111L454 481H503L400 0H351L365 66Q334 30 298 11T217 -8Q174 -8 142 9T89 56L33 -209H-16Z" />
<glyph unicode="&#xb6;" horiz-adv-x="621" d="M257 0L321 302H299Q236 302 192 324T125 385T102 477Q102 543 129 593T210 671T339 700H628L479 0H428L492 302H372L308 0H257ZM382 349H502L567 653H447L382 349ZM286 349H331L396 653H324Q273 653 235 631T175
571T153 481Q153 420 188 385T286 349Z" />
<glyph unicode="&#xb7;" horiz-adv-x="250" d="M128 237Q112 237 101 249T89 278Q89 293 96 304T116 323T144 330Q161 330 172 318T183 289Q183 275 176 263T156 244T128 237Z" />
<glyph unicode="&#xb8;" horiz-adv-x="600" d="M206 -235Q172 -235 147 -223T107 -195L131 -171Q161 -204 204 -204Q242 -204 261 -187T281 -144Q281 -121 263 -109T213 -96H189L232 0H265L235 -68Q275 -71 295 -90T316 -138Q316 -166 302 -188T262 -222T206 -235Z" />
<glyph unicode="&#xb9;" horiz-adv-x="151" d="M103 350L168 658L104 632L112 668L190 700H215L141 350H103Z" />
<glyph unicode="&#xba;" horiz-adv-x="448" d="M266 323Q217 323 178 345T117 406T94 494Q94 553 122 602T197 681T299 711Q348 711 387 689T449 628T472 540Q472 482 444 433T368 353T266 323ZM266 364Q314 364 350 389T406 454T426 535Q426 593 391 631T300
670Q252 670 216 645T160 581T140 499Q140 441 175 403T266 364Z" />
<glyph unicode="&#xbb;" horiz-adv-x="584" d="M381 481L550 240L288 0H225L490 245L328 481H381ZM175 481L344 240L82 0H19L284 245L122 481H175Z" />
<glyph unicode="&#xbc;" horiz-adv-x="580" d="M425 0L445 92H251L256 123L496 350H539L491 126H533L525 92H484L464 0H425ZM306 126H452L489 299L306 126ZM103 350L168 658L104 632L112 668L190 700H215L141 350H103ZM242 0L786 700H834L290 0H242Z" />
<glyph unicode="&#xbd;" horiz-adv-x="616" d="M103 350L168 658L104 632L112 668L190 700H215L141 350H103ZM235 0L779 700H827L283 0H235ZM306 0L312 30L494 175Q522 198 535 218T549 261Q549 288 530 304T479 320Q456 320 434 311T383 281L362 311Q427 355
483 355Q527 355 557 331T588 268Q588 236 572 210T517 154L367 35H546L539 0H306Z" />
<glyph unicode="&#xbe;" horiz-adv-x="674" d="M185 345Q145 345 114 357T57 397L81 426Q125 380 184 380Q222 380 249 399T276 448Q276 475 255 492T197 510H169L175 541H202Q243 541 270 561T298 610Q298 636 278 653T225 670Q205 670 182 663T127 637L109 668Q168
705 227 705Q274 705 305 679T337 615Q337 582 312 557T245 524Q277 516 296 494T315 443Q315 415 299 393T253 358T185 345ZM519 0L539 92H345L350 123L590 350H633L585 126H627L619 92H578L558 0H519ZM400 126H546L583 299L400 126ZM79 0L623 700H671L127 0H79Z"
/>
<glyph unicode="&#xbf;" horiz-adv-x="494" d="M311 500Q328 500 339 488T350 459Q350 437 334 422T295 407Q279 407 268 419T256 448Q256 463 263 474T283 493T311 500ZM294 291Q294 233 266 189T175 111L113 75Q69 49 45 13T21 -61Q21 -108 58 -139T155 -171Q200
-171 244 -149T331 -87L362 -127Q313 -171 260 -195T153 -219Q100 -219 59 -199T-5 -143T-28 -62Q-28 -8 0 32T89 110L157 150Q205 179 227 213T250 291H294Z" />
<glyph unicode="&#xc0;" horiz-adv-x="626" d="M-40 0L377 700H441L564 0H513L473 234H156L18 0H-40ZM180 276H466L402 653L180 276ZM415 798L285 914H360L463 798H415Z" />
<glyph unicode="&#xc1;" horiz-adv-x="626" d="M-40 0L377 700H441L564 0H513L473 234H156L18 0H-40ZM180 276H466L402 653L180 276ZM385 798L511 914H587L435 798H385Z" />
<glyph unicode="&#xc2;" horiz-adv-x="626" d="M-40 0L377 700H441L564 0H513L473 234H156L18 0H-40ZM180 276H466L402 653L180 276ZM287 793L419 914H476L560 793H520L443 882L330 793H287Z" />
<glyph unicode="&#xc3;" horiz-adv-x="626" d="M-40 0L377 700H441L564 0H513L473 234H156L18 0H-40ZM180 276H466L402 653L180 276ZM311 801L272 814Q292 859 317 878T370 898Q391 898 409 889T443 868T474 847T504 838Q521 838 533 850T560 896L599 885Q579
839 555 819T505 799Q484 799 466 808T432 828T401 849T371 858Q353 858 339 845T311 801Z" />
<glyph unicode="&#xc4;" horiz-adv-x="626" d="M-40 0L377 700H441L564 0H513L473 234H156L18 0H-40ZM180 276H466L402 653L180 276ZM339 826Q322 826 310 838T298 869Q298 890 312 904T348 919Q365 919 377 907T389 876Q389 855 375 841T339 826ZM533 826Q516
826 504 838T492 869Q492 890 506 904T542 919Q559 919 571 907T583 876Q583 855 569 841T533 826Z" />
<glyph unicode="&#xc5;" horiz-adv-x="626" d="M-40 0L377 700H441L564 0H513L473 234H156L18 0H-40ZM180 276H466L402 653L180 276ZM435 787Q392 787 366 813T339 882Q339 914 355 941T397 985T455 1002Q498 1002 524 976T551 907Q551 876 535 849T493 804T435
787ZM436 821Q469 821 492 846T516 905Q516 934 498 951T454 968Q421 968 398 943T374 884Q374 855 392 838T436 821Z" />
<glyph unicode="&#xc6;" horiz-adv-x="881" d="M-40 0L377 700H931L921 653H452L498 377H738L728 330H505L552 47H796L786 0H510L472 234H155L17 0H-40ZM179 276H466L404 658L179 276Z" />
<glyph unicode="&#xc7;" horiz-adv-x="714" d="M344 -235Q310 -235 285 -223T245 -195L269 -171Q299 -204 342 -204Q380 -204 399 -187T419 -144Q419 -121 401 -109T351 -96H327L365 -11Q283 -6 218 37T116 151T79 310Q79 393 109 465T193 593T314 680T458 711Q538
711 605 678T716 583L676 555Q639 608 582 635T453 663Q387 663 329 635T226 557T156 444T130 309Q130 235 161 173T251 74T387 37Q452 37 510 57T615 121L647 83Q598 39 534 16T398 -11L373 -68Q413 -71 433 -90T454 -138Q454 -166 440 -188T400 -222T344 -235Z"
/>
<glyph unicode="&#xc8;" horiz-adv-x="594" d="M40 0L189 700H644L634 653H230L171 377H451L441 330H161L101 47H509L499 0H40ZM419 798L289 914H364L467 798H419Z" />
<glyph unicode="&#xc9;" horiz-adv-x="594" d="M40 0L189 700H644L634 653H230L171 377H451L441 330H161L101 47H509L499 0H40ZM389 798L515 914H591L439 798H389Z" />
<glyph unicode="&#xca;" horiz-adv-x="594" d="M40 0L189 700H644L634 653H230L171 377H451L441 330H161L101 47H509L499 0H40ZM291 793L423 914H480L564 793H524L447 882L334 793H291Z" />
<glyph unicode="&#xcb;" horiz-adv-x="594" d="M40 0L189 700H644L634 653H230L171 377H451L441 330H161L101 47H509L499 0H40ZM343 826Q326 826 314 838T302 869Q302 890 316 904T352 919Q369 919 381 907T393 876Q393 855 379 841T343 826ZM537 826Q520 826
508 838T496 869Q496 890 510 904T546 919Q563 919 575 907T587 876Q587 855 573 841T537 826Z" />
<glyph unicode="&#xcc;" horiz-adv-x="233" d="M40 0L189 700H240L91 0H40ZM225 798L95 914H170L273 798H225Z" />
<glyph unicode="&#xcd;" horiz-adv-x="233" d="M40 0L189 700H240L91 0H40ZM195 798L321 914H397L245 798H195Z" />
<glyph unicode="&#xce;" horiz-adv-x="233" d="M40 0L189 700H240L91 0H40ZM97 793L229 914H286L370 793H330L253 882L140 793H97Z" />
<glyph unicode="&#xcf;" horiz-adv-x="233" d="M40 0L189 700H240L91 0H40ZM149 826Q132 826 120 838T108 869Q108 890 122 904T158 919Q175 919 187 907T199 876Q199 855 185 841T149 826ZM343 826Q326 826 314 838T302 869Q302 890 316 904T352 919Q369 919
381 907T393 876Q393 855 379 841T343 826Z" />
<glyph unicode="&#xd0;" horiz-adv-x="707" d="M40 0L110 329H46L55 373H119L189 700H377Q466 700 532 662T636 555T674 392Q674 310 646 239T567 114T445 30T292 0H40ZM101 47H301Q372 47 431 75T533 151T599 262T623 393Q623 473 592 531T506 621T378 653H230L170
373H379L369 329H161L101 47Z" />
<glyph unicode="&#xd1;" horiz-adv-x="712" d="M40 0L189 700H246L540 74L671 700H719L570 0H523L222 639L88 0H40ZM353 801L314 814Q334 859 359 878T412 898Q433 898 451 889T485 868T516 847T546 838Q563 838 575 850T602 896L641 885Q621 839 597 819T547
799Q526 799 508 808T474 828T443 849T413 858Q395 858 381 845T353 801Z" />
<glyph unicode="&#xd2;" horiz-adv-x="793" d="M382 -11Q317 -11 262 13T165 81T102 183T79 310Q79 393 109 465T193 593T314 680T458 711Q523 711 578 687T675 619T738 517T761 390Q761 307 731 235T647 107T526 20T382 -11ZM387 37Q453 37 511 65T614 143T684
256T710 391Q710 465 679 527T590 626T453 663Q387 663 329 635T226 557T156 444T130 309Q130 235 161 173T251 74T387 37ZM460 798L330 914H405L508 798H460Z" />
<glyph unicode="&#xd3;" horiz-adv-x="793" d="M382 -11Q317 -11 262 13T165 81T102 183T79 310Q79 393 109 465T193 593T314 680T458 711Q523 711 578 687T675 619T738 517T761 390Q761 307 731 235T647 107T526 20T382 -11ZM387 37Q453 37 511 65T614 143T684
256T710 391Q710 465 679 527T590 626T453 663Q387 663 329 635T226 557T156 444T130 309Q130 235 161 173T251 74T387 37ZM430 798L556 914H632L480 798H430Z" />
<glyph unicode="&#xd4;" horiz-adv-x="793" d="M382 -11Q317 -11 262 13T165 81T102 183T79 310Q79 393 109 465T193 593T314 680T458 711Q523 711 578 687T675 619T738 517T761 390Q761 307 731 235T647 107T526 20T382 -11ZM387 37Q453 37 511 65T614 143T684
256T710 391Q710 465 679 527T590 626T453 663Q387 663 329 635T226 557T156 444T130 309Q130 235 161 173T251 74T387 37ZM332 793L464 914H521L605 793H565L488 882L375 793H332Z" />
<glyph unicode="&#xd5;" horiz-adv-x="793" d="M382 -11Q317 -11 262 13T165 81T102 183T79 310Q79 393 109 465T193 593T314 680T458 711Q523 711 578 687T675 619T738 517T761 390Q761 307 731 235T647 107T526 20T382 -11ZM387 37Q453 37 511 65T614 143T684
256T710 391Q710 465 679 527T590 626T453 663Q387 663 329 635T226 557T156 444T130 309Q130 235 161 173T251 74T387 37ZM356 801L317 814Q337 859 362 878T415 898Q436 898 454 889T488 868T519 847T549 838Q566 838 578 850T605 896L644 885Q624 839 600 819T550
799Q529 799 511 808T477 828T446 849T416 858Q398 858 384 845T356 801Z" />
<glyph unicode="&#xd6;" horiz-adv-x="793" d="M382 -11Q317 -11 262 13T165 81T102 183T79 310Q79 393 109 465T193 593T314 680T458 711Q523 711 578 687T675 619T738 517T761 390Q761 307 731 235T647 107T526 20T382 -11ZM387 37Q453 37 511 65T614 143T684
256T710 391Q710 465 679 527T590 626T453 663Q387 663 329 635T226 557T156 444T130 309Q130 235 161 173T251 74T387 37ZM384 826Q367 826 355 838T343 869Q343 890 357 904T393 919Q410 919 422 907T434 876Q434 855 420 841T384 826ZM578 826Q561 826 549 838T537
869Q537 890 551 904T587 919Q604 919 616 907T628 876Q628 855 614 841T578 826Z" />
<glyph unicode="&#xd7;" horiz-adv-x="599" d="M163 168L135 200L318 361L202 521L236 550L352 390L534 550L562 518L377 356L492 197L458 168L343 326L163 168Z" />
<glyph unicode="&#xd8;" horiz-adv-x="793" d="M382 -11Q319 -11 265 12T170 76L92 0H29L142 110Q112 151 96 201T79 310Q79 393 109 465T193 593T314 680T458 711Q521 711 575 688T670 624L748 700H811L698 590Q728 550 744 499T761 390Q761 307 731 235T647
107T526 20T382 -11ZM178 145L634 589Q601 624 555 643T453 663Q387 663 329 635T226 557T156 444T130 309Q130 216 178 145ZM387 37Q453 37 511 65T614 143T684 256T710 391Q710 437 698 479T662 555L206 111Q239 77 285 57T387 37Z" />
<glyph unicode="&#xd9;" horiz-adv-x="688" d="M315 -11Q230 -11 173 29T93 139T89 299L175 700H226L138 289Q122 214 139 158T200 69T314 37Q410 37 476 99T570 289L658 700H709L619 279Q599 184 556 119T452 22T315 -11ZM453 798L323 914H398L501 798H453Z" />
<glyph unicode="&#xda;" horiz-adv-x="688" d="M315 -11Q230 -11 173 29T93 139T89 299L175 700H226L138 289Q122 214 139 158T200 69T314 37Q410 37 476 99T570 289L658 700H709L619 279Q599 184 556 119T452 22T315 -11ZM423 798L549 914H625L473 798H423Z" />
<glyph unicode="&#xdb;" horiz-adv-x="688" d="M315 -11Q230 -11 173 29T93 139T89 299L175 700H226L138 289Q122 214 139 158T200 69T314 37Q410 37 476 99T570 289L658 700H709L619 279Q599 184 556 119T452 22T315 -11ZM325 793L457 914H514L598 793H558L481
882L368 793H325Z" />
<glyph unicode="&#xdc;" horiz-adv-x="688" d="M315 -11Q230 -11 173 29T93 139T89 299L175 700H226L138 289Q122 214 139 158T200 69T314 37Q410 37 476 99T570 289L658 700H709L619 279Q599 184 556 119T452 22T315 -11ZM377 826Q360 826 348 838T336 869Q336
890 350 904T386 919Q403 919 415 907T427 876Q427 855 413 841T377 826ZM571 826Q554 826 542 838T530 869Q530 890 544 904T580 919Q597 919 609 907T621 876Q621 855 607 841T571 826Z" />
<glyph unicode="&#xdd;" horiz-adv-x="609" d="M227 0L289 291L113 700H167L321 336L630 700H692L339 288L278 0H227ZM379 798L505 914H581L429 798H379Z" />
<glyph unicode="&#xde;" horiz-adv-x="638" d="M39 0L188 700H239L207 552H420Q479 552 521 532T586 472T609 379Q609 312 579 260T494 179T370 149H122L90 0H39ZM132 196H370Q426 196 468 219T534 283T558 377Q558 437 520 471T414 505H197L132 196Z" />
<glyph unicode="&#xdf;" horiz-adv-x="595" d="M365 -10Q309 -10 264 10T192 66L230 92Q249 65 284 51T365 36Q423 36 458 64T494 137Q494 166 476 186T418 223L354 250Q287 280 287 346Q287 380 303 402T344 439T396 468T449 496T490 532T506 586Q506 615 489
638T441 676T371 691Q300 691 254 648T188 516L77 0H28L140 521Q163 628 222 682T368 737Q423 737 464 717T529 661T553 582Q553 544 537 519T496 475T444 444T391 418T350 390T334 352Q334 329 344 315T378 291L441 264Q494 241 517 210T541 132Q541 91 518 59T456
9T365 -10Z" />
<glyph unicode="&#xe0;" horiz-adv-x="502" d="M197 -10Q125 -10 80 29T35 130Q35 175 58 209T122 262T215 282Q266 282 310 269T383 228L398 296Q414 368 388 407T284 447Q253 447 219 438T141 408L123 448Q170 470 210 479T287 489Q345 489 386 469T444 408T448
305L380 0H332L342 46Q309 19 273 5T197 -10ZM206 32Q248 32 283 47T352 91L374 189Q345 215 308 227T219 240Q161 240 122 210T82 135Q82 89 113 61T206 32ZM562 579L432 695H507L610 579H562Z" />
<glyph unicode="&#xe1;" horiz-adv-x="502" d="M197 -10Q125 -10 80 29T35 130Q35 175 58 209T122 262T215 282Q266 282 310 269T383 228L398 296Q414 368 388 407T284 447Q253 447 219 438T141 408L123 448Q170 470 210 479T287 489Q345 489 386 469T444 408T448
305L380 0H332L342 46Q309 19 273 5T197 -10ZM206 32Q248 32 283 47T352 91L374 189Q345 215 308 227T219 240Q161 240 122 210T82 135Q82 89 113 61T206 32ZM532 579L658 695H734L582 579H532Z" />
<glyph unicode="&#xe2;" horiz-adv-x="502" d="M197 -10Q125 -10 80 29T35 130Q35 175 58 209T122 262T215 282Q266 282 310 269T383 228L398 296Q414 368 388 407T284 447Q253 447 219 438T141 408L123 448Q170 470 210 479T287 489Q345 489 386 469T444 408T448
305L380 0H332L342 46Q309 19 273 5T197 -10ZM206 32Q248 32 283 47T352 91L374 189Q345 215 308 227T219 240Q161 240 122 210T82 135Q82 89 113 61T206 32ZM434 574L566 695H623L707 574H667L590 663L477 574H434Z" />
<glyph unicode="&#xe3;" horiz-adv-x="502" d="M197 -10Q125 -10 80 29T35 130Q35 175 58 209T122 262T215 282Q266 282 310 269T383 228L398 296Q414 368 388 407T284 447Q253 447 219 438T141 408L123 448Q170 470 210 479T287 489Q345 489 386 469T444 408T448
305L380 0H332L342 46Q309 19 273 5T197 -10ZM206 32Q248 32 283 47T352 91L374 189Q345 215 308 227T219 240Q161 240 122 210T82 135Q82 89 113 61T206 32ZM458 582L419 595Q439 640 464 659T517 679Q538 679 556 670T590 649T621 628T651 619Q668 619 680 631T707
677L746 666Q726 620 702 600T652 580Q631 580 613 589T579 609T548 630T518 639Q500 639 486 626T458 582Z" />
<glyph unicode="&#xe4;" horiz-adv-x="502" d="M197 -10Q125 -10 80 29T35 130Q35 175 58 209T122 262T215 282Q266 282 310 269T383 228L398 296Q414 368 388 407T284 447Q253 447 219 438T141 408L123 448Q170 470 210 479T287 489Q345 489 386 469T444 408T448
305L380 0H332L342 46Q309 19 273 5T197 -10ZM206 32Q248 32 283 47T352 91L374 189Q345 215 308 227T219 240Q161 240 122 210T82 135Q82 89 113 61T206 32ZM486 607Q469 607 457 619T445 650Q445 671 459 685T495 700Q512 700 524 688T536 657Q536 636 522 622T486
607ZM680 607Q663 607 651 619T639 650Q639 671 653 685T689 700Q706 700 718 688T730 657Q730 636 716 622T680 607Z" />
<glyph unicode="&#xe5;" horiz-adv-x="502" d="M197 -10Q125 -10 80 29T35 130Q35 175 58 209T122 262T215 282Q266 282 310 269T383 228L398 296Q414 368 388 407T284 447Q253 447 219 438T141 408L123 448Q170 470 210 479T287 489Q345 489 386 469T444 408T448
305L380 0H332L342 46Q309 19 273 5T197 -10ZM206 32Q248 32 283 47T352 91L374 189Q345 215 308 227T219 240Q161 240 122 210T82 135Q82 89 113 61T206 32ZM582 568Q539 568 513 594T486 663Q486 695 502 722T544 766T602 783Q645 783 671 757T698 688Q698 657
682 630T640 585T582 568ZM583 602Q616 602 639 627T663 686Q663 715 645 732T601 749Q568 749 545 724T521 665Q521 636 539 619T583 602Z" />
<glyph unicode="&#xe6;" horiz-adv-x="841" d="M197 -10Q125 -10 80 29T35 130Q35 175 58 209T122 262T215 282Q304 282 363 243L373 296Q387 374 360 410T260 447Q231 447 197 438T117 408L99 448Q145 469 185 479T263 489Q330 489 371 463T422 386Q459 435 510
462T617 489Q670 489 710 464T773 396T796 295Q796 278 795 262T792 231H411Q403 176 421 132T477 62T566 36Q599 36 634 47T703 81L729 43Q689 17 648 4T565 -10Q513 -10 470 13T397 77Q354 34 304 12T197 -10ZM419 272H747Q752 322 736 360T689 421T614 443Q571
443 531 421T462 361T419 272ZM206 32Q252 32 294 51T379 111Q361 152 361 200Q308 240 219 240Q161 240 122 210T82 135Q82 86 115 59T206 32Z" />
<glyph unicode="&#xe7;" horiz-adv-x="489" d="M201 -235Q167 -235 142 -223T102 -195L126 -171Q156 -204 199 -204Q237 -204 256 -187T276 -144Q276 -121 258 -109T208 -96H184L223 -8Q175 0 137 28T77 100T54 200Q54 259 74 311T129 404T211 466T309 489Q363
489 408 465T485 396L450 365Q425 401 389 422T308 443Q252 443 206 410T131 321T103 199Q103 150 125 113T183 56T263 35Q298 35 334 49T402 88L429 50Q391 20 347 5T255 -11L230 -68Q270 -71 290 -90T311 -138Q311 -166 297 -188T257 -222T201 -235Z" />
<glyph unicode="&#xe8;" horiz-adv-x="536" d="M260 -10Q201 -10 155 17T82 93T55 201Q55 260 75 312T131 404T213 466T312 489Q365 489 405 464T468 396T491 295Q491 279 490 264T487 231H106Q99 175 117 131T172 61T261 36Q293 36 328 47T398 81L424 43Q384
17 343 4T260 -10ZM114 272H442Q447 320 432 359T385 420T309 443Q265 443 226 421T157 361T114 272ZM565 579L435 695H510L613 579H565Z" />
<glyph unicode="&#xe9;" horiz-adv-x="536" d="M260 -10Q201 -10 155 17T82 93T55 201Q55 260 75 312T131 404T213 466T312 489Q365 489 405 464T468 396T491 295Q491 279 490 264T487 231H106Q99 175 117 131T172 61T261 36Q293 36 328 47T398 81L424 43Q384
17 343 4T260 -10ZM114 272H442Q447 320 432 359T385 420T309 443Q265 443 226 421T157 361T114 272ZM535 579L661 695H737L585 579H535Z" />
<glyph unicode="&#xea;" horiz-adv-x="536" d="M260 -10Q201 -10 155 17T82 93T55 201Q55 260 75 312T131 404T213 466T312 489Q365 489 405 464T468 396T491 295Q491 279 490 264T487 231H106Q99 175 117 131T172 61T261 36Q293 36 328 47T398 81L424 43Q384
17 343 4T260 -10ZM114 272H442Q447 320 432 359T385 420T309 443Q265 443 226 421T157 361T114 272ZM437 574L569 695H626L710 574H670L593 663L480 574H437Z" />
<glyph unicode="&#xeb;" horiz-adv-x="536" d="M260 -10Q201 -10 155 17T82 93T55 201Q55 260 75 312T131 404T213 466T312 489Q365 489 405 464T468 396T491 295Q491 279 490 264T487 231H106Q99 175 117 131T172 61T261 36Q293 36 328 47T398 81L424 43Q384
17 343 4T260 -10ZM114 272H442Q447 320 432 359T385 420T309 443Q265 443 226 421T157 361T114 272ZM489 607Q472 607 460 619T448 650Q448 671 462 685T498 700Q515 700 527 688T539 657Q539 636 525 622T489 607ZM683 607Q666 607 654 619T642 650Q642 671 656
685T692 700Q709 700 721 688T733 657Q733 636 719 622T683 607Z" />
<glyph unicode="&#xec;" horiz-adv-x="204" d="M26 0L129 481H178L75 0H26ZM164 579L34 695H109L212 579H164Z" />
<glyph unicode="&#xed;" horiz-adv-x="204" d="M26 0L129 481H178L75 0H26ZM134 579L260 695H336L184 579H134Z" />
<glyph unicode="&#xee;" horiz-adv-x="204" d="M26 0L129 481H178L75 0H26ZM36 574L168 695H225L309 574H269L192 663L79 574H36Z" />
<glyph unicode="&#xef;" horiz-adv-x="204" d="M26 0L129 481H178L75 0H26ZM88 607Q71 607 59 619T47 650Q47 671 61 685T97 700Q114 700 126 688T138 657Q138 636 124 622T88 607ZM282 607Q265 607 253 619T241 650Q241 671 255 685T291 700Q308 700 320 688T332
657Q332 636 318 622T282 607Z" />
<glyph unicode="&#xf0;" horiz-adv-x="577" d="M258 -10Q199 -10 154 17T82 93T56 204Q56 281 89 343T178 443T303 480Q378 480 429 438T494 327Q502 413 486 484T433 607L325 555L311 592L407 638Q388 658 365 673T314 700L337 737Q371 723 399 703T449 658L571
717L584 680L473 626Q537 530 537 388Q537 300 517 227T460 101T371 19T258 -10ZM263 36Q318 36 364 67T438 151T466 265Q466 315 446 353T391 414T308 436Q254 436 208 405T133 321T105 207Q105 157 125 119T181 58T263 36Z" />
<glyph unicode="&#xf1;" horiz-adv-x="525" d="M27 0L130 481H179L164 412Q196 450 233 469T315 489Q369 489 406 464T459 395T462 290L400 0H351L412 282Q428 356 398 400T302 445Q259 445 221 425T154 366L76 0H27ZM478 582L439 595Q459 640 484 659T537 679Q558
679 576 670T610 649T641 628T671 619Q688 619 700 631T727 677L766 666Q746 620 722 600T672 580Q651 580 633 589T599 609T568 630T538 639Q520 639 506 626T478 582Z" />
<glyph unicode="&#xf2;" horiz-adv-x="560" d="M246 -11Q191 -11 148 15T79 90T54 200Q54 253 73 304T126 397T208 464T314 489Q370 489 413 463T481 389T506 278Q506 225 487 174T434 81T352 14T246 -11ZM248 35Q303 35 350 67T427 155T457 279Q457 353 417 398T312
443Q258 443 210 411T133 323T103 199Q103 126 143 81T248 35ZM580 579L450 695H525L628 579H580Z" />
<glyph unicode="&#xf3;" horiz-adv-x="560" d="M246 -11Q191 -11 148 15T79 90T54 200Q54 253 73 304T126 397T208 464T314 489Q370 489 413 463T481 389T506 278Q506 225 487 174T434 81T352 14T246 -11ZM248 35Q303 35 350 67T427 155T457 279Q457 353 417 398T312
443Q258 443 210 411T133 323T103 199Q103 126 143 81T248 35ZM550 579L676 695H752L600 579H550Z" />
<glyph unicode="&#xf4;" horiz-adv-x="560" d="M246 -11Q191 -11 148 15T79 90T54 200Q54 253 73 304T126 397T208 464T314 489Q370 489 413 463T481 389T506 278Q506 225 487 174T434 81T352 14T246 -11ZM248 35Q303 35 350 67T427 155T457 279Q457 353 417 398T312
443Q258 443 210 411T133 323T103 199Q103 126 143 81T248 35ZM452 574L584 695H641L725 574H685L608 663L495 574H452Z" />
<glyph unicode="&#xf5;" horiz-adv-x="560" d="M246 -11Q191 -11 148 15T79 90T54 200Q54 253 73 304T126 397T208 464T314 489Q370 489 413 463T481 389T506 278Q506 225 487 174T434 81T352 14T246 -11ZM248 35Q303 35 350 67T427 155T457 279Q457 353 417 398T312
443Q258 443 210 411T133 323T103 199Q103 126 143 81T248 35ZM476 582L437 595Q457 640 482 659T535 679Q556 679 574 670T608 649T639 628T669 619Q686 619 698 631T725 677L764 666Q744 620 720 600T670 580Q649 580 631 589T597 609T566 630T536 639Q518 639
504 626T476 582Z" />
<glyph unicode="&#xf6;" horiz-adv-x="560" d="M246 -11Q191 -11 148 15T79 90T54 200Q54 253 73 304T126 397T208 464T314 489Q370 489 413 463T481 389T506 278Q506 225 487 174T434 81T352 14T246 -11ZM248 35Q303 35 350 67T427 155T457 279Q457 353 417 398T312
443Q258 443 210 411T133 323T103 199Q103 126 143 81T248 35ZM504 607Q487 607 475 619T463 650Q463 671 477 685T513 700Q530 700 542 688T554 657Q554 636 540 622T504 607ZM698 607Q681 607 669 619T657 650Q657 671 671 685T707 700Q724 700 736 688T748 657Q748
636 734 622T698 607Z" />
<glyph unicode="&#xf7;" horiz-adv-x="600" d="M153 335L163 380H544L534 335H153ZM303 142Q288 142 277 152T266 176Q266 197 281 212T317 228Q332 228 343 218T354 194Q354 173 339 158T303 142ZM377 490Q362 490 351 500T340 524Q340 545 355 560T391 576Q406
576 417 566T428 542Q428 521 413 506T377 490Z" />
<glyph unicode="&#xf8;" horiz-adv-x="559" d="M246 -11Q205 -11 171 4T110 46L63 0H4L85 79Q70 104 62 135T54 200Q54 253 73 304T126 397T208 464T314 489Q355 489 389 475T448 434L496 481H555L474 401Q489 376 497 345T506 278Q506 225 487 174T434 81T352
14T246 -11ZM121 114L414 401Q395 421 370 432T312 443Q258 443 210 411T133 323T103 199Q103 175 107 154T121 114ZM248 35Q303 35 350 67T427 155T457 279Q457 304 452 326T438 367L144 79Q183 35 248 35Z" />
<glyph unicode="&#xf9;" horiz-adv-x="524" d="M211 -8Q158 -8 120 17T66 87T63 191L126 481H175L113 199Q97 125 128 81T224 36Q265 36 302 55T369 111L448 481H497L394 0H345L359 66Q328 30 292 11T211 -8ZM572 579L442 695H517L620 579H572Z" />
<glyph unicode="&#xfa;" horiz-adv-x="524" d="M211 -8Q158 -8 120 17T66 87T63 191L126 481H175L113 199Q97 125 128 81T224 36Q265 36 302 55T369 111L448 481H497L394 0H345L359 66Q328 30 292 11T211 -8ZM542 579L668 695H744L592 579H542Z" />
<glyph unicode="&#xfb;" horiz-adv-x="524" d="M211 -8Q158 -8 120 17T66 87T63 191L126 481H175L113 199Q97 125 128 81T224 36Q265 36 302 55T369 111L448 481H497L394 0H345L359 66Q328 30 292 11T211 -8ZM444 574L576 695H633L717 574H677L600 663L487 574H444Z" />
<glyph unicode="&#xfc;" horiz-adv-x="524" d="M211 -8Q158 -8 120 17T66 87T63 191L126 481H175L113 199Q97 125 128 81T224 36Q265 36 302 55T369 111L448 481H497L394 0H345L359 66Q328 30 292 11T211 -8ZM496 607Q479 607 467 619T455 650Q455 671 469 685T505
700Q522 700 534 688T546 657Q546 636 532 622T496 607ZM690 607Q673 607 661 619T649 650Q649 671 663 685T699 700Q716 700 728 688T740 657Q740 636 726 622T690 607Z" />
<glyph unicode="&#xfd;" horiz-adv-x="467" d="M6 -219Q-2 -219 -12 -217T-40 -210L-31 -165Q-19 -169 -9 -171T8 -173Q34 -173 56 -158T97 -110L159 -4L72 481H124L197 62L445 481H502L141 -129Q113 -178 82 -198T6 -219ZM512 579L638 695H714L562 579H512Z" />
<glyph unicode="&#xfe;" horiz-adv-x="555" d="M-16 -209L183 725L234 737L169 432Q230 487 308 487Q365 487 409 459T478 382T503 269Q503 212 484 162T430 74T350 14T253 -8Q147 -8 94 74L33 -209H-16ZM294 441Q217 441 161 388L104 122Q123 85 162 62T248 38Q306
38 352 68T426 150T454 265Q454 343 410 392T294 441Z" />
<glyph unicode="&#xff;" horiz-adv-x="467" d="M6 -219Q-2 -219 -12 -217T-40 -210L-31 -165Q-19 -169 -9 -171T8 -173Q34 -173 56 -158T97 -110L159 -4L72 481H124L197 62L445 481H502L141 -129Q113 -178 82 -198T6 -219ZM466 607Q449 607 437 619T425 650Q425
671 439 685T475 700Q492 700 504 688T516 657Q516 636 502 622T466 607ZM660 607Q643 607 631 619T619 650Q619 671 633 685T669 700Q686 700 698 688T710 657Q710 636 696 622T660 607Z" />
<glyph unicode="&#x2013;" horiz-adv-x="536" d="M66 258L77 302H486L475 258H66Z" />
<glyph unicode="&#x2014;" horiz-adv-x="675" d="M66 258L77 302H626L615 258H66Z" />
<glyph unicode="&#x2018;" horiz-adv-x="250" d="M278 750L183 538H125L237 750H278Z" />
<glyph unicode="&#x2019;" horiz-adv-x="250" d="M125 538L220 750H278L166 538H125Z" />
<glyph unicode="&#x201a;" horiz-adv-x="250" d="M-21 -152L74 60H132L20 -152H-21Z" />
<glyph unicode="&#x201c;" horiz-adv-x="391" d="M278 750L183 538H125L237 750H278ZM419 750L324 538H266L378 750H419Z" />
<glyph unicode="&#x201d;" horiz-adv-x="392" d="M267 538L362 750H420L308 538H267ZM125 538L220 750H278L166 538H125Z" />
<glyph unicode="&#x201e;" horiz-adv-x="395" d="M124 -152L219 60H277L165 -152H124ZM-21 -152L74 60H132L20 -152H-21Z" />
<glyph unicode="&#x2022;" horiz-adv-x="327" d="M180 268Q145 268 121 292T96 351Q96 380 110 403T149 441T200 456Q235 456 258 433T282 374Q282 346 268 322T231 283T180 268Z" />
<glyph unicode="&#x2039;" horiz-adv-x="379" d="M218 0L49 241L311 481H374L109 236L271 0H218Z" />
<glyph unicode="&#x203a;" horiz-adv-x="379" d="M175 481L344 240L82 0H19L284 245L122 481H175Z" />
</font>
</defs>
</svg>
