<?xml version="1.0" standalone="no"?>
<!DOCTYPE svg PUBLIC "-//W3C//DTD SVG 1.1//EN" "http://www.w3.org/Graphics/SVG/1.1/DTD/svg11.dtd">
<svg xmlns="http://www.w3.org/2000/svg">
<defs >
<font id="RedHatText" horiz-adv-x="530" ><font-face
    font-family="Red Hat Text"
    units-per-em="1000"
    panose-1="2 1 3 3 4 2 1 6 3 3"
    ascent="1018"
    descent="-305"
    alphabetic="0" />
<glyph unicode=" " horiz-adv-x="215" />
<glyph unicode="!" horiz-adv-x="275" d="M79 227L60 727H216L197 227H79ZM138 -11Q101 -11 75 16T49 80Q49 118 75 144T138 171Q174 171 200 145T226 80Q226 43 200 16T138 -11Z" />
<glyph unicode="&quot;" horiz-adv-x="509" d="M90 440L72 750H221L203 440H90ZM307 440L289 750H438L420 440H307Z" />
<glyph unicode="#" horiz-adv-x="750" d="M54 0L117 184H43V298H156L192 402H90V516H231L294 700H432L369 516H495L558 700H695L632 516H707V402H593L557 298H659V184H518L455 0H318L381 184H255L192 0H54ZM294 298H420L456 402H330L294 298Z" />
<glyph unicode="$" horiz-adv-x="594" d="M251 -66V20Q190 25 131 43T21 93L89 214Q128 190 169 175T251 154V285L178 303Q105 321 68 365T31 478Q31 569 88 622T251 682V768H329V681Q386 675 439 657T537 609L475 489Q403 532 329 546V415L400 398Q477 379 515
337T554 230Q554 170 528 125T451 54T329 21V-66H251ZM251 430V550Q215 547 195 531T174 490Q174 467 189 454T242 432L251 430ZM329 153Q367 157 386 172T406 211Q406 234 392 245T336 269L329 271V153Z" />
<glyph unicode="%" horiz-adv-x="814" d="M184 345Q114 345 71 393T27 526Q27 609 70 657T184 706Q254 706 297 658T340 526Q340 442 297 394T184 345ZM184 427Q213 427 231 452T249 526Q249 573 231 598T184 624Q154 624 136 599T118 526Q118 477 136 452T184
427ZM145 0L542 700H657L259 0H145ZM630 -5Q560 -5 517 43T473 176Q473 259 516 307T630 356Q700 356 743 308T786 176Q786 92 743 44T630 -5ZM630 77Q659 77 677 102T695 176Q695 223 677 248T630 274Q600 274 582 249T564 176Q564 127 582 102T630 77Z" />
<glyph unicode="&amp;" horiz-adv-x="696" d="M277 -11Q202 -11 145 14T56 84T24 189Q24 254 53 296T152 379Q121 419 109 454T96 530Q96 582 122 623T195 687T302 711Q360 711 405 689T477 627T504 538Q504 493 481 456T410 390L359 358Q384 333 412 306T470
251Q486 281 498 317T520 397L658 374Q642 308 622 255T574 160Q597 141 620 124T664 90L568 -24Q546 -7 523 10T477 47Q392 -11 277 -11ZM282 449L317 470Q340 484 349 499T359 533Q359 559 342 576T298 593Q273 593 257 576T240 533Q240 515 249 497T282 449ZM289
115Q313 115 334 120T375 136Q336 172 299 209T229 284Q209 271 197 259T179 233T173 202Q173 162 204 139T289 115Z" />
<glyph unicode="&apos;" horiz-adv-x="292" d="M90 440L72 750H221L203 440H90Z" />
<glyph unicode="(" horiz-adv-x="430" d="M311 -225Q230 -176 174 -106T90 53T61 243Q61 345 89 433T174 591T311 711L397 612Q302 549 253 456T203 243Q203 125 252 31T397 -126L311 -225Z" />
<glyph unicode=")" horiz-adv-x="430" d="M119 711Q200 662 256 592T340 433T369 243Q369 141 341 53T256 -105T119 -225L33 -126Q128 -63 177 30T227 243Q227 361 178 455T33 612L119 711Z" />
<glyph unicode="*" horiz-adv-x="493" d="M198 306L200 412L106 351L53 438L156 501L51 567L105 652L200 590L198 700H296L294 589L389 652L444 567L339 501L442 438L387 351L294 412L296 306H198Z" />
<glyph unicode="+" horiz-adv-x="600" d="M238 123V297H75V417H238V591H362V417H525V297H362V123H238Z" />
<glyph unicode="," horiz-adv-x="250" d="M-10 -177L65 127H224L106 -177H-10Z" />
<glyph unicode="-" horiz-adv-x="470" d="M51 219V354H419V219H51Z" />
<glyph unicode="." horiz-adv-x="250" d="M125 -11Q88 -11 61 17T34 84Q34 123 61 151T125 179Q163 179 189 151T216 84Q216 45 190 17T125 -11Z" />
<glyph unicode="/" horiz-adv-x="534" d="M-53 -209L349 700H503L102 -209H-53Z" />
<glyph unicode="0" horiz-adv-x="690" d="M345 -9Q254 -9 186 36T80 162T42 351Q42 459 80 540T186 666T345 711Q436 711 504 666T610 540T648 351Q648 243 610 162T504 36T345 -9ZM345 127Q391 127 424 154T476 232T495 351Q495 420 477 470T425 547T345 575Q299
575 266 548T214 470T195 351Q195 283 213 233T265 155T345 127Z" />
<glyph unicode="1" horiz-adv-x="385" d="M170 0V540L32 483V619L227 700H324V0H170Z" />
<glyph unicode="2" horiz-adv-x="597" d="M51 0V110L347 403Q364 419 374 434T389 466T394 498Q394 532 365 554T291 577Q244 577 203 558T114 491L28 596Q88 653 155 682T296 711Q371 711 426 686T513 615T544 508Q544 475 535 445T505 385T453 325L251 130L554
131V0H51Z" />
<glyph unicode="3" horiz-adv-x="633" d="M307 -11Q223 -11 151 19T31 102L135 198Q174 156 210 140T305 124Q343 124 371 134T415 164T431 210Q431 233 420 249T388 274T339 283H249V410H323Q366 410 390 430T414 488Q414 513 400 532T361 563T304 574Q253 574
218 557T141 494L36 589Q86 646 158 678T310 711Q387 711 445 686T536 615T569 509Q569 452 532 409T436 349Q505 336 546 296T587 197Q587 137 551 90T452 16T307 -11Z" />
<glyph unicode="4" horiz-adv-x="694" d="M421 0V155H27V286L394 700H583V290H670V155H583V0H421ZM214 290H421V522L214 290Z" />
<glyph unicode="5" horiz-adv-x="616" d="M287 -11Q140 -11 31 83L123 190Q167 154 208 138T295 122Q332 122 359 134T401 170T417 223Q417 267 381 296T288 325Q260 325 232 317T174 291L63 324L80 700H538V569H216L209 417Q245 434 277 439T339 444Q410 444
463 418T545 343T575 231Q575 159 539 105T438 20T287 -11Z" />
<glyph unicode="6" horiz-adv-x="651" d="M351 -11Q259 -11 190 33T82 155T43 339Q43 451 85 534T204 664T383 711Q442 711 500 691T596 635L507 525Q478 550 446 561T371 573Q314 573 275 545T216 464T196 334Q229 381 276 407T375 433Q444 433 497 406T580 331T610
221Q610 155 577 103T485 20T351 -11ZM349 313Q306 313 270 297T205 252Q215 212 234 183T282 137T343 121Q376 121 402 133T443 168T459 218Q459 246 445 267T407 301T349 313Z" />
<glyph unicode="7" horiz-adv-x="618" d="M116 0L416 564H36V700H583V585L301 0H116Z" />
<glyph unicode="8" horiz-adv-x="638" d="M320 -11Q239 -11 178 15T82 89T47 198Q47 235 63 267T110 323T179 359Q129 379 98 419T67 508Q67 566 100 612T191 684T320 711Q392 711 449 685T540 612T573 508Q573 459 542 419T461 359Q520 340 556 297T593 198Q593
136 559 89T463 16T320 -11ZM320 411Q349 411 372 422T408 452T421 497Q421 522 408 541T372 572T320 583Q291 583 268 572T232 542T219 497Q219 472 232 453T268 422T320 411ZM320 118Q355 118 381 129T422 162T437 209Q437 236 422 256T381 288T320 300Q286 300
260 289T218 257T203 209Q203 183 218 162T259 130T320 118Z" />
<glyph unicode="9" horiz-adv-x="651" d="M295 711Q387 711 456 667T564 545T603 361Q603 250 561 166T442 36T263 -11Q205 -11 146 10T50 65L139 175Q168 150 200 139T275 127Q332 127 371 155T430 236T450 366Q417 319 371 293T271 267Q202 267 149 294T66 369T36
479Q36 546 69 598T162 680T295 711ZM297 387Q340 387 376 403T441 448Q431 488 412 517T365 563T303 579Q270 579 244 567T202 532T187 482Q187 454 201 433T240 399T297 387Z" />
<glyph unicode=":" horiz-adv-x="250" d="M125 -11Q88 -11 61 17T34 84Q34 123 61 151T125 179Q163 179 189 151T216 84Q216 45 190 17T125 -11ZM125 337Q88 337 61 365T34 432Q34 471 61 499T125 527Q163 527 189 499T216 432Q216 393 190 365T125 337Z" />
<glyph unicode=";" horiz-adv-x="250" d="M135 337Q98 337 71 365T44 432Q44 471 71 499T135 527Q173 527 199 499T226 432Q226 393 200 365T135 337ZM239 -177L314 127H473L355 -177H239Z" />
<glyph unicode="&lt;" horiz-adv-x="600" d="M417 43L63 347L420 652L502 559L252 349L502 138L417 43Z" />
<glyph unicode="=" horiz-adv-x="600" d="M75 447V567H525V447H75ZM75 393V513H525V393H75Z" />
<glyph unicode="&gt;" horiz-adv-x="600" d="M183 652L537 348L180 43L98 136L348 346L98 557L183 652Z" />
<glyph unicode="?" horiz-adv-x="537" d="M182 229Q180 272 185 301T206 354T253 400L305 440Q329 460 340 476T352 509Q352 529 341 544T311 568T265 577Q223 577 190 554T143 493L18 542Q45 619 114 665T271 711Q337 711 389 686T472 617T503 519Q503 483 492
454T455 397T383 336L359 319Q331 299 321 280T311 229H182ZM247 -11Q210 -11 184 16T158 80Q158 118 184 144T247 171Q284 171 310 145T336 80Q336 43 310 16T247 -11Z" />
<glyph unicode="@" horiz-adv-x="822" d="M428 -144Q346 -144 278 -118T159 -45T80 67T52 207Q52 288 80 357T159 477T279 556T430 585Q502 585 564 562T673 498T746 401T772 281Q772 211 747 158T678 74T574 44Q495 44 465 85Q421 46 361 46Q320 46 287 67T235
124T215 203Q215 256 239 298T304 365T397 390Q422 390 444 383T485 361L488 377H602L557 165Q552 145 561 134T592 123Q621 123 642 142T676 194T688 273Q688 343 654 397T561 484T427 516Q364 516 311 493T217 430T155 334T133 215Q133 131 170 67T273 -32T426
-68Q472 -68 512 -60T588 -35L618 -101Q569 -123 524 -133T428 -144ZM389 138Q421 138 446 159Q446 164 447 170T449 183L465 266Q455 280 440 287T402 294Q381 294 363 283T334 254T323 213Q323 181 342 160T389 138Z" />
<glyph unicode="A" horiz-adv-x="742" d="M2 0L275 700H471L740 0H554L496 167H240L181 0H2ZM287 300H450L369 532L287 300Z" />
<glyph unicode="B" horiz-adv-x="729" d="M78 0V700H424Q492 700 544 676T627 608T657 509Q657 460 629 421T555 357Q610 335 643 293T677 196Q677 139 647 95T563 25T440 0H78ZM250 419H404Q440 419 462 439T484 491Q484 524 463 543T404 563H250V419ZM250 137H418Q457
137 480 158T503 214Q503 249 480 270T418 291H250V137Z" />
<glyph unicode="C" horiz-adv-x="720" d="M414 -11Q336 -11 269 16T152 93T73 208T45 350Q45 427 73 492T151 607T269 683T414 711Q470 711 523 695T622 648T698 575L582 465Q548 512 506 535T414 558Q373 558 339 543T278 499T238 433T223 350Q223 305 237 268T278
202T338 158T414 142Q464 142 506 165T582 235L698 125Q668 84 623 53T524 6T414 -11Z" />
<glyph unicode="D" horiz-adv-x="760" d="M250 147H363Q412 147 451 174T513 247T537 350Q537 407 514 453T451 526T363 553H250V147ZM78 0V700H363Q437 700 500 673T612 598T688 487T715 350Q715 277 688 214T613 102T501 27T363 0H78Z" />
<glyph unicode="E" horiz-adv-x="668" d="M78 0V700H607V556H250V423H502V283H250V144H611V0H78Z" />
<glyph unicode="F" horiz-adv-x="663" d="M78 0V700H611V556H250V418H502V278H250V0H78Z" />
<glyph unicode="G" horiz-adv-x="806" d="M413 -11Q335 -11 269 16T152 93T73 208T45 350Q45 426 73 491T150 606T266 683T410 711Q498 711 576 676T704 575L583 470Q550 514 506 536T410 558Q370 558 336 543T276 499T237 433T223 350Q223 305 237 267T278 200T339
156T416 140Q456 140 488 155T544 196T576 257H401V402H761V353Q761 274 736 208T663 92T553 16T413 -11Z" />
<glyph unicode="H" horiz-adv-x="763" d="M68 0V700H240V428H523V700H695V0H523V277H240V0H68Z" />
<glyph unicode="I" horiz-adv-x="308" d="M68 0V700H240V0H68Z" />
<glyph unicode="J" horiz-adv-x="670" d="M314 -10Q205 -10 131 45T26 204L185 261Q203 200 235 171T315 141Q368 141 401 179T434 279V700H606V274Q606 189 570 125T468 26T314 -10Z" />
<glyph unicode="K" horiz-adv-x="738" d="M78 0V700H250V396L511 700H716L410 371L734 0H509L250 318V0H78Z" />
<glyph unicode="L" horiz-adv-x="648" d="M78 0V700H250V147H597V0H78Z" />
<glyph unicode="M" horiz-adv-x="925" d="M78 0V700H294L463 364L631 700H847V0H685V475L461 50L236 479V0H78Z" />
<glyph unicode="N" horiz-adv-x="788" d="M78 0V700H240L551 276L548 700H710V0H558L237 438L240 0H78Z" />
<glyph unicode="O" horiz-adv-x="814" d="M407 -11Q331 -11 265 16T150 93T73 208T45 350Q45 426 72 491T149 606T265 683T407 711Q483 711 549 684T664 607T741 492T769 350Q769 274 742 209T665 94T549 17T407 -11ZM407 142Q446 142 480 157T539 201T578 267T592
350Q592 395 578 432T539 498T480 542T407 558Q368 558 334 543T275 499T236 433T222 350Q222 305 236 268T275 202T334 158T407 142Z" />
<glyph unicode="P" horiz-adv-x="710" d="M78 0V700H420Q495 700 550 670T636 588T667 469Q667 406 637 355T551 274T420 244H250V0H78ZM250 381H389Q442 381 467 406T493 470Q493 508 468 533T390 558H250V381Z" />
<glyph unicode="Q" horiz-adv-x="814" d="M594 -52L541 14Q510 2 477 -4T407 -11Q331 -11 265 16T150 93T73 208T45 350Q45 426 72 491T149 606T265 683T407 711Q483 711 549 684T664 607T741 492T769 350Q769 275 742 210T665 95L740 2L594 -52ZM407 142Q415
142 423 143T438 145L367 235L513 289L560 230Q575 255 583 285T592 350Q592 395 578 432T539 498T480 542T407 558Q368 558 334 543T275 499T236 433T222 350Q222 305 236 268T275 202T334 158T407 142Z" />
<glyph unicode="R" horiz-adv-x="703" d="M78 0V700H418Q490 700 546 672T633 593T665 477Q665 410 630 359T535 281L682 0H490L363 257H250V0H78ZM250 392H402Q442 392 466 415T491 475Q491 513 467 535T402 558H250V392Z" />
<glyph unicode="S" horiz-adv-x="655" d="M322 -11Q239 -11 164 16T19 95L107 222Q180 171 231 150T334 129Q371 129 397 138T438 164T453 203Q453 234 433 250T361 276L212 302Q129 316 85 366T40 490Q40 558 73 607T168 684T318 711Q399 711 475 687T605 619L518
494Q467 533 416 552T309 571Q275 571 251 563T215 539T202 505Q202 478 220 464T281 441L421 417Q519 401 570 350T621 219Q621 151 585 99T481 18T322 -11Z" />
<glyph unicode="T" horiz-adv-x="664" d="M246 0V553H21V700H643V553H418V0H246Z" />
<glyph unicode="U" horiz-adv-x="748" d="M374 -10Q280 -10 210 28T102 137T64 304V700H236V304Q236 256 253 220T301 164T374 144Q416 144 447 164T495 220T512 304V700H684V304Q684 208 646 138T539 29T374 -10Z" />
<glyph unicode="V" horiz-adv-x="742" d="M271 0L2 700H188L373 179L561 700H740L467 0H271Z" />
<glyph unicode="W" horiz-adv-x="983" d="M186 0L30 700H207L292 266L414 700H575L697 266L782 700H953L797 0H615L492 451L368 0H186Z" />
<glyph unicode="X" horiz-adv-x="755" d="M10 0L279 364L26 700H231L382 488L532 700H729L477 358L745 0H540L374 236L207 0H10Z" />
<glyph unicode="Y" horiz-adv-x="739" d="M283 0V265L-1 700H197L374 413L553 700H740L455 266V0H283Z" />
<glyph unicode="Z" horiz-adv-x="623" d="M29 0V112L376 559L31 556V700H596V588L251 141L599 144V0H29Z" />
<glyph unicode="[" horiz-adv-x="422" d="M68 -215V700H371V574H214V-89H371V-215H68Z" />
<glyph unicode="\" horiz-adv-x="543" d="M434 -209L31 700H194L596 -209H434Z" />
<glyph unicode="]" horiz-adv-x="422" d="M354 700V-215H51V-89H208V574H51V700H354Z" />
<glyph unicode="^" horiz-adv-x="600" d="M60 350L234 700H366L540 350H415L300 584L185 350H60Z" />
<glyph unicode="_" horiz-adv-x="473" d="M-1 -191V-80H475V-191H-1Z" />
<glyph unicode="`" horiz-adv-x="600" d="M258 601L66 747H268L406 601H258Z" />
<glyph unicode="a" horiz-adv-x="579" d="M217 -8Q165 -8 125 12T62 67T39 148Q39 196 63 229T132 280T240 298Q268 298 297 293T360 274V316Q360 354 335 372T258 391Q229 391 194 383T113 355L57 468Q182 524 294 524Q401 524 460 473T520 330V0H360V45Q326
17 292 5T217 -8ZM188 151Q188 126 209 113T267 99Q293 99 316 105T360 125V191Q338 196 316 199T271 202Q231 202 210 189T188 151Z" />
<glyph unicode="b" horiz-adv-x="644" d="M63 0V712L225 737V450Q251 482 290 500T376 519Q440 519 491 484T573 389T604 257Q604 185 572 126T486 32T364 -3Q322 -3 286 14T223 63V0H63ZM322 130Q358 130 385 146T429 192T445 258Q445 295 429 323T385 368T322
385Q292 385 269 375T225 343V171Q244 152 269 141T322 130Z" />
<glyph unicode="c" horiz-adv-x="539" d="M307 -10Q232 -10 172 25T76 121T40 257Q40 333 75 393T171 488T307 524Q371 524 427 500T522 429L423 330Q398 359 372 372T313 386Q281 386 256 369T216 323T201 257Q201 220 215 191T255 145T313 128Q346 128 372 141T423
184L522 85Q483 39 427 15T307 -10Z" />
<glyph unicode="d" horiz-adv-x="643" d="M268 -3Q205 -3 153 32T71 127T40 259Q40 332 72 390T158 484T280 519Q321 519 356 503T418 457V712L580 737V0H420V67Q395 35 355 16T268 -3ZM322 131Q351 131 375 141T418 172V346Q399 366 375 376T322 386Q287 386
259 370T215 324T199 258Q199 222 215 193T259 148T322 131Z" />
<glyph unicode="e" horiz-adv-x="592" d="M312 -10Q236 -10 175 25T77 121T40 257Q40 333 74 393T167 488T300 524Q375 524 432 489T521 393T554 251V216H199Q207 187 224 165T266 131T320 119Q352 119 378 130T422 162L529 73Q479 29 428 10T312 -10ZM199 308H404Q397
336 382 356T346 387T299 398Q274 398 254 388T220 357T199 308Z" />
<glyph unicode="f" horiz-adv-x="460" d="M139 0V391H32V516H139V584Q139 676 192 725T345 774Q366 774 390 772T431 764V631Q409 635 396 636T369 637Q335 637 318 624T301 581V516H431V391H301V0H139Z" />
<glyph unicode="g" horiz-adv-x="642" d="M307 -219Q249 -219 195 -207T93 -173L143 -56Q186 -76 225 -86T301 -96Q359 -96 388 -72T418 -1V69Q393 38 353 20T268 1Q205 1 153 36T71 130T40 261Q40 333 72 391T158 484T280 519Q321 519 357 503T420 454V516H579V-3Q579
-107 509 -163T307 -219ZM322 133Q351 133 375 143T418 174V346Q399 366 375 376T322 386Q287 386 259 370T215 325T199 260Q199 224 215 195T259 150T322 133Z" />
<glyph unicode="h" horiz-adv-x="618" d="M63 0V712L225 737V432Q255 477 296 500T388 524Q438 524 476 502T537 440T559 348V0H397V301Q397 345 374 371T311 397Q285 397 264 387T225 354V0H63Z" />
<glyph unicode="i" horiz-adv-x="288" d="M63 0V516H225V0H63ZM144 595Q107 595 80 622T53 686Q53 724 80 750T144 777Q182 777 208 751T235 686Q235 649 209 622T144 595Z" />
<glyph unicode="j" horiz-adv-x="288" d="M144 595Q107 595 80 622T53 686Q53 724 80 750T144 777Q182 777 208 751T235 686Q235 649 209 622T144 595ZM46 -219Q25 -219 2 -216T-34 -209V-86Q-23 -88 -13 -89T11 -90Q38 -90 50 -79T63 -46V516H225V-53Q225 -132
179 -175T46 -219Z" />
<glyph unicode="k" horiz-adv-x="604" d="M63 0V715L225 740V311L405 516H584L374 285L599 0H397L225 228V0H63Z" />
<glyph unicode="l" horiz-adv-x="288" d="M63 0V712L225 737V0H63Z" />
<glyph unicode="m" horiz-adv-x="913" d="M63 0V516H225V434Q254 478 292 501T378 524Q428 524 466 498T523 428Q553 475 596 499T692 524Q740 524 776 501T833 437T854 343V0H692V311Q692 350 671 373T615 397Q593 397 575 388T540 358Q540 354 540 351T540 343V0H378V311Q378
350 357 373T301 397Q256 397 225 357V0H63Z" />
<glyph unicode="n" horiz-adv-x="618" d="M63 0V516H225V432Q255 477 296 500T388 524Q438 524 476 502T537 440T559 348V0H397V301Q397 345 374 371T311 397Q285 397 264 387T225 354V0H63Z" />
<glyph unicode="o" horiz-adv-x="618" d="M310 -10Q233 -10 172 25T76 120T40 257Q40 333 75 393T172 489T309 524Q386 524 446 489T542 394T578 257Q578 181 543 121T447 25T310 -10ZM309 125Q342 125 367 142T406 189T420 257Q420 296 406 325T367 372T309 389Q277
389 252 372T212 326T198 258Q198 219 212 189T251 142T309 125Z" />
<glyph unicode="p" horiz-adv-x="644" d="M63 -209V516H223V444Q249 479 289 499T376 519Q440 519 491 484T573 389T604 257Q604 185 572 126T486 32T364 -3Q322 -3 287 12T225 57V-209H63ZM322 130Q358 130 385 146T429 192T445 258Q445 295 429 323T385 368T322
385Q292 385 269 375T225 343V171Q244 152 269 141T322 130Z" />
<glyph unicode="q" horiz-adv-x="643" d="M418 -211V65Q393 34 353 16T268 -3Q205 -3 153 32T71 127T40 259Q40 332 72 390T158 484T280 519Q321 519 357 503T420 454V516H580V-211H418ZM322 131Q351 131 375 141T418 172V346Q399 366 375 376T322 386Q287 386
259 370T215 324T199 258Q199 222 215 193T259 148T322 131Z" />
<glyph unicode="r" horiz-adv-x="442" d="M63 0V516H225V399Q250 464 284 495T365 526Q382 525 393 523T419 513V374Q404 382 384 386T343 390Q307 390 276 373T225 326V0H63Z" />
<glyph unicode="s" horiz-adv-x="511" d="M258 -10Q188 -10 127 6T21 53L92 161Q148 132 184 121T258 109Q293 109 312 120T332 151Q332 166 321 175T284 188L185 206Q110 220 72 258T33 356Q33 409 59 446T133 504T249 524Q303 524 356 509T459 465L385 362Q346
385 310 395T237 406Q208 406 192 397T175 371Q175 355 186 347T228 334L325 316Q402 302 441 264T480 167Q480 117 451 77T372 13T258 -10Z" />
<glyph unicode="t" horiz-adv-x="458" d="M316 -10Q225 -10 178 32T131 156V391H31V516H131V659L293 692V516H431V391H293V188Q293 154 308 140T361 126Q375 126 389 128T427 137V6Q405 -1 373 -5T316 -10Z" />
<glyph unicode="u" horiz-adv-x="618" d="M230 -8Q180 -8 142 14T81 76T59 168V516H221V215Q221 172 244 146T307 119Q333 119 354 129T393 162V516H555V0H393V84Q363 39 322 16T230 -8Z" />
<glyph unicode="v" horiz-adv-x="592" d="M216 0L7 516H183L300 192L418 516H585L374 0H216Z" />
<glyph unicode="w" horiz-adv-x="783" d="M154 0L16 516H169L241 208L328 516H461L547 209L618 516H767L630 0H476L392 304L310 0H154Z" />
<glyph unicode="x" horiz-adv-x="591" d="M10 0L203 263L16 516H203L299 377L395 516H575L385 260L581 0H393L291 147L189 0H10Z" />
<glyph unicode="y" horiz-adv-x="584" d="M119 -219Q87 -219 52 -211V-75Q61 -76 73 -77T100 -79Q133 -79 152 -66T184 -27L192 -10L2 516H181L284 183L402 516H577L345 -58Q321 -117 292 -152T221 -203T119 -219Z" />
<glyph unicode="z" horiz-adv-x="510" d="M36 0V113L267 382L38 380V516H466V403L234 133L474 135V0H36Z" />
<glyph unicode="{" horiz-adv-x="456" d="M301 -219Q234 -219 190 -192T131 -116T136 -7L165 81Q181 128 163 157T101 187H25V305H101Q145 305 163 334T165 411L136 499Q116 560 131 608T190 683T301 711Q328 711 353 707T403 693L382 578Q368 583 353 586T322
589Q297 589 282 578T264 546T269 499L301 407Q315 369 306 336T270 279T200 246Q243 238 270 215T306 158T301 85L269 -7Q260 -33 263 -53T282 -85T322 -97Q338 -97 353 -94T382 -86L403 -201Q378 -210 353 -214T301 -219Z" />
<glyph unicode="|" horiz-adv-x="356" d="M106 -209V700H250V-209H106Z" />
<glyph unicode="}" horiz-adv-x="456" d="M155 711Q222 711 266 684T325 608T320 499L291 411Q275 364 293 335T355 305H431V187H355Q311 187 293 158T291 81L320 -7Q340 -68 325 -116T266 -191T155 -219Q128 -219 103 -215T53 -201L74 -86Q88 -91 103 -94T134
-97Q159 -97 174 -86T192 -54T187 -7L155 85Q141 123 150 156T186 213T256 246Q213 254 186 277T150 334T155 407L187 499Q196 525 193 545T174 577T134 589Q118 589 103 586T74 578L53 693Q78 702 103 706T155 711Z" />
<glyph unicode="~" horiz-adv-x="600" d="M133 279L27 291Q37 378 74 424T173 471Q196 471 219 465T265 448L353 405Q373 395 386 391T409 387Q458 387 467 461L573 449Q563 362 525 316T426 269Q404 269 380 275T334 292L246 335Q225 345 213 349T190 353Q140
353 133 279Z" />
<glyph unicode="&#xa0;" horiz-adv-x="215" />
<glyph unicode="&#xa1;" horiz-adv-x="275" d="M196 265L215 -235H59L78 265H196ZM137 503Q174 503 200 476T226 412Q226 374 200 348T137 321Q101 321 75 347T49 412Q49 449 75 476T137 503Z" />
<glyph unicode="&#xa2;" horiz-adv-x="540" d="M278 -110V-9Q210 -2 156 34T71 129T40 257Q40 328 71 385T156 479T278 523V625H346V522Q399 515 444 492T522 429L423 330Q405 352 387 364T346 382V132Q368 137 386 149T423 184L522 85Q489 46 444 23T346 -8V-110H278ZM201
257Q201 227 210 202T237 160T278 134V380Q255 372 238 355T211 312T201 257Z" />
<glyph unicode="&#xa3;" horiz-adv-x="659" d="M474 -31Q455 -31 435 -28T392 -18L247 25Q237 28 228 29T210 31Q158 31 126 -35L3 41Q31 93 67 122T148 159Q160 173 160 192Q160 195 159 200T155 222T144 275H50V377H123Q118 401 115 418T111 448T110 473Q110
543 140 596T225 680T354 711Q457 711 523 665T619 526L481 482Q463 531 435 555T362 579Q313 579 287 552T260 475Q260 468 261 458T266 430T276 377H446V275H298Q300 262 301 253T303 237T304 224Q304 176 276 144L410 105Q421 102 430 101T449 99Q500 99 531
159L649 89Q584 -31 474 -31Z" />
<glyph unicode="&#xa4;" horiz-adv-x="688" d="M97 37L20 114L115 210Q93 242 80 281T67 364Q67 408 80 447T115 518L19 616L96 693L195 593Q227 613 265 623T344 634Q386 634 424 623T494 592L593 691L668 616L572 519Q595 487 608 448T621 364Q621 321 608 281T572
209L669 112L594 37L494 136Q462 116 424 105T344 94Q303 94 265 105T195 135L97 37ZM344 229Q380 229 409 247T456 295T473 364Q473 402 456 432T410 481T344 499Q308 499 279 481T233 433T215 364Q215 326 232 296T279 247T344 229Z" />
<glyph unicode="&#xa5;" horiz-adv-x="749" d="M283 0V130H124V211H283V264H124V345H231L-1 700H197L374 413L553 700H740L507 345H614V264H455V211H614V130H455V0H283Z" />
<glyph unicode="&#xa6;" horiz-adv-x="362" d="M106 288V700H256V288H106ZM106 -209V203H256V-209H106Z" />
<glyph unicode="&#xa7;" horiz-adv-x="585" d="M280 -55Q169 -55 80 3L139 97Q181 71 216 59T282 47Q310 47 326 59T342 93Q342 109 331 120T291 141L193 176Q110 205 77 239T43 331Q43 377 66 411T132 465Q105 496 105 547Q105 621 160 665T307 710Q358 710 409
695T506 651L446 557Q406 583 371 595T304 607Q276 607 260 595T244 561Q244 545 255 534T295 513L392 478Q476 449 509 415T542 323Q542 277 519 242T455 187Q480 155 480 106Q480 33 426 -11T280 -55ZM361 247Q386 252 400 266T415 303Q415 323 402 337T358 362L244
400Q239 402 235 404T225 407Q200 402 185 388T170 350Q170 330 183 317T227 292L341 254Q346 253 351 251T361 247Z" />
<glyph unicode="&#xa8;" horiz-adv-x="600" d="M184 602Q150 602 127 625T103 684Q103 720 126 743T184 766Q219 766 242 743T265 684Q265 648 242 625T184 602ZM416 602Q382 602 359 625T335 684Q335 720 358 743T416 766Q451 766 474 743T497 684Q497 648 474
625T416 602Z" />
<glyph unicode="&#xa9;" horiz-adv-x="813" d="M412 159Q356 159 311 184T240 253T213 351Q213 406 239 449T311 518T412 544Q459 544 501 526T572 473L493 392Q474 415 457 424T416 433Q395 433 379 423T352 394T342 352Q342 328 352 310T379 282T418 271Q440
271 457 281T491 310L569 230Q539 196 498 178T412 159ZM406 -11Q331 -11 266 16T152 93T76 208T48 350Q48 426 75 491T152 606T266 683T406 711Q481 711 546 684T660 607T736 492T764 350Q764 274 737 209T661 94T547 17T406 -11ZM406 64Q464 64 514 86T603 147T663
239T685 350Q685 409 664 461T604 552T515 614T406 636Q348 636 298 614T209 553T150 461T128 350Q128 291 149 239T209 148T297 86T406 64Z" />
<glyph unicode="&#xaa;" horiz-adv-x="450" d="M172 298Q108 298 68 332T27 422Q27 479 70 510T192 541Q235 541 280 529V548Q280 605 206 605Q184 605 156 598T86 574L41 667Q92 690 138 700T229 711Q313 711 359 671T405 559V305H280V335Q230 298 172 298ZM207
387Q229 387 247 391T280 403V453Q264 457 247 458T211 460Q180 460 164 451T148 424Q148 407 163 397T207 387Z" />
<glyph unicode="&#xab;" horiz-adv-x="746" d="M262 0L28 259L262 516H418L191 260L421 0H262ZM552 0L318 259L552 516H708L481 260L711 0H552Z" />
<glyph unicode="&#xac;" horiz-adv-x="598" d="M418 0V234H56V354H542V0H418Z" />
<glyph unicode="&#xad;" horiz-adv-x="470" d="M51 219V354H419V219H51Z" />
<glyph unicode="&#xae;" horiz-adv-x="498" d="M249 304Q194 304 149 332T76 407T49 513Q49 571 76 618T148 694T250 722Q305 722 350 694T422 619T449 513Q449 455 422 408T350 332T249 304ZM248 353Q292 353 326 373T379 430T398 513Q398 560 379 596T326 652T248
673Q205 673 172 653T119 596T100 513Q100 467 119 431T171 374T248 353ZM178 420V608H263Q291 608 307 592T324 548Q324 513 294 496L334 420H279L247 485H228V420H178ZM252 568H228V522H251Q274 522 274 545Q274 568 252 568Z" />
<glyph unicode="&#xaf;" horiz-adv-x="600" d="M136 626V726H465V626H136Z" />
<glyph unicode="&#xb0;" horiz-adv-x="402" d="M202 411Q157 411 122 431T66 486T46 561Q46 602 66 636T121 690T201 711Q246 711 281 691T336 636T356 561Q356 521 336 487T281 432T202 411ZM201 492Q231 492 252 512T273 561Q273 590 252 610T201 630Q171 630
150 610T129 561Q129 533 150 513T201 492Z" />
<glyph unicode="&#xb1;" horiz-adv-x="600" d="M75 -1V119H525V-1H75ZM239 209V361H75V480H239V629H361V480H525V361H361V209H239Z" />
<glyph unicode="&#xb2;" horiz-adv-x="313" d="M33 350V418L180 557Q189 565 194 574T199 591Q199 605 187 614T156 624Q134 624 113 614T69 581L17 643Q49 674 85 689T159 705Q218 705 254 676T290 599Q290 577 279 556T244 512L156 429H294V350H33Z" />
<glyph unicode="&#xb3;" horiz-adv-x="335" d="M164 345Q77 345 22 397L78 461Q100 442 119 434T163 426Q187 426 201 434T216 457Q216 470 206 477T177 484H135V558H166Q187 558 198 566T209 589Q209 604 197 613T163 623Q142 623 125 615T84 587L25 648Q51 674
89 690T167 706Q228 706 266 678T304 603Q304 576 287 556T241 526Q273 518 292 498T311 450Q311 404 270 375T164 345Z" />
<glyph unicode="&#xb4;" horiz-adv-x="600" d="M198 601L336 747H529L337 601H198Z" />
<glyph unicode="&#xb5;" horiz-adv-x="622" d="M63 -209V516H225V215Q225 172 248 146T311 119Q337 119 358 129T397 161V516H559V0H397V79Q370 37 334 15T254 -8Q239 -8 225 -5V-209H63Z" />
<glyph unicode="&#xb6;" horiz-adv-x="711" d="M310 0V238H283Q211 238 155 267T68 347T36 464Q36 536 66 589T153 671T283 700H641V0H517V238H434V0H310ZM434 365H517V570H434V365ZM276 365H310V570H276Q229 570 200 542T171 468Q171 422 200 394T276 365Z" />
<glyph unicode="&#xb7;" horiz-adv-x="250" d="M125 194Q88 194 61 222T34 289Q34 328 61 356T125 384Q163 384 189 356T216 289Q216 250 190 222T125 194Z" />
<glyph unicode="&#xb8;" horiz-adv-x="600" d="M319 -254Q275 -254 242 -244T184 -212L233 -155Q269 -183 310 -183Q336 -183 350 -174T364 -146Q364 -129 349 -120T308 -111H263L290 0H363L349 -58Q396 -62 423 -84T451 -144Q451 -190 413 -222T319 -254Z" />
<glyph unicode="&#xb9;" horiz-adv-x="207" d="M95 350V603L22 574V655L131 700H190V350H95Z" />
<glyph unicode="&#xba;" horiz-adv-x="490" d="M245 295Q184 295 135 323T57 398T28 503Q28 561 57 608T135 683T245 711Q306 711 355 683T433 608T462 503Q462 445 433 398T355 323T245 295ZM245 405Q271 405 292 418T325 453T338 503Q338 531 326 553T292 588T245
601Q219 601 198 588T165 553T152 503Q152 476 164 454T198 418T245 405Z" />
<glyph unicode="&#xbb;" horiz-adv-x="746" d="M484 516L718 257L484 0H328L555 256L325 516H484ZM194 516L428 257L194 0H38L265 256L35 516H194Z" />
<glyph unicode="&#xbc;" horiz-adv-x="690" d="M537 0V73H351V150L521 350H631V147H673V73H631V0H537ZM445 147H537V256L445 147ZM95 350V603L22 574V655L131 700H190V350H95ZM61 0L458 700H573L175 0H61Z" />
<glyph unicode="&#xbd;" horiz-adv-x="715" d="M95 350V603L22 574V655L131 700H190V350H95ZM61 0L458 700H573L175 0H61ZM435 0V68L582 207Q591 215 596 224T601 241Q601 255 589 264T558 274Q536 274 515 264T471 231L419 293Q451 324 487 339T561 355Q620 355
656 326T692 249Q692 227 681 206T646 162L558 79H696V0H435Z" />
<glyph unicode="&#xbe;" horiz-adv-x="783" d="M630 0V73H444V150L614 350H724V147H766V73H724V0H630ZM538 147H630V256L538 147ZM164 345Q77 345 22 397L78 461Q100 442 119 434T163 426Q187 426 201 434T216 457Q216 470 206 477T177 484H135V558H166Q187 558
198 566T209 589Q209 604 197 613T163 623Q142 623 125 615T84 587L25 648Q51 674 89 690T167 706Q228 706 266 678T304 603Q304 576 287 556T241 526Q273 518 292 498T311 450Q311 404 270 375T164 345ZM154 0L551 700H666L268 0H154Z" />
<glyph unicode="&#xbf;" horiz-adv-x="537" d="M355 263Q357 220 352 191T331 138T284 92L232 52Q208 32 197 16T185 -17Q185 -37 196 -52T226 -76T272 -85Q314 -85 347 -62T394 -1L519 -50Q492 -127 423 -173T266 -219Q200 -219 148 -194T65 -125T34 -27Q34 9
45 38T82 95T154 156L178 173Q206 193 216 212T226 263H355ZM290 503Q327 503 353 476T379 412Q379 374 353 348T290 321Q253 321 227 347T201 412Q201 449 227 476T290 503Z" />
<glyph unicode="&#xc0;" horiz-adv-x="742" d="M2 0L275 700H471L740 0H554L496 167H240L181 0H2ZM287 300H450L369 532L287 300ZM320 785L128 931H330L468 785H320Z" />
<glyph unicode="&#xc1;" horiz-adv-x="742" d="M2 0L275 700H471L740 0H554L496 167H240L181 0H2ZM287 300H450L369 532L287 300ZM280 785L418 931H611L419 785H280Z" />
<glyph unicode="&#xc2;" horiz-adv-x="742" d="M2 0L275 700H471L740 0H554L496 167H240L181 0H2ZM287 300H450L369 532L287 300ZM452 783L370 866L289 783H166L294 934H450L578 783H452Z" />
<glyph unicode="&#xc3;" horiz-adv-x="742" d="M2 0L275 700H471L740 0H554L496 167H240L181 0H2ZM287 300H450L369 532L287 300ZM254 774L164 795Q181 866 213 901T293 937Q323 937 351 922T403 892T446 877Q461 877 470 891T490 944L580 923Q563 853 533 817T456
781Q427 781 399 796T346 826T303 841Q287 841 276 827T254 774Z" />
<glyph unicode="&#xc4;" horiz-adv-x="742" d="M2 0L275 700H471L740 0H554L496 167H240L181 0H2ZM287 300H450L369 532L287 300ZM256 786Q222 786 199 809T175 868Q175 904 198 927T256 950Q291 950 314 927T337 868Q337 832 314 809T256 786ZM488 786Q454 786
431 809T407 868Q407 904 430 927T488 950Q523 950 546 927T569 868Q569 832 546 809T488 786Z" />
<glyph unicode="&#xc5;" horiz-adv-x="742" d="M2 0L275 700H471L740 0H554L496 167H240L181 0H2ZM287 300H450L369 532L287 300ZM372 770Q337 770 308 787T262 832T245 894Q245 928 262 956T308 1001T372 1018Q407 1018 436 1001T482 956T499 894Q499 860 482
832T436 787T372 770ZM372 834Q397 834 414 851T432 894Q432 919 415 936T372 954Q347 954 330 937T312 894Q312 869 329 852T372 834Z" />
<glyph unicode="&#xc6;" horiz-adv-x="986" d="M2 0L275 700H929V551H536L581 425H812V281H633L680 149H929V0H554L496 167H240L181 0H2ZM287 300H450L369 532L287 300Z" />
<glyph unicode="&#xc7;" horiz-adv-x="720" d="M398 -254Q354 -254 321 -244T263 -212L312 -155Q348 -183 389 -183Q415 -183 429 -174T443 -146Q443 -129 428 -120T387 -111H342L367 -8Q298 0 239 30T137 108T69 218T45 350Q45 427 73 492T151 607T269 683T414
711Q470 711 523 695T622 648T698 575L582 465Q548 512 506 535T414 558Q373 558 339 543T278 499T238 433T223 350Q223 305 237 268T278 202T338 158T414 142Q464 142 506 165T582 235L698 125Q656 67 587 31T440 -10L428 -58Q475 -62 502 -84T530 -144Q530 -190
492 -222T398 -254Z" />
<glyph unicode="&#xc8;" horiz-adv-x="668" d="M78 0V700H607V556H250V423H502V283H250V144H611V0H78ZM302 785L110 931H312L450 785H302Z" />
<glyph unicode="&#xc9;" horiz-adv-x="668" d="M78 0V700H607V556H250V423H502V283H250V144H611V0H78ZM262 785L400 931H593L401 785H262Z" />
<glyph unicode="&#xca;" horiz-adv-x="668" d="M78 0V700H607V556H250V423H502V283H250V144H611V0H78ZM434 783L352 866L271 783H148L276 934H432L560 783H434Z" />
<glyph unicode="&#xcb;" horiz-adv-x="668" d="M78 0V700H607V556H250V423H502V283H250V144H611V0H78ZM238 786Q204 786 181 809T157 868Q157 904 180 927T238 950Q273 950 296 927T319 868Q319 832 296 809T238 786ZM470 786Q436 786 413 809T389 868Q389 904
412 927T470 950Q505 950 528 927T551 868Q551 832 528 809T470 786Z" />
<glyph unicode="&#xcc;" horiz-adv-x="308" d="M68 0V700H240V0H68ZM102 785L-90 931H112L250 785H102Z" />
<glyph unicode="&#xcd;" horiz-adv-x="308" d="M68 0V700H240V0H68ZM62 785L200 931H393L201 785H62Z" />
<glyph unicode="&#xce;" horiz-adv-x="308" d="M68 0V700H240V0H68ZM234 783L152 866L71 783H-52L76 934H232L360 783H234Z" />
<glyph unicode="&#xcf;" horiz-adv-x="308" d="M68 0V700H240V0H68ZM38 786Q4 786 -19 809T-43 868Q-43 904 -20 927T38 950Q73 950 96 927T119 868Q119 832 96 809T38 786ZM270 786Q236 786 213 809T189 868Q189 904 212 927T270 950Q305 950 328 927T351 868Q351
832 328 809T270 786Z" />
<glyph unicode="&#xd0;" horiz-adv-x="785" d="M103 0V293H23V413H103V700H388Q462 700 525 673T637 598T713 487T740 350Q740 277 713 214T638 102T526 27T388 0H103ZM275 147H388Q437 147 476 174T538 247T562 350Q562 407 539 453T476 526T388 553H275V413H416V293H275V147Z"
/>
<glyph unicode="&#xd1;" horiz-adv-x="788" d="M78 0V700H240L551 276L548 700H710V0H558L237 438L240 0H78ZM269 774L179 795Q196 866 228 901T308 937Q338 937 366 922T418 892T461 877Q476 877 485 891T505 944L595 923Q578 853 548 817T471 781Q442 781 414
796T361 826T318 841Q302 841 291 827T269 774Z" />
<glyph unicode="&#xd2;" horiz-adv-x="814" d="M407 -11Q331 -11 265 16T150 93T73 208T45 350Q45 426 72 491T149 606T265 683T407 711Q483 711 549 684T664 607T741 492T769 350Q769 274 742 209T665 94T549 17T407 -11ZM407 142Q446 142 480 157T539 201T578
267T592 350Q592 395 578 432T539 498T480 542T407 558Q368 558 334 543T275 499T236 433T222 350Q222 305 236 268T275 202T334 158T407 142ZM355 785L163 931H365L503 785H355Z" />
<glyph unicode="&#xd3;" horiz-adv-x="814" d="M407 -11Q331 -11 265 16T150 93T73 208T45 350Q45 426 72 491T149 606T265 683T407 711Q483 711 549 684T664 607T741 492T769 350Q769 274 742 209T665 94T549 17T407 -11ZM407 142Q446 142 480 157T539 201T578
267T592 350Q592 395 578 432T539 498T480 542T407 558Q368 558 334 543T275 499T236 433T222 350Q222 305 236 268T275 202T334 158T407 142ZM315 785L453 931H646L454 785H315Z" />
<glyph unicode="&#xd4;" horiz-adv-x="814" d="M407 -11Q331 -11 265 16T150 93T73 208T45 350Q45 426 72 491T149 606T265 683T407 711Q483 711 549 684T664 607T741 492T769 350Q769 274 742 209T665 94T549 17T407 -11ZM407 142Q446 142 480 157T539 201T578
267T592 350Q592 395 578 432T539 498T480 542T407 558Q368 558 334 543T275 499T236 433T222 350Q222 305 236 268T275 202T334 158T407 142ZM487 783L405 866L324 783H201L329 934H485L613 783H487Z" />
<glyph unicode="&#xd5;" horiz-adv-x="814" d="M407 -11Q331 -11 265 16T150 93T73 208T45 350Q45 426 72 491T149 606T265 683T407 711Q483 711 549 684T664 607T741 492T769 350Q769 274 742 209T665 94T549 17T407 -11ZM407 142Q446 142 480 157T539 201T578
267T592 350Q592 395 578 432T539 498T480 542T407 558Q368 558 334 543T275 499T236 433T222 350Q222 305 236 268T275 202T334 158T407 142ZM289 774L199 795Q216 866 248 901T328 937Q358 937 386 922T438 892T481 877Q496 877 505 891T525 944L615 923Q598
853 568 817T491 781Q462 781 434 796T381 826T338 841Q322 841 311 827T289 774Z" />
<glyph unicode="&#xd6;" horiz-adv-x="814" d="M407 -11Q331 -11 265 16T150 93T73 208T45 350Q45 426 72 491T149 606T265 683T407 711Q483 711 549 684T664 607T741 492T769 350Q769 274 742 209T665 94T549 17T407 -11ZM407 142Q446 142 480 157T539 201T578
267T592 350Q592 395 578 432T539 498T480 542T407 558Q368 558 334 543T275 499T236 433T222 350Q222 305 236 268T275 202T334 158T407 142ZM291 786Q257 786 234 809T210 868Q210 904 233 927T291 950Q326 950 349 927T372 868Q372 832 349 809T291 786ZM523
786Q489 786 466 809T442 868Q442 904 465 927T523 950Q558 950 581 927T604 868Q604 832 581 809T523 786Z" />
<glyph unicode="&#xd7;" horiz-adv-x="600" d="M159 133L87 208L228 358L87 509L160 586L301 436L441 585L512 510L372 360L513 209L440 132L299 283L159 133Z" />
<glyph unicode="&#xd8;" horiz-adv-x="814" d="M407 -11Q354 -11 305 3T215 43L178 0H38L133 112Q92 159 69 220T45 350Q45 426 72 491T149 606T265 683T407 711Q460 711 509 697T599 657L636 700H776L681 588Q722 541 745 480T769 350Q769 274 742 209T665 94T549
17T407 -11ZM246 244L495 535Q476 546 454 552T407 558Q368 558 334 543T275 499T236 433T222 350Q222 321 228 294T246 244ZM407 142Q446 142 480 157T539 201T578 267T592 350Q592 379 586 406T568 456L319 165Q339 154 361 148T407 142Z" />
<glyph unicode="&#xd9;" horiz-adv-x="748" d="M374 -10Q280 -10 210 28T102 137T64 304V700H236V304Q236 256 253 220T301 164T374 144Q416 144 447 164T495 220T512 304V700H684V304Q684 208 646 138T539 29T374 -10ZM318 785L126 931H328L466 785H318Z" />
<glyph unicode="&#xda;" horiz-adv-x="748" d="M374 -10Q280 -10 210 28T102 137T64 304V700H236V304Q236 256 253 220T301 164T374 144Q416 144 447 164T495 220T512 304V700H684V304Q684 208 646 138T539 29T374 -10ZM278 785L416 931H609L417 785H278Z" />
<glyph unicode="&#xdb;" horiz-adv-x="748" d="M374 -10Q280 -10 210 28T102 137T64 304V700H236V304Q236 256 253 220T301 164T374 144Q416 144 447 164T495 220T512 304V700H684V304Q684 208 646 138T539 29T374 -10ZM450 783L368 866L287 783H164L292 934H448L576
783H450Z" />
<glyph unicode="&#xdc;" horiz-adv-x="748" d="M374 -10Q280 -10 210 28T102 137T64 304V700H236V304Q236 256 253 220T301 164T374 144Q416 144 447 164T495 220T512 304V700H684V304Q684 208 646 138T539 29T374 -10ZM254 786Q220 786 197 809T173 868Q173 904
196 927T254 950Q289 950 312 927T335 868Q335 832 312 809T254 786ZM486 786Q452 786 429 809T405 868Q405 904 428 927T486 950Q521 950 544 927T567 868Q567 832 544 809T486 786Z" />
<glyph unicode="&#xdd;" horiz-adv-x="739" d="M283 0V265L-1 700H197L374 413L553 700H740L455 266V0H283ZM274 785L412 931H605L413 785H274Z" />
<glyph unicode="&#xde;" horiz-adv-x="710" d="M78 0V700H250V578H420Q495 578 550 548T636 466T667 347Q667 284 637 233T551 152T420 122H250V0H78ZM250 259H389Q442 259 467 284T493 348Q493 386 468 411T390 436H250V259Z" />
<glyph unicode="&#xdf;" horiz-adv-x="668" d="M446 -11Q333 -11 252 54L320 154Q386 103 440 103Q472 103 490 117T509 155Q509 175 497 186T451 210L379 237Q345 250 323 266T291 304T280 352Q280 388 292 411T323 450T359 478T389 505T402 541Q402 570 375
589T306 608Q255 608 221 577T187 498V0H26V489Q26 564 60 619T156 706T300 737Q373 737 429 715T516 652T548 559Q548 521 537 495T508 452T474 423T445 400T433 376Q433 364 440 357T466 341L529 314Q597 285 626 250T656 163Q656 83 600 36T446 -11Z" />
<glyph unicode="&#xe0;" horiz-adv-x="579" d="M217 -8Q165 -8 125 12T62 67T39 148Q39 196 63 229T132 280T240 298Q268 298 297 293T360 274V316Q360 354 335 372T258 391Q229 391 194 383T113 355L57 468Q182 524 294 524Q401 524 460 473T520 330V0H360V45Q326
17 292 5T217 -8ZM188 151Q188 126 209 113T267 99Q293 99 316 105T360 125V191Q338 196 316 199T271 202Q231 202 210 189T188 151ZM498 601L306 747H508L646 601H498Z" />
<glyph unicode="&#xe1;" horiz-adv-x="579" d="M217 -8Q165 -8 125 12T62 67T39 148Q39 196 63 229T132 280T240 298Q268 298 297 293T360 274V316Q360 354 335 372T258 391Q229 391 194 383T113 355L57 468Q182 524 294 524Q401 524 460 473T520 330V0H360V45Q326
17 292 5T217 -8ZM188 151Q188 126 209 113T267 99Q293 99 316 105T360 125V191Q338 196 316 199T271 202Q231 202 210 189T188 151ZM202 601L340 747H533L341 601H202Z" />
<glyph unicode="&#xe2;" horiz-adv-x="579" d="M217 -8Q165 -8 125 12T62 67T39 148Q39 196 63 229T132 280T240 298Q268 298 297 293T360 274V316Q360 354 335 372T258 391Q229 391 194 383T113 355L57 468Q182 524 294 524Q401 524 460 473T520 330V0H360V45Q326
17 292 5T217 -8ZM188 151Q188 126 209 113T267 99Q293 99 316 105T360 125V191Q338 196 316 199T271 202Q231 202 210 189T188 151ZM630 599L548 682L467 599H344L472 750H628L756 599H630Z" />
<glyph unicode="&#xe3;" horiz-adv-x="579" d="M217 -8Q165 -8 125 12T62 67T39 148Q39 196 63 229T132 280T240 298Q268 298 297 293T360 274V316Q360 354 335 372T258 391Q229 391 194 383T113 355L57 468Q182 524 294 524Q401 524 460 473T520 330V0H360V45Q326
17 292 5T217 -8ZM188 151Q188 126 209 113T267 99Q293 99 316 105T360 125V191Q338 196 316 199T271 202Q231 202 210 189T188 151ZM432 590L342 611Q359 682 391 717T471 753Q501 753 529 738T581 708T624 693Q639 693 648 707T668 760L758 739Q741 669 711 633T634
597Q605 597 577 612T524 642T481 657Q465 657 454 643T432 590Z" />
<glyph unicode="&#xe4;" horiz-adv-x="579" d="M217 -8Q165 -8 125 12T62 67T39 148Q39 196 63 229T132 280T240 298Q268 298 297 293T360 274V316Q360 354 335 372T258 391Q229 391 194 383T113 355L57 468Q182 524 294 524Q401 524 460 473T520 330V0H360V45Q326
17 292 5T217 -8ZM188 151Q188 126 209 113T267 99Q293 99 316 105T360 125V191Q338 196 316 199T271 202Q231 202 210 189T188 151ZM434 602Q400 602 377 625T353 684Q353 720 376 743T434 766Q469 766 492 743T515 684Q515 648 492 625T434 602ZM666 602Q632
602 609 625T585 684Q585 720 608 743T666 766Q701 766 724 743T747 684Q747 648 724 625T666 602Z" />
<glyph unicode="&#xe5;" horiz-adv-x="579" d="M217 -8Q165 -8 125 12T62 67T39 148Q39 196 63 229T132 280T240 298Q268 298 297 293T360 274V316Q360 354 335 372T258 391Q229 391 194 383T113 355L57 468Q182 524 294 524Q401 524 460 473T520 330V0H360V45Q326
17 292 5T217 -8ZM188 151Q188 126 209 113T267 99Q293 99 316 105T360 125V191Q338 196 316 199T271 202Q231 202 210 189T188 151ZM550 586Q515 586 486 603T440 648T423 710Q423 744 440 772T486 817T550 834Q585 834 614 817T660 772T677 710Q677 676 660 648T614
603T550 586ZM550 650Q575 650 592 667T610 710Q610 735 593 752T550 770Q525 770 508 753T490 710Q490 685 507 668T550 650Z" />
<glyph unicode="&#xe6;" horiz-adv-x="912" d="M223 -8Q169 -8 128 12T64 68T41 151Q41 198 64 230T132 280T240 298Q295 298 360 275V316Q360 354 335 372T258 391Q229 391 194 383T113 355L57 468Q182 524 294 524Q347 524 388 509T455 464Q488 493 530 508T620
524Q695 524 752 489T841 393T874 251V216H519Q527 187 544 165T586 131T640 119Q672 119 698 130T742 162L849 73Q799 29 748 10T632 -10Q571 -10 520 13T430 76Q384 32 336 12T223 -8ZM519 308H724Q717 336 702 356T666 387T619 398Q594 398 574 388T540 357T519
308ZM266 101Q299 101 330 113T383 148Q374 170 368 191Q344 199 320 202T271 205Q231 205 210 192T188 154Q188 129 208 115T266 101Z" />
<glyph unicode="&#xe7;" horiz-adv-x="539" d="M299 -254Q255 -254 222 -244T164 -212L213 -155Q249 -183 290 -183Q316 -183 330 -174T344 -146Q344 -129 329 -120T288 -111H243L268 -7Q203 2 151 38T70 131T40 257Q40 333 75 393T171 488T307 524Q371 524 427
500T522 429L423 330Q398 359 372 372T313 386Q281 386 256 369T216 323T201 257Q201 220 215 191T255 145T313 128Q346 128 372 141T423 184L522 85Q488 45 442 22T341 -8L329 -58Q376 -62 403 -84T431 -144Q431 -190 393 -222T299 -254Z" />
<glyph unicode="&#xe8;" horiz-adv-x="592" d="M312 -10Q236 -10 175 25T77 121T40 257Q40 333 74 393T167 488T300 524Q375 524 432 489T521 393T554 251V216H199Q207 187 224 165T266 131T320 119Q352 119 378 130T422 162L529 73Q479 29 428 10T312 -10ZM199
308H404Q397 336 382 356T346 387T299 398Q274 398 254 388T220 357T199 308ZM504 601L312 747H514L652 601H504Z" />
<glyph unicode="&#xe9;" horiz-adv-x="592" d="M312 -10Q236 -10 175 25T77 121T40 257Q40 333 74 393T167 488T300 524Q375 524 432 489T521 393T554 251V216H199Q207 187 224 165T266 131T320 119Q352 119 378 130T422 162L529 73Q479 29 428 10T312 -10ZM199
308H404Q397 336 382 356T346 387T299 398Q274 398 254 388T220 357T199 308ZM208 601L346 747H539L347 601H208Z" />
<glyph unicode="&#xea;" horiz-adv-x="592" d="M312 -10Q236 -10 175 25T77 121T40 257Q40 333 74 393T167 488T300 524Q375 524 432 489T521 393T554 251V216H199Q207 187 224 165T266 131T320 119Q352 119 378 130T422 162L529 73Q479 29 428 10T312 -10ZM199
308H404Q397 336 382 356T346 387T299 398Q274 398 254 388T220 357T199 308ZM380 599L298 682L217 599H94L222 750H378L506 599H380Z" />
<glyph unicode="&#xeb;" horiz-adv-x="592" d="M312 -10Q236 -10 175 25T77 121T40 257Q40 333 74 393T167 488T300 524Q375 524 432 489T521 393T554 251V216H199Q207 187 224 165T266 131T320 119Q352 119 378 130T422 162L529 73Q479 29 428 10T312 -10ZM199
308H404Q397 336 382 356T346 387T299 398Q274 398 254 388T220 357T199 308ZM184 602Q150 602 127 625T103 684Q103 720 126 743T184 766Q219 766 242 743T265 684Q265 648 242 625T184 602ZM416 602Q382 602 359 625T335 684Q335 720 358 743T416 766Q451 766
474 743T497 684Q497 648 474 625T416 602Z" />
<glyph unicode="&#xec;" horiz-adv-x="288" d="M63 0V516H225V0H63ZM92 601L-100 747H102L240 601H92Z" />
<glyph unicode="&#xed;" horiz-adv-x="288" d="M63 0V516H225V0H63ZM52 601L190 747H383L191 601H52Z" />
<glyph unicode="&#xee;" horiz-adv-x="288" d="M63 0V516H225V0H63ZM224 599L142 682L61 599H-62L66 750H222L350 599H224Z" />
<glyph unicode="&#xef;" horiz-adv-x="288" d="M63 0V516H225V0H63ZM28 602Q-6 602 -29 625T-53 684Q-53 720 -30 743T28 766Q63 766 86 743T109 684Q109 648 86 625T28 602ZM260 602Q226 602 203 625T179 684Q179 720 202 743T260 766Q295 766 318 743T341 684Q341
648 318 625T260 602Z" />
<glyph unicode="&#xf0;" horiz-adv-x="596" d="M289 -10Q219 -10 163 22T73 110T40 235Q40 298 69 349T147 431T257 462Q304 462 343 445T402 399Q396 437 378 475T330 547L250 492L197 568L261 611Q241 626 219 639T173 664L255 770Q289 753 319 734T377 691L460
747L513 671L444 624Q498 559 527 479T556 309Q556 213 524 141T432 30T289 -10ZM295 128Q324 128 348 142T386 181T400 235Q400 265 386 289T348 327T295 342Q266 342 242 328T204 289T190 235Q190 206 204 182T242 143T295 128Z" />
<glyph unicode="&#xf1;" horiz-adv-x="618" d="M63 0V516H225V432Q255 477 296 500T388 524Q438 524 476 502T537 440T559 348V0H397V301Q397 345 374 371T311 397Q285 397 264 387T225 354V0H63ZM190 590L100 611Q117 682 149 717T229 753Q259 753 287 738T339
708T382 693Q397 693 406 707T426 760L516 739Q499 669 469 633T392 597Q363 597 335 612T282 642T239 657Q223 657 212 643T190 590Z" />
<glyph unicode="&#xf2;" horiz-adv-x="618" d="M310 -10Q233 -10 172 25T76 120T40 257Q40 333 75 393T172 489T309 524Q386 524 446 489T542 394T578 257Q578 181 543 121T447 25T310 -10ZM309 125Q342 125 367 142T406 189T420 257Q420 296 406 325T367 372T309
389Q277 389 252 372T212 326T198 258Q198 219 212 189T251 142T309 125ZM513 601L321 747H523L661 601H513Z" />
<glyph unicode="&#xf3;" horiz-adv-x="618" d="M310 -10Q233 -10 172 25T76 120T40 257Q40 333 75 393T172 489T309 524Q386 524 446 489T542 394T578 257Q578 181 543 121T447 25T310 -10ZM309 125Q342 125 367 142T406 189T420 257Q420 296 406 325T367 372T309
389Q277 389 252 372T212 326T198 258Q198 219 212 189T251 142T309 125ZM217 601L355 747H548L356 601H217Z" />
<glyph unicode="&#xf4;" horiz-adv-x="618" d="M310 -10Q233 -10 172 25T76 120T40 257Q40 333 75 393T172 489T309 524Q386 524 446 489T542 394T578 257Q578 181 543 121T447 25T310 -10ZM309 125Q342 125 367 142T406 189T420 257Q420 296 406 325T367 372T309
389Q277 389 252 372T212 326T198 258Q198 219 212 189T251 142T309 125ZM389 599L307 682L226 599H103L231 750H387L515 599H389Z" />
<glyph unicode="&#xf5;" horiz-adv-x="618" d="M310 -10Q233 -10 172 25T76 120T40 257Q40 333 75 393T172 489T309 524Q386 524 446 489T542 394T578 257Q578 181 543 121T447 25T310 -10ZM309 125Q342 125 367 142T406 189T420 257Q420 296 406 325T367 372T309
389Q277 389 252 372T212 326T198 258Q198 219 212 189T251 142T309 125ZM191 590L101 611Q118 682 150 717T230 753Q260 753 288 738T340 708T383 693Q398 693 407 707T427 760L517 739Q500 669 470 633T393 597Q364 597 336 612T283 642T240 657Q224 657 213
643T191 590Z" />
<glyph unicode="&#xf6;" horiz-adv-x="618" d="M310 -10Q233 -10 172 25T76 120T40 257Q40 333 75 393T172 489T309 524Q386 524 446 489T542 394T578 257Q578 181 543 121T447 25T310 -10ZM309 125Q342 125 367 142T406 189T420 257Q420 296 406 325T367 372T309
389Q277 389 252 372T212 326T198 258Q198 219 212 189T251 142T309 125ZM193 602Q159 602 136 625T112 684Q112 720 135 743T193 766Q228 766 251 743T274 684Q274 648 251 625T193 602ZM425 602Q391 602 368 625T344 684Q344 720 367 743T425 766Q460 766 483
743T506 684Q506 648 483 625T425 602Z" />
<glyph unicode="&#xf7;" horiz-adv-x="600" d="M301 498Q263 498 236 525T209 591Q209 628 236 655T301 682Q338 682 364 655T391 591Q391 553 365 526T301 498ZM301 36Q263 36 236 63T209 129Q209 166 236 193T301 220Q338 220 364 193T391 129Q391 91 365 64T301
36ZM75 299V419H525V299H75Z" />
<glyph unicode="&#xf8;" horiz-adv-x="618" d="M309 -10Q269 -10 233 0T164 30L139 0H37L105 79Q74 114 57 159T40 257Q40 333 75 393T172 489T309 524Q350 524 386 514T453 485L479 516H581L512 436Q543 401 560 356T578 257Q578 181 543 121T447 25T309 -10ZM208
199L359 376Q349 383 336 386T309 389Q277 389 252 372T212 326T198 257Q198 241 200 227T208 199ZM309 125Q342 125 367 142T406 189T420 257Q420 274 418 288T410 316L257 138Q269 132 282 129T309 125Z" />
<glyph unicode="&#xf9;" horiz-adv-x="618" d="M230 -8Q180 -8 142 14T81 76T59 168V516H221V215Q221 172 244 146T307 119Q333 119 354 129T393 162V516H555V0H393V84Q363 39 322 16T230 -8ZM504 601L312 747H514L652 601H504Z" />
<glyph unicode="&#xfa;" horiz-adv-x="618" d="M230 -8Q180 -8 142 14T81 76T59 168V516H221V215Q221 172 244 146T307 119Q333 119 354 129T393 162V516H555V0H393V84Q363 39 322 16T230 -8ZM208 601L346 747H539L347 601H208Z" />
<glyph unicode="&#xfb;" horiz-adv-x="618" d="M230 -8Q180 -8 142 14T81 76T59 168V516H221V215Q221 172 244 146T307 119Q333 119 354 129T393 162V516H555V0H393V84Q363 39 322 16T230 -8ZM380 599L298 682L217 599H94L222 750H378L506 599H380Z" />
<glyph unicode="&#xfc;" horiz-adv-x="618" d="M230 -8Q180 -8 142 14T81 76T59 168V516H221V215Q221 172 244 146T307 119Q333 119 354 129T393 162V516H555V0H393V84Q363 39 322 16T230 -8ZM184 602Q150 602 127 625T103 684Q103 720 126 743T184 766Q219 766
242 743T265 684Q265 648 242 625T184 602ZM416 602Q382 602 359 625T335 684Q335 720 358 743T416 766Q451 766 474 743T497 684Q497 648 474 625T416 602Z" />
<glyph unicode="&#xfd;" horiz-adv-x="584" d="M119 -219Q87 -219 52 -211V-75Q61 -76 73 -77T100 -79Q133 -79 152 -66T184 -27L192 -10L2 516H181L284 183L402 516H577L345 -58Q321 -117 292 -152T221 -203T119 -219ZM198 601L336 747H529L337 601H198Z" />
<glyph unicode="&#xfe;" horiz-adv-x="642" d="M63 -209V712L225 737V447Q251 480 290 499T376 519Q440 519 491 484T573 389T604 257Q604 185 572 126T486 32T364 -3Q322 -3 287 12T225 57V-209H63ZM322 385Q292 385 269 375T225 343V171Q244 152 269 141T322
130Q358 130 385 146T429 192T445 258Q445 295 429 323T385 368T322 385Z" />
<glyph unicode="&#xff;" horiz-adv-x="584" d="M119 -219Q87 -219 52 -211V-75Q61 -76 73 -77T100 -79Q133 -79 152 -66T184 -27L192 -10L2 516H181L284 183L402 516H577L345 -58Q321 -117 292 -152T221 -203T119 -219ZM430 602Q396 602 373 625T349 684Q349 720
372 743T430 766Q465 766 488 743T511 684Q511 648 488 625T430 602ZM662 602Q628 602 605 625T581 684Q581 720 604 743T662 766Q697 766 720 743T743 684Q743 648 720 625T662 602Z" />
<glyph unicode="&#x2013;" horiz-adv-x="565" d="M51 219V354H514V219H51Z" />
<glyph unicode="&#x2014;" horiz-adv-x="707" d="M51 219V354H656V219H51Z" />
<glyph unicode="&#x2018;" horiz-adv-x="275" d="M278 750L203 446H44L162 750H278Z" />
<glyph unicode="&#x2019;" horiz-adv-x="275" d="M29 446L104 750H263L145 446H29Z" />
<glyph unicode="&#x201a;" horiz-adv-x="258" d="M-10 -177L65 127H224L106 -177H-10Z" />
<glyph unicode="&#x201c;" horiz-adv-x="504" d="M278 750L203 446H44L162 750H278ZM507 750L432 446H273L391 750H507Z" />
<glyph unicode="&#x201d;" horiz-adv-x="504" d="M258 446L333 750H492L374 446H258ZM29 446L104 750H263L145 446H29Z" />
<glyph unicode="&#x201e;" horiz-adv-x="487" d="M219 -177L294 127H453L335 -177H219ZM-10 -177L65 127H224L106 -177H-10Z" />
<glyph unicode="&#x2022;" horiz-adv-x="378" d="M190 201Q140 201 106 236T71 323Q71 375 105 410T190 445Q239 445 273 410T307 323Q307 271 273 236T190 201Z" />
<glyph unicode="&#x2039;" horiz-adv-x="456" d="M262 0L28 259L262 516H418L191 260L421 0H262Z" />
<glyph unicode="&#x203a;" horiz-adv-x="456" d="M194 516L428 257L194 0H38L265 256L35 516H194Z" />
</font>
</defs>
</svg>
