<?xml version="1.0" standalone="no"?>
<!DOCTYPE svg PUBLIC "-//W3C//DTD SVG 1.1//EN" "http://www.w3.org/Graphics/SVG/1.1/DTD/svg11.dtd">
<svg xmlns="http://www.w3.org/2000/svg">
<defs >
<font id="RedHatMono" horiz-adv-x="600" ><font-face
    font-family="Red Hat Mono Light"
    units-per-em="1000"
    panose-1="2 1 3 9 4 2 1 13 3 3"
    ascent="1018"
    descent="-305"
    alphabetic="0" />
<glyph unicode=" " />
<glyph unicode="!" d="M271 208L378 727H431L312 208H271ZM253 -8Q233 -8 220 5T206 39Q206 55 214 69T236 91T265 100Q285 100 298 87T312 53Q312 37 304 23T282 1T253 -8Z" />
<glyph unicode="&quot;" d="M545 554L576 750H629L580 554H545ZM412 554L443 750H496L447 554H412Z" />
<glyph unicode="#" d="M4 0L129 228H26L35 271H152L239 429H117L126 472H262L387 700H437L312 472H468L593 700H643L518 472H621L612 429H495L408 271H530L521 228H385L260 0H210L335 228H179L54 0H4ZM202 271H358L445 429H289L202 271Z" />
<glyph unicode="$" d="M210 -67L229 27Q137 42 60 119L92 151Q161 81 238 69L294 339Q216 367 180 407T143 506Q143 558 170 596T246 655T361 676Q362 676 362 676T364 676L383 767H427L407 671Q450 663 490 640T563 581L529 551Q501 583 468 602T398 629L345
370Q404 348 439 324T489 271T505 201Q505 151 476 111T397 47T279 23Q278 23 277 23T273 23L254 -67H210ZM303 383L355 633Q280 633 235 599T190 507Q190 464 216 436T303 383ZM282 66Q359 67 408 105T458 202Q458 243 432 270T335 326L282 66Z" />
<glyph unicode="%" d="M406 -5Q360 -5 331 27T302 110Q302 159 321 199T372 263T443 287Q489 287 518 255T547 173Q547 124 528 84T477 20T406 -5ZM410 33Q437 33 458 51T493 101T506 171Q506 208 489 228T439 249Q413 249 391 231T356 181T343 112Q343 75 361
54T410 33ZM204 413Q158 413 129 445T100 528Q100 577 119 617T170 681T241 705Q287 705 316 673T345 591Q345 543 326 503T275 438T204 413ZM208 451Q235 451 256 469T291 519T304 589Q304 626 287 646T237 667Q211 667 189 649T154 599T141 530Q141 493 159 472T208
451ZM28 0L571 700H620L77 0H28Z" />
<glyph unicode="&amp;" d="M503 -11Q482 9 461 31T416 78Q329 -11 225 -11Q168 -11 126 9T60 68T36 156Q36 226 75 279T200 381Q170 453 170 525Q170 580 191 621T251 687T339 711Q379 711 408 696T453 653T469 588Q469 544 451 509T387 439T262 361Q290 311 332
254T413 151Q444 192 468 240T507 339L557 331Q537 267 509 212T447 113Q473 84 493 63T532 24L503 -11ZM225 35Q307 35 382 115Q354 148 322 189T262 271T220 339Q150 299 119 257T88 162Q88 103 124 69T225 35ZM242 404Q313 441 351 468T405 522T420 580Q420
621 397 643T334 666Q302 666 276 648T234 598T219 526Q219 468 242 404Z" />
<glyph unicode="&apos;" d="M350 554L381 750H434L385 554H350Z" />
<glyph unicode="(" d="M351 -221Q295 -171 255 -109T194 26T173 173Q173 289 218 395T348 584T548 715L565 669Q486 638 423 586T316 468T248 326T224 174Q224 71 265 -23T383 -181L351 -221Z" />
<glyph unicode=")" d="M252 715Q309 666 348 603T409 469T430 321Q430 205 385 99T255 -90T55 -221L38 -175Q117 -144 180 -92T287 26T355 168T379 320Q379 424 338 518T220 675L252 715Z" />
<glyph unicode="*" d="M306 350L339 497L209 428L192 464L328 533L229 614L256 645L352 563L378 700H417L388 564L512 628L529 592L396 526L500 444L471 412L373 496L345 350H306Z" />
<glyph unicode="+" d="M259 152L298 334H130L139 379H308L347 561H392L353 379H520L511 334H343L304 152H259Z" />
<glyph unicode="," d="M137 -152L229 60H304L179 -152H137Z" />
<glyph unicode="-" d="M143 258L153 302H475L465 258H143Z" />
<glyph unicode="." d="M253 -8Q233 -8 220 5T206 39Q206 55 214 69T236 91T265 100Q285 100 298 87T312 53Q312 37 304 23T282 1T253 -8Z" />
<glyph unicode="/" d="M-43 -209L549 700H605L13 -209H-43Z" />
<glyph unicode="0" d="M282 -11Q221 -11 173 21T96 116T68 272Q68 367 93 447T160 587T255 678T364 711Q425 711 473 679T550 584T578 428Q578 333 553 253T486 113T391 22T282 -11ZM280 35Q328 35 372 64T451 147T506 271T527 424Q527 466 521 501T502 565L166
94Q210 35 280 35ZM144 135L480 606Q436 665 366 665Q318 665 274 636T195 553T140 430T119 276Q119 234 125 199T144 135Z" />
<glyph unicode="1" d="M43 0L52 45H239L364 637L161 558L173 612L398 700H427L288 45H487L478 0H43Z" />
<glyph unicode="2" d="M39 0L47 38L425 394Q472 438 494 477T516 553Q516 603 479 634T383 666Q337 666 289 649T180 587L158 626Q215 670 270 690T378 711Q433 711 475 692T542 638T567 559Q567 507 543 464T457 363L119 45H475L465 0H39Z" />
<glyph unicode="3" d="M266 -11Q195 -11 138 18T30 107L68 140Q110 86 160 60T274 34Q328 34 369 54T433 112T456 196Q456 238 436 270T380 320T299 339H243L252 383H336Q380 383 416 403T475 456T497 530Q497 591 454 628T339 666Q286 666 246 651T161 599L133
634Q174 673 225 692T337 711Q400 711 447 689T521 629T548 538Q548 472 510 425T396 352Q446 334 476 294T507 204Q507 142 476 93T391 17T266 -11Z" />
<glyph unicode="4" d="M367 0L409 195H26L34 233L515 700H566L467 240H569L559 195H458L416 0H367ZM106 240H418L500 622L106 240Z" />
<glyph unicode="5" d="M265 -11Q193 -11 135 18T38 100L72 132Q110 82 158 58T267 34Q327 34 374 60T448 132T475 234Q475 307 430 347T302 387Q268 387 233 379T155 354L124 368L208 700H585L575 655H244L179 400Q217 416 247 423T313 431Q379 431 426 408T500
341T526 237Q526 186 506 141T449 62T366 9T265 -11Z" />
<glyph unicode="6" d="M307 -11Q247 -11 193 22T105 118T70 272Q70 376 96 457T169 595T276 681T404 711Q451 711 494 697T584 653L561 612Q518 640 483 653T407 666Q336 666 276 627T175 515T124 341Q167 387 220 412T331 438Q398 438 447 410T524 335T551 230Q551
174 532 130T478 54T399 6T307 -11ZM315 34Q368 34 409 60T475 131T500 233Q500 305 455 349T327 394Q271 394 217 367T121 292Q120 208 145 151T215 64T315 34Z" />
<glyph unicode="7" d="M65 0L563 655H137L146 700H636L628 662L124 0H65Z" />
<glyph unicode="8" d="M284 -11Q216 -11 163 14T78 83T47 182Q47 233 72 274T141 343T244 381Q196 401 169 438T142 525Q142 579 171 621T250 687T365 711Q426 711 472 690T545 631T572 544Q572 500 553 464T497 403T405 362Q463 338 497 293T531 192Q531 134
499 88T411 16T284 -11ZM353 397Q402 397 440 416T502 469T525 543Q525 602 482 634T361 667Q312 667 273 648T212 597T189 522Q189 463 232 430T353 397ZM288 34Q376 34 429 78T483 195Q483 240 458 274T390 328T290 348Q202 348 149 304T95 188Q95 144 120 109T188
54T288 34Z" />
<glyph unicode="9" d="M330 711Q390 711 444 678T532 582T567 428Q567 324 541 243T468 105T361 19T233 -11Q186 -11 143 3T53 47L76 88Q119 60 154 47T230 34Q301 34 361 73T462 185T513 359Q470 313 417 288T306 262Q239 262 190 290T113 365T86 470Q86 526
105 570T159 646T238 694T330 711ZM322 666Q269 666 228 640T162 569T137 467Q137 395 182 351T310 306Q366 306 420 333T516 408Q517 492 492 549T422 636T322 666Z" />
<glyph unicode=":" d="M253 -8Q233 -8 220 5T206 39Q206 55 214 69T236 91T265 100Q285 100 298 87T312 53Q312 37 304 23T282 1T253 -8ZM340 402Q320 402 307 415T293 449Q293 465 301 479T323 501T352 510Q372 510 385 497T399 463Q399 447 391 433T369 411T340 402Z" />
<glyph unicode=";" d="M341 402Q321 402 308 415T294 449Q294 465 302 479T324 501T353 510Q373 510 386 497T400 463Q400 447 392 433T370 411T341 402ZM137 -152L229 60H304L179 -152H137Z" />
<glyph unicode="&lt;" d="M401 118L142 349L495 579L517 541L210 345L432 150L401 118Z" />
<glyph unicode="=" d="M369 515L379 560H760L750 515H369ZM146 411L156 456H537L527 411H146Z" />
<glyph unicode="&gt;" d="M245 580L504 349L151 119L129 157L436 353L214 548L245 580Z" />
<glyph unicode="?" d="M241 201Q245 254 265 289T317 350T381 394T445 434T493 483T512 553Q512 601 476 632T381 663Q336 663 292 641T205 579L174 619Q224 663 276 687T380 711Q434 711 474 691T538 635T561 555Q561 502 543 468T495 412T433 372T368 333T315
281T286 201H241ZM229 -8Q209 -8 196 5T182 39Q182 55 190 69T212 91T241 100Q261 100 274 87T288 53Q288 37 280 23T258 1T229 -8Z" />
<glyph unicode="@" d="M296 -144Q214 -144 149 -103T47 11T10 178Q10 262 35 334T104 460T208 544T337 574Q413 574 470 540T560 444T592 301Q592 233 571 178T515 90T434 57Q385 57 367 95Q342 74 316 64T263 53Q214 53 182 91T149 189Q149 242 170 285T228 353T310
378Q338 378 361 369T400 340L406 365H450L403 170Q395 136 406 117T442 97Q471 97 496 124T536 196T551 292Q551 365 524 419T447 504T331 534Q273 534 222 507T133 431T73 318T51 180Q51 99 82 35T169 -67T300 -104Q336 -104 370 -95T435 -66L452 -105Q414 -127
376 -135T296 -144ZM274 91Q325 91 358 132Q358 141 359 151T363 174L391 296Q381 316 360 327T313 339Q280 339 253 319T209 266T192 192Q192 146 214 119T274 91Z" />
<glyph unicode="A" d="M-31 0L361 700H433L529 0H478L450 210H144L28 0H-31ZM167 252H444L390 658L167 252Z" />
<glyph unicode="B" d="M50 0L199 700H392Q448 700 488 682T550 630T572 548Q572 477 527 427T408 362Q466 349 497 312T529 218Q529 155 498 106T411 28T283 0H50ZM183 386H348Q399 386 438 406T499 460T521 540Q521 592 485 622T385 653H240L183 386ZM111 47H283Q341
47 384 68T452 128T477 216Q477 275 437 308T325 342H174L111 47Z" />
<glyph unicode="C" d="M284 -11Q219 -11 168 23T88 121T59 276Q59 381 86 462T160 598T262 682T377 711Q437 711 483 686T561 614T603 500L553 490Q537 575 492 619T378 663Q327 663 280 636T194 559T133 437T110 277Q110 165 158 101T284 37Q355 37 413 84T507
216L555 198Q528 132 486 85T393 14T284 -11Z" />
<glyph unicode="D" d="M45 0L194 700H329Q404 700 462 670T553 577T586 412Q586 325 562 251T492 120T386 32T250 0H45ZM335 653H235L106 47H247Q312 47 365 75T456 153T514 268T535 406Q535 527 483 590T335 653Z" />
<glyph unicode="E" d="M53 0L202 700H627L617 653H243L184 377H436L426 330H174L114 47H491L481 0H53Z" />
<glyph unicode="F" d="M59 0L208 700H639L629 653H249L189 372H453L443 325H179L110 0H59Z" />
<glyph unicode="G" d="M284 -11Q216 -11 167 23T90 121T63 276Q63 381 88 462T158 598T258 682T376 711Q435 711 481 687T559 617T602 505L552 495Q536 578 491 620T377 663Q324 663 277 636T193 559T135 437T114 277Q114 165 160 101T288 37Q346 37 392 69T472
161T524 309H350L360 356H590L585 334Q559 220 517 143T417 28T284 -11Z" />
<glyph unicode="H" d="M28 0L177 700H228L159 376H499L568 700H619L470 0H419L489 329H149L79 0H28Z" />
<glyph unicode="I" d="M38 0L48 47H233L362 653H177L187 700H609L599 653H413L284 47H470L460 0H38Z" />
<glyph unicode="J" d="M248 -11Q195 -11 153 9T81 67T39 159L81 182Q96 114 141 76T251 37Q334 37 383 87T455 246L552 700H603L503 232Q476 107 415 48T248 -11Z" />
<glyph unicode="K" d="M64 0L213 700H264L194 371L584 700H659L246 356L518 0H449L190 351L115 0H64Z" />
<glyph unicode="L" d="M61 0L210 700H261L122 47H495L485 0H61Z" />
<glyph unicode="M" d="M13 0L162 700H232L320 338L560 700H634L485 0H436L573 643L298 221L200 650L62 0H13Z" />
<glyph unicode="N" d="M34 0L183 700H251L433 82L565 700H614L465 0H409L220 642L83 0H34Z" />
<glyph unicode="O" d="M269 -11Q205 -11 158 22T84 116T58 259Q58 350 83 431T153 576T255 675T377 711Q441 711 488 678T562 584T588 441Q588 350 563 269T493 124T391 25T269 -11ZM270 37Q323 37 371 69T456 158T515 287T537 441Q537 542 494 602T376 663Q323
663 275 631T190 542T131 413T109 259Q109 158 153 98T270 37Z" />
<glyph unicode="P" d="M54 0L203 700H406Q465 700 507 679T573 620T596 527Q596 460 565 409T481 328T357 298H168L105 0H54ZM178 345H357Q412 345 454 368T521 431T545 525Q545 585 507 619T400 653H244L178 345Z" />
<glyph unicode="Q" d="M269 -11Q205 -11 158 22T84 116T58 259Q58 350 83 431T153 576T255 675T377 711Q441 711 488 678T562 584T588 441Q588 329 550 232T450 73L503 -10L444 -8L414 41Q381 16 345 3T269 -11ZM270 37Q302 37 331 48T388 82L303 216L361 214L424
115Q474 171 505 257T537 441Q537 542 494 602T376 663Q323 663 275 631T190 542T131 413T109 259Q109 158 153 98T270 37Z" />
<glyph unicode="R" d="M63 0L212 700H393Q451 700 493 679T559 620T582 529Q582 444 530 385T392 312L492 0H440L341 308H180L114 0H63ZM190 355H344Q399 355 441 377T507 438T531 527Q531 586 493 619T387 653H253L190 355Z" />
<glyph unicode="S" d="M290 -12Q216 -12 148 20T38 113L76 148Q114 94 175 65T294 35Q344 35 384 55T448 110T472 189Q472 231 454 257T405 301T338 330T265 357T198 393T149 447T130 532Q130 583 155 623T230 688T347 712Q409 712 469 690T588 616L558 574Q508
619 454 642T349 665Q267 665 223 626T178 533Q178 491 196 465T245 423T312 394T385 367T452 331T501 276T520 189Q520 128 489 83T406 13T290 -12Z" />
<glyph unicode="T" d="M224 0L363 653H122L132 700H664L654 653H414L275 0H224Z" />
<glyph unicode="U" d="M273 -11Q195 -11 143 21T71 117T71 271L162 700H213L119 260Q97 160 137 99T270 37Q361 37 412 90T486 245L583 700H634L535 236Q511 122 449 56T273 -11Z" />
<glyph unicode="V" d="M213 0L119 700H170L256 47L619 700H677L284 0H213Z" />
<glyph unicode="W" d="M68 0L128 700H178L126 128L368 700H425V125L618 700H668L433 0H381V616L120 0H68Z" />
<glyph unicode="X" d="M-28 0L294 366L144 700H203L329 404L583 700H648L352 361L515 0H456L317 322L39 0H-28Z" />
<glyph unicode="Y" d="M222 0L283 286L126 700H179L317 331L609 700H670L333 280L273 0H222Z" />
<glyph unicode="Z" d="M2 0L10 38L560 653H148L158 700H638L630 662L80 47H506L496 0H2Z" />
<glyph unicode="[" d="M98 -215L293 700H568L559 657H333L156 -172H383L374 -215H98Z" />
<glyph unicode="\" d="M404 -209L197 700H245L452 -209H404Z" />
<glyph unicode="]" d="M503 700L308 -215H33L42 -172H268L445 657H218L227 700H503Z" />
<glyph unicode="^" d="M123 350L376 700H421L523 350H477L390 646L176 350H123Z" />
<glyph unicode="_" d="M-5 -124L4 -80H460L451 -124H-5Z" />
<glyph unicode="`" d="M362 579L232 695H307L410 579H362Z" />
<glyph unicode="a" d="M233 -10Q159 -10 112 28T64 127Q64 173 88 207T156 262T257 282Q308 282 353 269T428 229L443 298Q460 372 431 409T330 447Q296 447 259 436T176 402L159 444Q203 466 245 477T334 489Q395 489 435 467T490 404T493 306L424 0H376L387
50Q351 20 313 5T233 -10ZM112 130Q112 85 146 59T240 32Q284 32 322 47T397 94L419 189Q385 218 346 229T260 240Q195 240 154 209T112 130Z" />
<glyph unicode="b" d="M283 -8Q231 -8 191 13T118 74L102 0H54L206 725L257 737L194 430Q224 460 258 473T333 487Q393 487 438 459T510 380T536 266Q536 209 516 160T462 73T381 14T283 -8ZM130 122Q151 85 192 62T280 38Q338 38 385 68T459 148T487 261Q487
342 441 391T317 441Q240 441 184 386L130 122Z" />
<glyph unicode="c" d="M278 -10Q218 -10 172 17T99 94T72 206Q72 265 92 316T149 406T232 467T334 489Q399 489 448 455T520 361L476 345Q460 392 422 417T331 443Q274 443 227 411T150 325T121 205Q121 156 142 118T198 58T279 36Q326 36 368 55T441 110L475
80Q439 37 387 14T278 -10Z" />
<glyph unicode="d" d="M266 -8Q207 -8 161 20T90 99T64 213Q64 270 84 319T138 406T219 465T317 487Q369 487 410 466T483 403L550 725L601 737L447 0H398L409 51Q378 21 343 7T266 -8ZM113 218Q113 137 159 88T282 38Q323 38 357 52T419 96L472 353Q452 391 410
416T320 441Q262 441 215 411T141 331T113 218Z" />
<glyph unicode="e" d="M295 -10Q232 -10 183 18T104 98T75 215Q75 271 94 320T148 408T227 467T323 489Q382 489 427 462T499 387T525 278Q525 267 525 256T523 231H125Q120 180 141 136T202 64T293 36Q333 36 369 49T446 94L473 55Q436 24 390 7T295 -10ZM130
272H473Q477 320 458 359T402 420T320 443Q274 443 235 421T169 360T130 272Z" />
<glyph unicode="f" d="M174 0L267 438H96L105 481H277L304 609Q318 674 362 707T477 740Q509 740 538 734T603 716L593 668Q559 682 529 688T467 694Q418 694 390 672T350 594L326 481H553L544 438H317L223 0H174Z" />
<glyph unicode="g" d="M250 -219Q198 -219 141 -201T44 -149L75 -109Q118 -141 159 -156T247 -172Q301 -172 338 -139T389 -47L410 52Q379 21 344 7T267 -8Q207 -8 162 20T90 99T64 213Q64 270 84 319T138 406T219 465T317 487Q370 487 411 465T483 402L500 481H549L436
-59Q420 -136 372 -177T250 -219ZM283 38Q362 38 420 97L473 352Q453 391 411 416T320 441Q262 441 215 411T141 331T113 218Q113 137 160 88T283 38Z" />
<glyph unicode="h" d="M62 0L215 725L266 737L199 417Q232 455 270 472T355 489Q410 489 447 463T500 392T502 286L441 0H392L453 284Q469 357 438 401T344 446Q298 446 259 428T189 370L111 0H62Z" />
<glyph unicode="i" d="M371 605Q350 605 336 619T322 655Q322 669 330 681T351 702T379 710Q399 710 414 695T429 660Q429 646 421 633T400 613T371 605ZM371 -10Q295 -10 262 27T243 132L310 438H127L136 481H368L292 130Q281 80 302 57T379 33Q400 33 420 37T465
50L455 5Q434 -2 414 -6T371 -10Z" />
<glyph unicode="j" d="M465 605Q444 605 430 619T415 655Q415 669 423 681T444 702T473 710Q493 710 507 695T522 660Q522 646 515 633T494 613T465 605ZM172 -219Q135 -219 96 -209T16 -179L26 -131Q67 -152 102 -162T175 -173Q228 -173 255 -150T294 -74L401
438H145L154 481H459L341 -81Q327 -148 282 -183T172 -219Z" />
<glyph unicode="k" d="M76 0L228 725L279 737L180 263L504 481H578L237 249L487 0H421L177 249L125 0H76Z" />
<glyph unicode="l" d="M353 -10Q280 -10 245 25T225 132L341 684H158L167 727H399L274 130Q263 75 286 54T361 33Q382 33 402 37T447 50L437 5Q417 -2 397 -6T353 -10Z" />
<glyph unicode="m" d="M24 0L127 481H175L167 446Q207 489 255 489Q287 489 311 473T345 428Q369 459 397 474T453 489Q505 489 533 451T547 350L472 0H424L500 353Q509 395 490 422T436 449Q388 449 351 397Q352 387 351 376T348 353L272 0H224L300 353Q309 395
291 422T238 449Q215 449 196 439T160 410L72 0H24Z" />
<glyph unicode="n" d="M59 0L162 481H211L197 415Q231 454 269 471T355 489Q410 489 447 463T500 392T502 286L441 0H392L453 283Q469 357 438 401T344 445Q246 445 187 367L108 0H59Z" />
<glyph unicode="o" d="M266 -10Q210 -10 167 17T99 91T74 201Q74 260 94 312T151 404T234 466T334 489Q390 489 433 462T501 388T526 278Q526 219 506 167T449 75T366 13T266 -10ZM268 36Q325 36 372 68T448 156T477 277Q477 351 437 397T332 443Q275 443 228
411T152 324T123 202Q123 129 163 83T268 36Z" />
<glyph unicode="p" d="M7 -209L155 481H203L192 429Q223 459 258 473T333 487Q393 487 438 459T510 380T536 266Q536 209 516 160T462 73T381 14T283 -8Q231 -8 190 14T117 76L56 -209H7ZM280 38Q338 38 385 68T459 148T487 261Q487 342 441 391T317 441Q239 441
183 385L128 126Q148 87 190 63T280 38Z" />
<glyph unicode="q" d="M352 -209L407 49Q376 20 342 6T267 -8Q207 -8 162 20T90 99T64 213Q64 270 84 319T138 406T219 465T317 487Q369 487 410 466T483 404L500 481H549L401 -209H352ZM283 38Q360 38 417 94L472 354Q452 392 410 416T320 441Q262 441 215 411T141
331T113 218Q113 137 160 88T283 38Z" />
<glyph unicode="r" d="M52 0L61 43H200L285 438H145L154 481H343L321 376Q351 429 397 459T501 489Q526 489 549 484T595 467L585 421Q572 429 559 434T531 441T501 444Q439 444 391 413T309 322L249 43H398L389 0H52Z" />
<glyph unicode="s" d="M284 -10Q223 -10 168 15T73 85L109 116Q153 73 195 54T290 34Q353 34 390 61T427 132Q427 166 405 183T348 208T274 224T199 243T142 281T120 352Q120 413 165 451T290 489Q347 489 400 470T498 406L464 369Q425 407 381 426T295 445Q237
445 203 422T168 357Q168 322 190 304T247 278T321 262T396 243T453 205T475 132Q475 91 451 59T384 8T284 -10Z" />
<glyph unicode="t" d="M333 -10Q254 -10 219 24T196 122L264 438H92L101 481H273L301 612L353 625L322 481H554L545 438H313L247 130Q237 80 260 58T338 36Q367 36 396 42T465 64L454 15Q426 3 395 -3T333 -10Z" />
<glyph unicode="u" d="M247 -8Q192 -8 155 18T104 90T101 195L162 481H211L150 198Q134 125 164 81T258 36Q353 36 414 115L492 481H541L438 0H389L403 68Q370 28 332 10T247 -8Z" />
<glyph unicode="v" d="M223 0L118 481H165L258 62L526 481H584L268 0H223Z" />
<glyph unicode="w" d="M95 0V481H141L135 75L325 481H372L392 73L557 481H606L401 0H353L337 409L144 0H95Z" />
<glyph unicode="x" d="M19 0L277 253L143 481H200L313 282L515 481H578L336 244L479 0H422L300 215L82 0H19Z" />
<glyph unicode="y" d="M65 -219Q50 -219 33 -215T-5 -204L5 -155Q22 -165 36 -169T66 -173Q92 -173 112 -158T154 -108L215 -7L118 481H167L253 56L519 481H575L197 -127Q175 -163 156 -183T116 -211T65 -219Z" />
<glyph unicode="z" d="M49 0L58 42L463 435H147L157 481H544L535 440L129 46H452L442 0H49Z" />
<glyph unicode="{" d="M254 -219Q196 -219 162 -188T127 -116Q127 -83 143 -54T182 3T229 56T269 107T285 156Q285 182 266 202T211 223H115L124 269H220Q265 269 295 294T326 359Q326 390 311 426T281 502T266 578Q266 613 282 643T330 692T412 711Q448 711 481
702T549 670L525 630Q496 648 468 657T410 667Q363 667 338 643T312 583Q312 556 326 520T355 446T370 371Q370 319 341 285T269 240Q296 229 312 203T329 150Q329 123 314 97T275 44T229 -7T190 -58T174 -108Q174 -133 196 -154T255 -175Q278 -175 306 -167T361
-146L371 -186Q340 -202 312 -210T254 -219Z" />
<glyph unicode="|" d="M183 -209L376 700H422L229 -209H183Z" />
<glyph unicode="}" d="M349 713Q408 713 442 682T476 610Q476 577 460 548T421 491T374 438T334 387T318 338Q318 313 338 292T392 271H488L479 225H383Q338 225 308 201T277 135Q277 105 292 68T322 -7T337 -84Q337 -119 321 -149T273 -198T191 -217Q155 -217
122 -208T54 -176L78 -136Q107 -154 135 -163T193 -173Q240 -173 265 -148T291 -89Q291 -62 277 -26T248 48T233 123Q233 176 262 210T334 254Q307 265 291 291T274 344Q274 371 289 397T328 450T375 501T413 552T429 602Q429 628 407 648T348 669Q326 669 298
662T242 640L232 680Q264 697 291 705T349 713Z" />
<glyph unicode="~" d="M129 307L88 312Q101 377 138 413T222 449Q240 449 261 442T308 419L373 380Q393 368 409 363T438 357Q469 357 494 380T530 452L571 446Q559 381 523 346T439 310Q420 310 398 317T350 339L287 378Q264 392 248 397T218 402Q188 402 165
379T129 307Z" />
<glyph unicode="&#xa0;" />
<glyph unicode="&#xa1;" d="M332 284L225 -235H172L291 284H332ZM350 500Q370 500 383 487T397 453Q397 437 389 423T367 401T338 392Q318 392 305 405T291 439Q291 455 299 469T321 491T350 500Z" />
<glyph unicode="&#xa2;" d="M200 -123L225 -4Q161 13 122 69T82 206Q82 263 101 313T154 401T233 463T330 489L354 602H398L374 487Q427 480 468 447T526 362L480 345Q463 387 435 411T364 442L278 36Q325 36 366 55T435 108L472 81Q436 38 384 14T274 -10Q273
-10 272 -10T268 -10L244 -123H200ZM131 205Q131 144 160 100T235 42L320 442Q268 436 225 403T157 319T131 205Z" />
<glyph unicode="&#xa3;" d="M386 -25Q356 -25 321 -15T251 8T183 32T124 42Q90 42 63 25T13 -25L-19 4Q9 45 47 66T134 88Q162 109 175 139T188 216Q188 223 188 244T186 294H74L83 338H184Q183 370 182 400T180 451T179 476Q179 549 202 601T269 682T373 711Q451
711 495 667T551 531L504 522Q495 595 463 630T374 665Q304 665 266 616T228 476Q228 471 228 450T230 400T233 338H396L387 294H234Q236 265 236 244T237 216Q237 167 222 131T184 79Q217 70 253 57T325 34T391 23Q418 23 441 36T482 73L516 42Q490 12 457 -6T386
-25Z" />
<glyph unicode="&#xa4;" d="M62 69L33 100L127 195Q100 228 85 269T70 360Q70 409 85 450T127 525L33 620L62 651L155 557Q188 586 230 602T319 618Q366 618 408 602T483 557L576 651L605 620L511 525Q538 492 553 451T568 360Q568 311 553 270T511 195L605 100L576
69L483 163Q450 135 408 119T319 102Q272 102 230 118T155 163L62 69ZM319 150Q375 150 419 178T490 253T516 360Q516 419 490 466T420 542T319 570Q264 570 219 542T148 467T122 360Q122 301 148 254T219 178T319 150Z" />
<glyph unicode="&#xa5;" d="M222 0L251 138H71L80 182H261L279 266H98L107 310H274L126 700H179L317 331L609 700H670L357 310H522L513 266H330L312 182H495L486 138H302L273 0H222Z" />
<glyph unicode="&#xa6;" d="M288 288L376 700H422L334 288H288ZM183 -209L271 203H317L229 -209H183Z" />
<glyph unicode="&#xa7;" d="M270 -49Q225 -49 179 -33T94 15L122 53Q163 23 201 10T276 -3Q323 -3 350 20T377 84Q377 110 363 131T319 168L224 215Q170 242 147 272T124 346Q124 399 161 432T266 473Q215 512 215 572Q215 614 234 645T288 693T369 711Q412 711
458 694T543 647L516 609Q475 639 437 652T363 665Q317 665 289 641T261 577Q261 525 320 495L415 448Q468 422 491 391T515 316Q515 263 478 229T374 186Q423 149 423 90Q423 49 404 18T351 -31T270 -49ZM326 214Q394 218 431 244T469 316Q469 373 395 408L320
444Q248 442 209 417T170 347Q170 294 244 256L326 214Z" />
<glyph unicode="&#xa8;" d="M281 605Q260 605 246 619T232 655Q232 676 249 693T289 710Q309 710 324 695T339 660Q339 638 322 622T281 605ZM477 605Q456 605 442 619T428 655Q428 676 445 693T485 710Q505 710 520 695T535 660Q535 638 518 622T477 605Z" />
<glyph unicode="&#xa9;" d="M312 167Q273 167 240 188T188 245T168 328Q168 385 192 431T256 505T340 533Q383 533 417 514T474 462L441 433Q424 458 400 475T343 493Q309 493 279 472T229 413T210 326Q210 267 242 237T318 207Q362 207 408 240L428 207Q403 188
373 178T312 167ZM284 -11Q219 -11 164 24T75 126T41 284Q41 374 67 452T137 588T240 678T362 711Q428 711 483 676T571 574T605 416Q605 326 579 248T509 112T406 22T284 -11ZM287 30Q338 30 387 58T475 137T538 257T562 410Q562 485 536 543T465 636T359 670Q308
670 259 642T171 563T108 443T84 290Q84 216 110 157T182 64T287 30Z" />
<glyph unicode="&#xaa;" d="M306 327Q248 327 211 355T174 430Q174 484 217 517T330 550Q366 550 396 540T452 507L466 571Q477 620 452 646T371 672Q345 672 320 666T259 645L246 682Q287 699 315 705T373 711Q448 711 485 675T509 576L457 331H414L422 366Q368
327 306 327ZM315 363Q349 363 376 372T429 401L445 473Q423 494 393 505T328 516Q277 516 247 493T217 432Q217 400 243 382T315 363Z" />
<glyph unicode="&#xab;" d="M234 0L49 241L327 481H389L111 236L287 0H234ZM447 0L262 241L540 481H602L324 236L500 0H447Z" />
<glyph unicode="&#xac;" d="M420 0L475 258H85L94 303H533L469 0H420Z" />
<glyph unicode="&#xad;" d="M398 258L408 302H730L720 258H398Z" />
<glyph unicode="&#xae;" d="M277 419L317 607H378Q404 607 417 594T431 554Q431 535 419 519T387 494L413 419H383L357 491H320L305 419H277ZM373 582H340L326 516H366Q383 516 392 525T402 552Q402 582 373 582ZM340 313Q291 313 253 336T194 399T173 490Q173
536 189 576T233 646T299 694T378 711Q428 711 465 688T524 626T545 535Q545 489 529 449T485 378T419 330T340 313ZM341 343Q388 343 427 369T490 438T514 535Q514 601 477 641T377 681Q330 681 291 655T228 586T204 490Q204 423 241 383T341 343Z" />
<glyph unicode="&#xaf;" d="M257 632L265 672H518L510 632H257Z" />
<glyph unicode="&#xb0;" d="M357 431Q321 431 292 448T247 495T230 558Q230 599 251 634T307 690T383 711Q420 711 448 694T493 647T510 584Q510 543 489 508T434 452T357 431ZM359 471Q388 471 413 486T453 526T469 581Q469 619 444 645T381 671Q353 671 328
656T287 616T271 561Q271 523 296 497T359 471Z" />
<glyph unicode="&#xb1;" d="M57 -1L67 44H448L438 -1H57ZM261 165L300 347H131L141 392H309L348 574H393L354 392H522L512 347H345L306 165H261Z" />
<glyph unicode="&#xb2;" d="M209 350L215 380L397 525Q425 548 438 568T452 611Q452 638 433 654T382 670Q359 670 337 661T286 631L265 661Q330 705 386 705Q430 705 460 681T491 618Q491 586 475 560T420 504L270 385H449L442 350H209Z" />
<glyph unicode="&#xb3;" d="M335 345Q295 345 264 357T207 397L231 426Q275 380 334 380Q372 380 399 399T426 448Q426 475 405 492T347 510H319L325 541H352Q393 541 420 561T448 610Q448 636 428 653T375 670Q355 670 332 663T277 637L259 668Q318 705 377 705Q424
705 455 679T487 615Q487 582 462 557T395 524Q427 516 446 494T465 443Q465 415 449 393T403 358T335 345Z" />
<glyph unicode="&#xb4;" d="M327 579L453 695H529L377 579H327Z" />
<glyph unicode="&#xb5;" d="M13 -209L161 481H210L147 187Q136 118 166 77T258 36Q353 36 414 115L492 481H541L438 0H389L403 68Q370 28 332 10T247 -8Q202 -8 170 9T119 58L62 -209H13Z" />
<glyph unicode="&#xb6;" d="M255 0L319 302H297Q234 302 190 324T123 385T100 477Q100 543 127 593T208 671T337 700H626L477 0H426L490 302H370L306 0H255ZM500 349L565 653H445L380 349H500ZM284 349H329L394 653H322Q271 653 233 631T173 571T151 481Q151 420
186 385T284 349Z" />
<glyph unicode="&#xb7;" d="M305 237Q285 237 272 250T258 284Q258 300 266 314T288 336T317 345Q337 345 350 332T364 298Q364 282 356 268T334 246T305 237Z" />
<glyph unicode="&#xb8;" d="M204 -235Q170 -235 145 -223T105 -195L129 -171Q159 -204 202 -204Q240 -204 259 -187T279 -144Q279 -121 261 -109T211 -96H187L230 0H263L233 -68Q273 -71 293 -90T314 -138Q314 -166 300 -188T260 -222T204 -235Z" />
<glyph unicode="&#xb9;" d="M318 350L384 659L266 631L273 668L405 700H430L356 350H318Z" />
<glyph unicode="&#xba;" d="M342 323Q293 323 254 345T193 406T170 494Q170 553 198 602T273 681T375 711Q424 711 463 689T525 628T548 540Q548 482 520 433T444 353T342 323ZM342 364Q390 364 426 389T482 454T502 535Q502 593 467 631T376 670Q329 670 293
645T236 581T216 499Q216 441 251 403T342 364Z" />
<glyph unicode="&#xbb;" d="M366 481L551 240L273 0H211L489 245L313 481H366ZM153 481L338 240L60 0H-2L276 245L100 481H153Z" />
<glyph unicode="&#xbc;" d="M150 418L201 656L143 635L150 672L223 700H249L189 418H150ZM420 0L435 71H273L280 105L472 282H519L481 105H515L507 71H474L459 0H420ZM329 105H442L468 232L329 105ZM1 0L544 700H593L50 0H1Z" />
<glyph unicode="&#xbd;" d="M150 418L201 656L143 635L150 672L223 700H249L189 418H150ZM290 0L296 30L435 139Q464 162 475 177T487 209Q487 227 476 239T439 251Q420 251 399 243T351 215L330 241Q350 261 381 274T443 287Q480 287 504 268T528 214Q528 190
513 168T455 112L356 35H491L484 0H290ZM9 0L552 700H601L58 0H9Z" />
<glyph unicode="&#xbe;" d="M176 413Q148 413 121 422T73 451L102 482Q119 466 137 458T180 449Q215 449 234 465T253 502Q253 522 238 532T197 542H169L175 575H199Q234 575 251 593T269 630Q269 647 255 658T216 669Q201 669 182 663T140 641L121 671Q144 688
170 696T222 705Q261 705 285 686T310 636Q310 610 291 589T237 561Q263 556 278 540T294 500Q294 464 260 439T176 413ZM420 0L435 71H273L280 105L472 282H519L481 105H515L507 71H474L459 0H420ZM329 105H442L468 232L329 105ZM21 0L564 700H613L70 0H21Z" />
<glyph unicode="&#xbf;" d="M362 291Q359 238 338 203T286 142T222 98T158 58T110 9T91 -61Q91 -109 127 -140T222 -171Q267 -171 311 -149T398 -87L429 -127Q380 -171 328 -195T223 -219Q170 -219 129 -199T65 -143T42 -63Q42 -10 60 24T108 80T170 120T235 159T288
211T317 291H362ZM374 500Q394 500 407 487T421 453Q421 437 413 423T391 401T362 392Q342 392 329 405T315 439Q315 455 323 469T345 491T374 500Z" />
<glyph unicode="&#xc0;" d="M-31 0L361 700H433L529 0H478L450 210H144L28 0H-31ZM167 252H444L390 658L167 252ZM408 798L278 914H353L456 798H408Z" />
<glyph unicode="&#xc1;" d="M-31 0L361 700H433L529 0H478L450 210H144L28 0H-31ZM167 252H444L390 658L167 252ZM373 798L499 914H575L423 798H373Z" />
<glyph unicode="&#xc2;" d="M-31 0L361 700H433L529 0H478L450 210H144L28 0H-31ZM167 252H444L390 658L167 252ZM280 793L412 914H469L553 793H513L436 882L323 793H280Z" />
<glyph unicode="&#xc3;" d="M-31 0L361 700H433L529 0H478L450 210H144L28 0H-31ZM167 252H444L390 658L167 252ZM304 801L264 812Q307 898 363 898Q385 898 403 889T438 868T469 847T500 838Q516 838 527 850T553 896L594 885Q553 799 498 799Q476 799 458 808T423
828T392 849T361 858Q344 858 331 845T304 801Z" />
<glyph unicode="&#xc4;" d="M-31 0L361 700H433L529 0H478L450 210H144L28 0H-31ZM167 252H444L390 658L167 252ZM327 824Q306 824 292 838T278 874Q278 895 295 912T335 929Q355 929 370 914T385 879Q385 857 368 841T327 824ZM523 824Q502 824 488 838T474 874Q474
895 491 912T531 929Q551 929 566 914T581 879Q581 857 564 841T523 824Z" />
<glyph unicode="&#xc5;" d="M-31 0L361 700H433L529 0H478L450 210H144L28 0H-31ZM167 252H444L390 658L167 252ZM423 787Q380 787 354 813T327 882Q327 914 343 941T385 985T443 1002Q486 1002 512 976T539 907Q539 876 523 849T481 804T423 787ZM424 821Q457
821 480 846T504 905Q504 934 486 951T442 968Q409 968 386 943T362 884Q362 855 380 838T424 821Z" />
<glyph unicode="&#xc6;" d="M-42 0L354 700H664L654 653H428L369 377H519L509 330H359L299 47H528L518 0H236L275 182H122L21 0H-42ZM145 224H284L371 633L145 224Z" />
<glyph unicode="&#xc7;" d="M248 -235Q214 -235 189 -223T149 -195L173 -171Q203 -204 246 -204Q284 -204 303 -187T323 -144Q323 -121 305 -109T255 -96H231L269 -11Q208 -7 161 28T86 126T59 276Q59 381 86 462T160 598T262 682T377 711Q466 711 526 656T603
500L553 490Q537 575 492 619T378 663Q327 663 280 636T194 559T133 437T110 277Q110 165 158 101T284 37Q355 37 413 84T507 216L555 198Q516 104 449 50T302 -10L277 -68Q317 -71 337 -90T358 -138Q358 -166 344 -188T304 -222T248 -235Z" />
<glyph unicode="&#xc8;" d="M53 0L202 700H627L617 653H243L184 377H436L426 330H174L114 47H491L481 0H53ZM425 798L295 914H370L473 798H425Z" />
<glyph unicode="&#xc9;" d="M53 0L202 700H627L617 653H243L184 377H436L426 330H174L114 47H491L481 0H53ZM390 798L516 914H592L440 798H390Z" />
<glyph unicode="&#xca;" d="M53 0L202 700H627L617 653H243L184 377H436L426 330H174L114 47H491L481 0H53ZM297 793L429 914H486L570 793H530L453 882L340 793H297Z" />
<glyph unicode="&#xcb;" d="M53 0L202 700H627L617 653H243L184 377H436L426 330H174L114 47H491L481 0H53ZM344 824Q323 824 309 838T295 874Q295 895 312 912T352 929Q372 929 387 914T402 879Q402 857 385 841T344 824ZM540 824Q519 824 505 838T491 874Q491
895 508 912T548 929Q568 929 583 914T598 879Q598 857 581 841T540 824Z" />
<glyph unicode="&#xcc;" d="M38 0L48 47H233L362 653H177L187 700H609L599 653H413L284 47H470L460 0H38ZM405 798L275 914H350L453 798H405Z" />
<glyph unicode="&#xcd;" d="M38 0L48 47H233L362 653H177L187 700H609L599 653H413L284 47H470L460 0H38ZM370 798L496 914H572L420 798H370Z" />
<glyph unicode="&#xce;" d="M38 0L48 47H233L362 653H177L187 700H609L599 653H413L284 47H470L460 0H38ZM277 793L409 914H466L550 793H510L433 882L320 793H277Z" />
<glyph unicode="&#xcf;" d="M38 0L48 47H233L362 653H177L187 700H609L599 653H413L284 47H470L460 0H38ZM324 824Q303 824 289 838T275 874Q275 895 292 912T332 929Q352 929 367 914T382 879Q382 857 365 841T324 824ZM520 824Q499 824 485 838T471 874Q471
895 488 912T528 929Q548 929 563 914T578 879Q578 857 561 841T520 824Z" />
<glyph unicode="&#xd0;" d="M50 0L120 329H36L46 373H129L199 700H321Q396 700 454 670T547 577T581 412Q581 325 557 251T487 120T381 32T245 0H50ZM111 47H242Q307 47 360 75T451 153T509 268T530 406Q530 527 476 590T326 653H240L180 373H314L304 329H171L111 47Z" />
<glyph unicode="&#xd1;" d="M34 0L183 700H251L433 82L565 700H614L465 0H409L220 642L83 0H34ZM306 801L266 812Q309 898 365 898Q387 898 405 889T440 868T471 847T502 838Q518 838 529 850T555 896L596 885Q555 799 500 799Q478 799 460 808T425 828T394 849T363
858Q346 858 333 845T306 801Z" />
<glyph unicode="&#xd2;" d="M269 -11Q205 -11 158 22T84 116T58 259Q58 350 83 431T153 576T255 675T377 711Q441 711 488 678T562 584T588 441Q588 350 563 269T493 124T391 25T269 -11ZM270 37Q323 37 371 69T456 158T515 287T537 441Q537 542 494 602T376 663Q323
663 275 631T190 542T131 413T109 259Q109 158 153 98T270 37ZM393 798L263 914H338L441 798H393Z" />
<glyph unicode="&#xd3;" d="M269 -11Q205 -11 158 22T84 116T58 259Q58 350 83 431T153 576T255 675T377 711Q441 711 488 678T562 584T588 441Q588 350 563 269T493 124T391 25T269 -11ZM270 37Q323 37 371 69T456 158T515 287T537 441Q537 542 494 602T376 663Q323
663 275 631T190 542T131 413T109 259Q109 158 153 98T270 37ZM358 798L484 914H560L408 798H358Z" />
<glyph unicode="&#xd4;" d="M269 -11Q205 -11 158 22T84 116T58 259Q58 350 83 431T153 576T255 675T377 711Q441 711 488 678T562 584T588 441Q588 350 563 269T493 124T391 25T269 -11ZM270 37Q323 37 371 69T456 158T515 287T537 441Q537 542 494 602T376 663Q323
663 275 631T190 542T131 413T109 259Q109 158 153 98T270 37ZM265 793L397 914H454L538 793H498L421 882L308 793H265Z" />
<glyph unicode="&#xd5;" d="M269 -11Q205 -11 158 22T84 116T58 259Q58 350 83 431T153 576T255 675T377 711Q441 711 488 678T562 584T588 441Q588 350 563 269T493 124T391 25T269 -11ZM270 37Q323 37 371 69T456 158T515 287T537 441Q537 542 494 602T376 663Q323
663 275 631T190 542T131 413T109 259Q109 158 153 98T270 37ZM289 801L249 812Q292 898 348 898Q370 898 388 889T423 868T454 847T485 838Q501 838 512 850T538 896L579 885Q538 799 483 799Q461 799 443 808T408 828T377 849T346 858Q329 858 316 845T289 801Z"
/>
<glyph unicode="&#xd6;" d="M269 -11Q205 -11 158 22T84 116T58 259Q58 350 83 431T153 576T255 675T377 711Q441 711 488 678T562 584T588 441Q588 350 563 269T493 124T391 25T269 -11ZM270 37Q323 37 371 69T456 158T515 287T537 441Q537 542 494 602T376 663Q323
663 275 631T190 542T131 413T109 259Q109 158 153 98T270 37ZM312 824Q291 824 277 838T263 874Q263 895 280 912T320 929Q340 929 355 914T370 879Q370 857 353 841T312 824ZM508 824Q487 824 473 838T459 874Q459 895 476 912T516 929Q536 929 551 914T566 879Q566
857 549 841T508 824Z" />
<glyph unicode="&#xd7;" d="M140 168L112 200L295 361L179 521L213 550L329 390L511 550L539 518L354 356L469 197L435 168L320 326L140 168Z" />
<glyph unicode="&#xd8;" d="M-6 0L87 109Q58 172 58 259Q58 350 83 431T153 576T255 675T377 711Q427 711 467 690T535 631L594 700H653L559 590Q588 527 588 441Q588 350 563 269T493 124T391 25T269 -11Q220 -11 180 10T111 68L53 0H-6ZM109 259Q109 229 113
203T125 153L501 591Q480 626 449 644T376 663Q323 663 275 631T190 542T131 413T109 259ZM270 37Q323 37 371 69T456 158T515 287T537 441Q537 502 521 546L146 108Q167 74 198 56T270 37Z" />
<glyph unicode="&#xd9;" d="M273 -11Q195 -11 143 21T71 117T71 271L162 700H213L119 260Q97 160 137 99T270 37Q361 37 412 90T486 245L583 700H634L535 236Q511 122 449 56T273 -11ZM409 798L279 914H354L457 798H409Z" />
<glyph unicode="&#xda;" d="M273 -11Q195 -11 143 21T71 117T71 271L162 700H213L119 260Q97 160 137 99T270 37Q361 37 412 90T486 245L583 700H634L535 236Q511 122 449 56T273 -11ZM374 798L500 914H576L424 798H374Z" />
<glyph unicode="&#xdb;" d="M273 -11Q195 -11 143 21T71 117T71 271L162 700H213L119 260Q97 160 137 99T270 37Q361 37 412 90T486 245L583 700H634L535 236Q511 122 449 56T273 -11ZM281 793L413 914H470L554 793H514L437 882L324 793H281Z" />
<glyph unicode="&#xdc;" d="M273 -11Q195 -11 143 21T71 117T71 271L162 700H213L119 260Q97 160 137 99T270 37Q361 37 412 90T486 245L583 700H634L535 236Q511 122 449 56T273 -11ZM328 824Q307 824 293 838T279 874Q279 895 296 912T336 929Q356 929 371 914T386
879Q386 857 369 841T328 824ZM524 824Q503 824 489 838T475 874Q475 895 492 912T532 929Q552 929 567 914T582 879Q582 857 565 841T524 824Z" />
<glyph unicode="&#xdd;" d="M222 0L283 286L126 700H179L317 331L609 700H670L333 280L273 0H222ZM370 798L496 914H572L420 798H370Z" />
<glyph unicode="&#xde;" d="M54 0L203 700H254L222 550H374Q433 550 475 529T541 470T564 377Q564 310 533 259T449 178T325 148H137L105 0H54ZM147 195H325Q380 195 422 218T489 281T513 375Q513 435 475 469T368 503H212L147 195Z" />
<glyph unicode="&#xdf;" d="M355 -10Q303 -10 256 9T182 66L220 92Q240 64 276 50T355 36Q414 36 449 64T484 137Q484 166 469 183T431 213T381 235T331 258T292 292T277 346Q277 379 293 400T334 436T386 463T439 491T480 529T496 586Q496 628 464 659T378 691Q304
691 256 649T188 516L77 0H28L140 521Q163 629 224 683T375 737Q425 737 463 716T522 660T543 582Q543 543 527 516T486 471T434 440T381 414T340 388T324 352Q324 325 339 309T377 283T427 262T477 237T516 197T531 132Q531 92 509 60T447 9T355 -10Z" />
<glyph unicode="&#xe0;" d="M233 -10Q159 -10 112 28T64 127Q64 173 88 207T156 262T257 282Q308 282 353 269T428 229L443 298Q460 372 431 409T330 447Q296 447 259 436T176 402L159 444Q203 466 245 477T334 489Q395 489 435 467T490 404T493 306L424 0H376L387
50Q351 20 313 5T233 -10ZM112 130Q112 85 146 59T240 32Q284 32 322 47T397 94L419 189Q385 218 346 229T260 240Q195 240 154 209T112 130ZM599 579L469 695H544L647 579H599Z" />
<glyph unicode="&#xe1;" d="M233 -10Q159 -10 112 28T64 127Q64 173 88 207T156 262T257 282Q308 282 353 269T428 229L443 298Q460 372 431 409T330 447Q296 447 259 436T176 402L159 444Q203 466 245 477T334 489Q395 489 435 467T490 404T493 306L424 0H376L387
50Q351 20 313 5T233 -10ZM112 130Q112 85 146 59T240 32Q284 32 322 47T397 94L419 189Q385 218 346 229T260 240Q195 240 154 209T112 130ZM564 579L690 695H766L614 579H564Z" />
<glyph unicode="&#xe2;" d="M233 -10Q159 -10 112 28T64 127Q64 173 88 207T156 262T257 282Q308 282 353 269T428 229L443 298Q460 372 431 409T330 447Q296 447 259 436T176 402L159 444Q203 466 245 477T334 489Q395 489 435 467T490 404T493 306L424 0H376L387
50Q351 20 313 5T233 -10ZM112 130Q112 85 146 59T240 32Q284 32 322 47T397 94L419 189Q385 218 346 229T260 240Q195 240 154 209T112 130ZM471 574L603 695H660L744 574H704L627 663L514 574H471Z" />
<glyph unicode="&#xe3;" d="M233 -10Q159 -10 112 28T64 127Q64 173 88 207T156 262T257 282Q308 282 353 269T428 229L443 298Q460 372 431 409T330 447Q296 447 259 436T176 402L159 444Q203 466 245 477T334 489Q395 489 435 467T490 404T493 306L424 0H376L387
50Q351 20 313 5T233 -10ZM112 130Q112 85 146 59T240 32Q284 32 322 47T397 94L419 189Q385 218 346 229T260 240Q195 240 154 209T112 130ZM495 582L455 593Q498 679 554 679Q576 679 594 670T629 649T660 628T691 619Q707 619 718 631T744 677L785 666Q744 580
689 580Q667 580 649 589T614 609T583 630T552 639Q535 639 522 626T495 582Z" />
<glyph unicode="&#xe4;" d="M233 -10Q159 -10 112 28T64 127Q64 173 88 207T156 262T257 282Q308 282 353 269T428 229L443 298Q460 372 431 409T330 447Q296 447 259 436T176 402L159 444Q203 466 245 477T334 489Q395 489 435 467T490 404T493 306L424 0H376L387
50Q351 20 313 5T233 -10ZM112 130Q112 85 146 59T240 32Q284 32 322 47T397 94L419 189Q385 218 346 229T260 240Q195 240 154 209T112 130ZM518 605Q497 605 483 619T469 655Q469 676 486 693T526 710Q546 710 561 695T576 660Q576 638 559 622T518 605ZM714
605Q693 605 679 619T665 655Q665 676 682 693T722 710Q742 710 757 695T772 660Q772 638 755 622T714 605Z" />
<glyph unicode="&#xe5;" d="M233 -10Q159 -10 112 28T64 127Q64 173 88 207T156 262T257 282Q308 282 353 269T428 229L443 298Q460 372 431 409T330 447Q296 447 259 436T176 402L159 444Q203 466 245 477T334 489Q395 489 435 467T490 404T493 306L424 0H376L387
50Q351 20 313 5T233 -10ZM112 130Q112 85 146 59T240 32Q284 32 322 47T397 94L419 189Q385 218 346 229T260 240Q195 240 154 209T112 130ZM614 568Q571 568 545 594T518 663Q518 695 534 722T576 766T634 783Q677 783 703 757T730 688Q730 657 714 630T672 585T614
568ZM615 602Q648 602 671 627T695 686Q695 715 677 732T633 749Q600 749 577 724T553 665Q553 636 571 619T615 602Z" />
<glyph unicode="&#xe6;" d="M312 272H527Q538 356 522 399T461 443Q431 443 402 420T350 358T312 272ZM140 33Q168 33 199 51T257 102Q253 116 252 131T250 164Q250 176 251 187T253 210Q235 223 215 230T168 237Q116 237 88 203T59 123Q59 80 80 57T140 33ZM134
-10Q98 -10 70 6T26 50T10 115Q10 160 29 197T84 256T169 279Q194 279 215 272T255 254L274 344Q285 394 268 420T213 446Q188 446 159 434T98 399L71 433Q105 460 141 474T214 489Q258 489 289 468T327 406Q356 444 391 466T464 489Q523 489 551 446T579 329Q579
306 576 281T566 231H302Q299 215 298 198T296 164Q296 104 319 70T392 36Q416 36 445 46T496 75L522 39Q491 14 456 2T387 -10Q346 -10 317 10T270 65Q240 27 206 9T134 -10Z" />
<glyph unicode="&#xe7;" d="M238 -235Q204 -235 179 -223T139 -195L163 -171Q193 -204 236 -204Q274 -204 293 -187T313 -144Q313 -121 295 -109T245 -96H221L260 -9Q205 -5 163 23T96 99T72 206Q72 265 92 316T149 406T232 467T334 489Q399 489 448 455T520 361L476
345Q460 392 422 417T331 443Q274 443 227 411T150 325T121 205Q121 156 142 118T198 58T279 36Q326 36 368 55T441 110L475 80Q441 40 394 17T293 -10L267 -68Q307 -71 327 -90T348 -138Q348 -166 334 -188T294 -222T238 -235Z" />
<glyph unicode="&#xe8;" d="M295 -10Q232 -10 183 18T104 98T75 215Q75 271 94 320T148 408T227 467T323 489Q382 489 427 462T499 387T525 278Q525 267 525 256T523 231H125Q120 180 141 136T202 64T293 36Q333 36 369 49T446 94L473 55Q436 24 390 7T295 -10ZM130
272H473Q477 320 458 359T402 420T320 443Q274 443 235 421T169 360T130 272ZM592 579L462 695H537L640 579H592Z" />
<glyph unicode="&#xe9;" d="M295 -10Q232 -10 183 18T104 98T75 215Q75 271 94 320T148 408T227 467T323 489Q382 489 427 462T499 387T525 278Q525 267 525 256T523 231H125Q120 180 141 136T202 64T293 36Q333 36 369 49T446 94L473 55Q436 24 390 7T295 -10ZM130
272H473Q477 320 458 359T402 420T320 443Q274 443 235 421T169 360T130 272ZM557 579L683 695H759L607 579H557Z" />
<glyph unicode="&#xea;" d="M295 -10Q232 -10 183 18T104 98T75 215Q75 271 94 320T148 408T227 467T323 489Q382 489 427 462T499 387T525 278Q525 267 525 256T523 231H125Q120 180 141 136T202 64T293 36Q333 36 369 49T446 94L473 55Q436 24 390 7T295 -10ZM130
272H473Q477 320 458 359T402 420T320 443Q274 443 235 421T169 360T130 272ZM464 574L596 695H653L737 574H697L620 663L507 574H464Z" />
<glyph unicode="&#xeb;" d="M295 -10Q232 -10 183 18T104 98T75 215Q75 271 94 320T148 408T227 467T323 489Q382 489 427 462T499 387T525 278Q525 267 525 256T523 231H125Q120 180 141 136T202 64T293 36Q333 36 369 49T446 94L473 55Q436 24 390 7T295 -10ZM130
272H473Q477 320 458 359T402 420T320 443Q274 443 235 421T169 360T130 272ZM511 605Q490 605 476 619T462 655Q462 676 479 693T519 710Q539 710 554 695T569 660Q569 638 552 622T511 605ZM707 605Q686 605 672 619T658 655Q658 676 675 693T715 710Q735 710
750 695T765 660Q765 638 748 622T707 605Z" />
<glyph unicode="&#xec;" d="M371 -10Q298 -10 263 25T243 132L310 438H127L136 481H368L292 130Q280 75 304 54T379 33Q400 33 420 37T465 50L455 5Q435 -2 415 -6T371 -10ZM610 579L480 695H555L658 579H610Z" />
<glyph unicode="&#xed;" d="M371 -10Q298 -10 263 25T243 132L310 438H127L136 481H368L292 130Q280 75 304 54T379 33Q400 33 420 37T465 50L455 5Q435 -2 415 -6T371 -10ZM575 579L701 695H777L625 579H575Z" />
<glyph unicode="&#xee;" d="M371 -10Q298 -10 263 25T243 132L310 438H127L136 481H368L292 130Q280 75 304 54T379 33Q400 33 420 37T465 50L455 5Q435 -2 415 -6T371 -10ZM482 574L614 695H671L755 574H715L638 663L525 574H482Z" />
<glyph unicode="&#xef;" d="M371 -10Q298 -10 263 25T243 132L310 438H127L136 481H368L292 130Q280 75 304 54T379 33Q400 33 420 37T465 50L455 5Q435 -2 415 -6T371 -10ZM529 605Q508 605 494 619T480 655Q480 676 497 693T537 710Q557 710 572 695T587 660Q587
638 570 622T529 605ZM725 605Q704 605 690 619T676 655Q676 676 693 693T733 710Q753 710 768 695T783 660Q783 638 766 622T725 605Z" />
<glyph unicode="&#xf0;" d="M268 -10Q209 -10 164 17T92 93T66 205Q66 282 99 344T188 443T313 480Q387 480 439 439T504 332Q519 506 442 609L328 553L314 590L416 639Q397 659 374 674T324 700L347 737Q380 723 407 704T457 660L575 717L587 680L482 629Q548
535 548 389Q548 301 528 228T470 101T382 19T268 -10ZM272 35Q328 35 374 67T449 151T478 263Q478 314 457 353T400 415T317 438Q262 438 216 407T143 323T115 209Q115 158 135 119T190 57T272 35Z" />
<glyph unicode="&#xf1;" d="M59 0L162 481H211L197 415Q231 454 269 471T355 489Q410 489 447 463T500 392T502 286L441 0H392L453 283Q469 357 438 401T344 445Q246 445 187 367L108 0H59ZM263 582L223 593Q266 679 322 679Q344 679 362 670T397 649T428 628T459
619Q475 619 486 631T512 677L553 666Q512 580 457 580Q435 580 417 589T382 609T351 630T320 639Q303 639 290 626T263 582Z" />
<glyph unicode="&#xf2;" d="M266 -10Q210 -10 167 17T99 91T74 201Q74 260 94 312T151 404T234 466T334 489Q390 489 433 462T501 388T526 278Q526 219 506 167T449 75T366 13T266 -10ZM268 36Q325 36 372 68T448 156T477 277Q477 351 437 397T332 443Q275 443
228 411T152 324T123 202Q123 129 163 83T268 36ZM601 830L471 946H546L649 830H601Z" />
<glyph unicode="&#xf3;" d="M266 -10Q210 -10 167 17T99 91T74 201Q74 260 94 312T151 404T234 466T334 489Q390 489 433 462T501 388T526 278Q526 219 506 167T449 75T366 13T266 -10ZM268 36Q325 36 372 68T448 156T477 277Q477 351 437 397T332 443Q275 443
228 411T152 324T123 202Q123 129 163 83T268 36ZM566 830L692 946H768L616 830H566Z" />
<glyph unicode="&#xf4;" d="M266 -10Q210 -10 167 17T99 91T74 201Q74 260 94 312T151 404T234 466T334 489Q390 489 433 462T501 388T526 278Q526 219 506 167T449 75T366 13T266 -10ZM268 36Q325 36 372 68T448 156T477 277Q477 351 437 397T332 443Q275 443
228 411T152 324T123 202Q123 129 163 83T268 36ZM473 825L605 946H662L746 825H706L629 914L516 825H473Z" />
<glyph unicode="&#xf5;" d="M266 -10Q210 -10 167 17T99 91T74 201Q74 260 94 312T151 404T234 466T334 489Q390 489 433 462T501 388T526 278Q526 219 506 167T449 75T366 13T266 -10ZM268 36Q325 36 372 68T448 156T477 277Q477 351 437 397T332 443Q275 443
228 411T152 324T123 202Q123 129 163 83T268 36ZM497 833L457 844Q500 930 556 930Q578 930 596 921T631 900T662 879T693 870Q709 870 720 882T746 928L787 917Q746 831 691 831Q669 831 651 840T616 860T585 881T554 890Q537 890 524 877T497 833Z" />
<glyph unicode="&#xf6;" d="M266 -10Q210 -10 167 17T99 91T74 201Q74 260 94 312T151 404T234 466T334 489Q390 489 433 462T501 388T526 278Q526 219 506 167T449 75T366 13T266 -10ZM268 36Q325 36 372 68T448 156T477 277Q477 351 437 397T332 443Q275 443
228 411T152 324T123 202Q123 129 163 83T268 36ZM520 856Q499 856 485 870T471 906Q471 927 488 944T528 961Q548 961 563 946T578 911Q578 889 561 873T520 856ZM716 856Q695 856 681 870T667 906Q667 927 684 944T724 961Q744 961 759 946T774 911Q774 889 757
873T716 856Z" />
<glyph unicode="&#xf7;" d="M130 335L140 380H521L511 335H130ZM280 142Q265 142 254 152T243 176Q243 197 258 212T294 228Q309 228 320 218T331 194Q331 173 316 158T280 142ZM354 490Q339 490 328 500T317 524Q317 545 332 560T368 576Q383 576 394 566T405
542Q405 521 390 506T354 490Z" />
<glyph unicode="&#xf8;" d="M266 -10Q229 -10 197 3T139 38L103 0H46L112 70Q94 96 84 129T74 201Q74 260 94 312T151 404T234 466T334 489Q372 489 403 477T460 442L497 481H554L488 410Q506 384 516 351T526 278Q526 219 506 167T449 75T366 13T266 -10ZM146
107L427 407Q389 443 332 443Q275 443 228 411T152 324T123 202Q123 147 146 107ZM268 36Q325 36 372 68T448 156T477 277Q477 305 471 329T453 374L172 73Q209 36 268 36Z" />
<glyph unicode="&#xf9;" d="M247 -8Q192 -8 155 18T104 90T101 195L162 481H211L150 198Q134 125 164 81T258 36Q353 36 414 115L492 481H541L438 0H389L403 68Q370 28 332 10T247 -8ZM362 579L232 695H307L410 579H362Z" />
<glyph unicode="&#xfa;" d="M247 -8Q192 -8 155 18T104 90T101 195L162 481H211L150 198Q134 125 164 81T258 36Q353 36 414 115L492 481H541L438 0H389L403 68Q370 28 332 10T247 -8ZM327 579L453 695H529L377 579H327Z" />
<glyph unicode="&#xfb;" d="M247 -8Q192 -8 155 18T104 90T101 195L162 481H211L150 198Q134 125 164 81T258 36Q353 36 414 115L492 481H541L438 0H389L403 68Q370 28 332 10T247 -8ZM234 574L366 695H423L507 574H467L390 663L277 574H234Z" />
<glyph unicode="&#xfc;" d="M247 -8Q192 -8 155 18T104 90T101 195L162 481H211L150 198Q134 125 164 81T258 36Q353 36 414 115L492 481H541L438 0H389L403 68Q370 28 332 10T247 -8ZM281 605Q260 605 246 619T232 655Q232 676 249 693T289 710Q309 710 324 695T339
660Q339 638 322 622T281 605ZM477 605Q456 605 442 619T428 655Q428 676 445 693T485 710Q505 710 520 695T535 660Q535 638 518 622T477 605Z" />
<glyph unicode="&#xfd;" d="M65 -219Q50 -219 33 -215T-5 -204L5 -155Q22 -165 36 -169T66 -173Q92 -173 112 -158T154 -108L215 -7L118 481H167L253 56L519 481H575L197 -127Q175 -163 156 -183T116 -211T65 -219ZM575 579L701 695H777L625 579H575Z" />
<glyph unicode="&#xfe;" d="M5 -209L205 725L257 737L192 429Q220 457 255 472T338 487Q396 487 440 459T510 380T536 266Q536 209 516 160T462 73T381 14T283 -8Q231 -8 190 14T116 77L54 -209H5ZM280 38Q338 38 385 68T459 148T487 261Q487 342 441 391T322
441Q279 441 245 427T182 384L127 127Q147 88 189 63T280 38Z" />
<glyph unicode="&#xff;" d="M65 -219Q50 -219 33 -215T-5 -204L5 -155Q22 -165 36 -169T66 -173Q92 -173 112 -158T154 -108L215 -7L118 481H167L253 56L519 481H575L197 -127Q175 -163 156 -183T116 -211T65 -219ZM529 605Q508 605 494 619T480 655Q480 676 497
693T537 710Q557 710 572 695T587 660Q587 638 570 622T529 605ZM725 605Q704 605 690 619T676 655Q676 676 693 693T733 710Q753 710 768 695T783 660Q783 638 766 622T725 605Z" />
<glyph unicode="&#x2013;" d="M95 258L105 302H522L513 258H95Z" />
<glyph unicode="&#x2014;" d="M19 258L29 302H598L589 258H19Z" />
<glyph unicode="&#x2018;" d="M488 750L396 538H321L446 750H488Z" />
<glyph unicode="&#x2019;" d="M321 538L413 750H488L363 538H321Z" />
<glyph unicode="&#x201a;" d="M137 -152L229 60H304L179 -152H137Z" />
<glyph unicode="&#x201c;" d="M384 750L292 538H217L342 750H384ZM531 750L439 538H364L489 750H531Z" />
<glyph unicode="&#x201d;" d="M387 538L479 750H554L429 538H387ZM240 538L332 750H407L282 538H240Z" />
<glyph unicode="&#x201e;" d="M218 -152L310 60H385L260 -152H218ZM327 -152L419 60H494L369 -152H327Z" />
<glyph unicode="&#x2022;" d="M316 266Q292 266 273 277T242 308T231 352Q231 379 246 403T285 441T336 456Q361 456 380 445T410 414T421 370Q421 343 406 319T368 281T316 266Z" />
<glyph unicode="&#x2039;" d="M333 0L164 241L426 481H489L224 236L386 0H333Z" />
<glyph unicode="&#x203a;" d="M267 481L436 240L174 0H111L376 245L214 481H267Z" />
</font>
</defs>
</svg>
