<?xml version="1.0" standalone="no"?>
<!DOCTYPE svg PUBLIC "-//W3C//DTD SVG 1.1//EN" "http://www.w3.org/Graphics/SVG/1.1/DTD/svg11.dtd">
<svg xmlns="http://www.w3.org/2000/svg">
<defs >
<font id="RedHatText" horiz-adv-x="530" ><font-face
    font-family="Red Hat Text"
    units-per-em="1000"
    panose-1="2 1 3 3 4 2 1 6 3 3"
    ascent="1018"
    descent="-305"
    alphabetic="0" />
<glyph unicode=" " horiz-adv-x="233" />
<glyph unicode="!" horiz-adv-x="222" d="M82 205L73 727H148L139 205H82ZM111 -8Q89 -8 74 7T58 45Q58 68 73 83T111 98Q133 98 148 83T164 45Q164 23 149 8T111 -8Z" />
<glyph unicode="&quot;" horiz-adv-x="356" d="M81 530L70 750H143L133 530H81ZM224 530L213 750H286L276 530H224Z" />
<glyph unicode="#" horiz-adv-x="690" d="M66 0L141 219H44V277H161L211 423H92V481H231L306 700H372L297 481H484L559 700H625L550 481H646V423H530L480 277H598V219H460L385 0H319L394 219H207L132 0H66ZM227 277H414L464 423H277L227 277Z" />
<glyph unicode="$" horiz-adv-x="550" d="M253 -67V22Q197 26 143 46T45 101L81 155Q122 124 165 106T253 83V330L202 344Q126 367 90 406T53 505Q53 581 107 628T253 679V767H301V677Q351 672 398 652T487 598L450 546Q381 603 301 615V384L352 369Q433 345 468
307T504 206Q504 155 479 115T408 50T301 22V-67H253ZM253 398V618Q192 616 157 587T121 510Q121 472 145 448T225 406L253 398ZM301 83Q362 88 398 119T435 200Q435 239 412 262T328 307L301 316V83Z" />
<glyph unicode="%" horiz-adv-x="739" d="M175 345Q110 345 70 395T29 525Q29 605 69 655T175 705Q240 705 280 655T321 525Q321 445 281 395T175 345ZM175 390Q219 390 245 426T271 525Q271 587 245 623T175 660Q132 660 106 624T79 525Q79 463 105 427T175 390ZM144
0L537 700H595L201 0H144ZM565 -5Q500 -5 460 45T419 175Q419 255 459 305T565 355Q630 355 670 305T711 175Q711 95 671 45T565 -5ZM565 40Q609 40 635 76T661 175Q661 237 635 273T565 310Q522 310 496 274T469 175Q469 113 495 77T565 40Z" />
<glyph unicode="&amp;" horiz-adv-x="669" d="M265 -11Q196 -11 144 14T63 83T34 188Q34 250 68 296T189 389Q154 433 140 469T125 546Q125 594 147 631T207 689T294 711Q340 711 375 693T431 642T452 566Q452 517 425 478T340 405L290 375Q331 329 380 281T480
186Q505 226 521 274T548 374L616 363Q603 299 582 244T530 141Q562 113 594 88T654 40L609 -13Q581 9 551 33T489 84Q400 -11 265 -11ZM251 421L308 454Q345 476 363 503T382 564Q382 602 356 626T292 651Q250 651 223 623T195 547Q195 516 207 488T251 421ZM268
52Q318 52 362 71T440 128Q382 181 327 235T228 341Q182 316 155 294T116 247T104 190Q104 127 149 90T268 52Z" />
<glyph unicode="&apos;" horiz-adv-x="214" d="M81 530L70 750H143L133 530H81Z" />
<glyph unicode="(" horiz-adv-x="401" d="M312 -219Q236 -171 183 -102T103 56T75 246Q75 349 102 437T183 594T312 712L350 661Q252 600 199 492T145 246Q145 108 198 0T350 -169L312 -219Z" />
<glyph unicode=")" horiz-adv-x="401" d="M89 711Q165 663 218 594T298 436T326 246Q326 143 299 55T218 -102T89 -220L51 -169Q149 -108 202 0T256 246Q256 384 203 492T51 661L89 711Z" />
<glyph unicode="*" horiz-adv-x="455" d="M201 341L203 479L91 406L62 451L180 524L66 596L94 640L202 569L201 700H253L252 570L359 640L389 596L274 524L393 451L363 406L251 479L253 341H201Z" />
<glyph unicode="+" horiz-adv-x="600" d="M269 145V326H102V386H269V567H331V386H498V326H331V145H269Z" />
<glyph unicode="," horiz-adv-x="250" d="M50 -157L110 74H188L107 -157H50Z" />
<glyph unicode="-" horiz-adv-x="455" d="M61 250V313H394V250H61Z" />
<glyph unicode="." horiz-adv-x="250" d="M125 -8Q103 -8 88 8T72 46Q72 69 87 84T125 100Q147 100 162 85T178 46Q178 24 163 8T125 -8Z" />
<glyph unicode="/" horiz-adv-x="466" d="M-48 -209L351 700H424L24 -209H-48Z" />
<glyph unicode="0" horiz-adv-x="660" d="M330 -11Q250 -11 189 35T92 162T57 350Q57 457 92 538T188 665T330 711Q410 711 471 665T568 538T603 350Q603 244 568 163T472 35T330 -11ZM330 54Q391 54 435 90T505 193T530 350Q530 440 505 506T436 609T330 646Q270
646 225 610T155 507T130 350Q130 260 155 194T225 91T330 54Z" />
<glyph unicode="1" horiz-adv-x="307" d="M153 0V622L41 572V638L180 700H225V0H153Z" />
<glyph unicode="2" horiz-adv-x="548" d="M307 0V53L587 359Q620 395 638 422T664 474T672 525Q672 578 631 612T525 647Q476 647 434 628T340 562L298 612Q353 662 409 686T526 711Q589 711 638 688T715 623T743 529Q743 494 734 465T702 402T636 321L397 62L758
63V0H307Z" />
<glyph unicode="3" horiz-adv-x="586" d="M538 -11Q466 -11 404 14T293 88L341 135Q385 91 431 72T537 52Q588 52 627 70T689 120T711 193Q711 232 692 262T638 310T560 327H477V389H557Q614 389 649 424T685 515Q685 552 665 582T611 629T533 647Q479 647 437
628T350 562L302 610Q349 660 408 685T534 711Q598 711 648 686T728 618T757 519Q757 464 721 421T626 360Q697 344 740 298T783 191Q783 133 752 87T665 15T538 -11Z" />
<glyph unicode="4" horiz-adv-x="618" d="M417 0V187H39V244L411 700H488V250H585V187H488V0H417ZM123 250H417V613L123 250Z" />
<glyph unicode="5" horiz-adv-x="570" d="M531 -11Q393 -11 293 84L338 133Q384 90 429 71T532 51Q583 51 622 72T682 131T704 218Q704 288 657 331T532 374Q492 374 454 365T375 334L325 350L341 700H739V637H403L392 395Q432 415 469 423T547 432Q616 432 667
406T747 332T776 221Q776 152 745 100T659 19T531 -11Z" />
<glyph unicode="6" horiz-adv-x="619" d="M331 -10Q250 -10 189 33T92 151T57 326Q57 442 96 528T206 663T371 711Q415 711 458 699T535 664L499 608Q468 626 434 636T365 646Q293 646 241 609T160 501T129 333Q168 383 222 411T334 439Q402 439 455 411T538 334T568
221Q568 155 537 103T453 20T331 -10ZM324 380Q269 380 219 353T131 277Q139 210 165 160T234 81T330 53Q378 53 415 74T474 134T496 219Q496 266 474 302T414 359T324 380Z" />
<glyph unicode="7" horiz-adv-x="558" d="M359 0L707 637H287V700H785V644L441 0H359Z" />
<glyph unicode="8" horiz-adv-x="614" d="M307 -11Q235 -11 179 15T91 86T58 189Q58 232 79 268T137 331T223 369Q162 386 124 430T85 529Q85 581 114 622T193 687T307 711Q371 711 421 687T500 622T529 529Q529 474 491 430T391 369Q464 352 510 303T556 189Q556
132 524 87T436 15T307 -11ZM307 399Q350 399 384 416T439 461T459 526Q459 562 439 591T385 636T307 653Q264 653 230 637T175 591T155 526Q155 490 175 462T229 416T307 399ZM307 47Q358 47 398 66T461 118T485 192Q485 233 462 266T398 318T307 337Q256 337
216 318T153 266T129 192Q129 151 152 118T216 66T307 47Z" />
<glyph unicode="9" horiz-adv-x="619" d="M288 711Q369 711 430 668T527 550T562 375Q562 259 523 173T414 38T248 -10Q205 -10 162 2T84 37L120 93Q151 75 185 65T254 55Q326 55 378 92T460 200T490 368Q451 318 397 290T285 262Q217 262 164 290T81 368T51 480Q51
547 82 599T166 681T288 711ZM295 321Q350 321 400 348T488 424Q481 492 454 542T385 620T289 648Q241 648 204 627T145 568T123 482Q123 435 145 399T205 342T295 321Z" />
<glyph unicode=":" horiz-adv-x="250" d="M125 -8Q103 -8 88 8T72 46Q72 69 87 84T125 100Q147 100 162 85T178 46Q178 24 163 8T125 -8ZM125 389Q103 389 88 405T72 443Q72 466 87 481T125 497Q147 497 162 482T178 443Q178 421 163 405T125 389Z" />
<glyph unicode=";" horiz-adv-x="250" d="M133 389Q111 389 96 405T80 443Q80 466 95 481T133 497Q155 497 170 482T186 443Q186 421 171 405T133 389ZM299 -157L359 74H437L356 -157H299Z" />
<glyph unicode="&lt;" horiz-adv-x="600" d="M423 103L107 349L424 594L461 547L200 350L461 151L423 103Z" />
<glyph unicode="=" horiz-adv-x="600" d="M102 501V561H498V501H102ZM102 408V468H498V408H102Z" />
<glyph unicode="&gt;" horiz-adv-x="600" d="M177 594L493 348L176 103L139 150L400 347L139 546L177 594Z" />
<glyph unicode="?" horiz-adv-x="512" d="M193 207Q191 249 197 280T222 336T271 385L313 416Q354 448 371 474T388 534Q388 565 370 589T321 627T251 642Q204 642 163 619T90 552L34 590Q75 647 131 677T254 708Q313 708 359 686T432 624T459 535Q459 501 449
474T414 420T347 363L315 339Q281 314 267 283T256 207H193ZM226 -8Q204 -8 189 7T173 45Q173 68 188 83T226 98Q248 98 263 83T278 45Q278 23 263 8T226 -8Z" />
<glyph unicode="@" horiz-adv-x="767" d="M398 -144Q325 -144 263 -118T154 -44T82 68T56 207Q56 286 81 353T152 471T260 548T394 576Q462 576 519 553T620 489T687 391T711 269Q711 208 689 160T629 83T543 55Q479 55 454 96Q406 51 353 51Q314 51 283 71T234
125T216 202Q216 251 238 291T297 355T378 379Q406 379 430 369T473 341L478 366H533L496 174Q489 138 503 119T549 99Q582 99 608 121T650 181T665 267Q665 343 630 403T532 497T392 532Q331 532 279 508T187 439T125 336T103 209Q103 120 141 51T247 -59T401
-99Q445 -99 485 -89T562 -58L579 -99Q539 -121 493 -132T398 -144ZM365 98Q408 98 441 133Q440 144 440 155T443 179L463 285Q450 307 427 319T377 331Q348 331 324 314T285 269T270 206Q270 158 296 128T365 98Z" />
<glyph unicode="A" horiz-adv-x="660" d="M9 0L286 700H378L651 0H568L485 220H173L90 0H9ZM197 281H462L329 630L197 281Z" />
<glyph unicode="B" horiz-adv-x="669" d="M89 0V700H372Q436 700 483 678T557 616T583 522Q583 464 550 423T459 364Q529 348 569 304T610 194Q610 136 582 92T503 24T383 0H89ZM166 394H366Q430 394 468 426T506 514Q506 569 468 601T366 634H166V394ZM166 66H375Q446
66 489 102T532 199Q532 259 490 295T375 331H166V66Z" />
<glyph unicode="C" horiz-adv-x="726" d="M412 -11Q337 -11 273 16T159 93T83 208T56 350Q56 426 83 491T159 606T272 683T412 711Q464 711 511 698T601 659T676 596L625 543Q586 590 530 615T412 641Q353 641 302 619T214 557T155 465T134 350Q134 289 155 236T213
143T302 81T412 59Q473 59 529 85T625 157L676 104Q643 67 601 42T512 3T412 -11Z" />
<glyph unicode="D" horiz-adv-x="728" d="M166 69H326Q402 69 462 106T557 206T593 350Q593 430 558 493T462 594T326 631H166V69ZM89 0V700H321Q398 700 462 674T573 600T645 489T671 350Q671 275 646 212T574 101T463 27T321 0H89Z" />
<glyph unicode="E" horiz-adv-x="619" d="M89 0V700H567V632H166V387H444V320H166V68H571V0H89Z" />
<glyph unicode="F" horiz-adv-x="610" d="M89 0V700H567V632H166V382H440V315H166V0H89Z" />
<glyph unicode="G" horiz-adv-x="799" d="M410 -11Q335 -11 271 17T159 94T83 209T56 350Q56 425 83 490T158 605T271 683T410 711Q490 711 561 682T683 596L631 544Q592 591 533 616T410 641Q351 641 301 619T214 557T155 464T134 350Q134 289 155 236T213 144T301
82T410 59Q480 59 535 90T625 175T666 298H430V366H744V335Q744 262 719 200T649 90T542 16T410 -11Z" />
<glyph unicode="H" horiz-adv-x="732" d="M88 0V700H165V387H567V700H644V0H567V318H165V0H88Z" />
<glyph unicode="I" horiz-adv-x="253" d="M88 0V700H165V0H88Z" />
<glyph unicode="J" horiz-adv-x="600" d="M267 -11Q178 -11 113 36T18 168L88 196Q113 129 158 94T268 59Q350 59 399 115T448 265V700H525V264Q525 180 494 118T404 23T267 -11Z" />
<glyph unicode="K" horiz-adv-x="610" d="M89 0V700H166V368L506 700H604L247 356L612 0H507L166 335V0H89Z" />
<glyph unicode="L" horiz-adv-x="607" d="M89 0V700H166V68H561V0H89Z" />
<glyph unicode="M" horiz-adv-x="860" d="M89 0V700H196L430 202L664 700H771V0H698V609L430 50L161 611V0H89Z" />
<glyph unicode="N" horiz-adv-x="739" d="M89 0V700H169L579 120L577 700H650V0H580L160 593L162 0H89Z" />
<glyph unicode="O" horiz-adv-x="810" d="M405 -11Q332 -11 269 16T159 93T84 208T57 350Q57 426 84 491T158 606T269 683T405 711Q478 711 541 684T651 607T726 492T753 350Q753 274 726 209T652 94T541 17T405 -11ZM405 59Q462 59 511 81T597 143T654 236T675
350Q675 412 655 464T597 557T511 619T405 641Q348 641 299 619T213 557T156 465T135 351Q135 289 155 236T213 143T299 81T405 59Z" />
<glyph unicode="P" horiz-adv-x="654" d="M89 0V700H378Q446 700 496 675T573 603T601 493Q601 431 574 384T496 312T378 286H166V0H89ZM166 352H369Q442 352 483 390T524 493Q524 558 483 595T369 632H166V352Z" />
<glyph unicode="Q" horiz-adv-x="810" d="M643 -24L588 42Q548 17 502 3T405 -11Q332 -11 269 16T159 93T84 208T57 350Q57 426 84 491T158 606T269 683T405 711Q478 711 541 684T651 607T726 492T753 350Q753 271 723 202T642 84L722 -13L643 -24ZM405 59Q443
59 477 69T542 97L440 218L519 230L594 140Q632 180 653 233T675 350Q675 412 655 464T597 557T511 619T405 641Q348 641 299 619T213 557T156 465T135 350Q135 289 155 236T213 143T299 81T405 59Z" />
<glyph unicode="R" horiz-adv-x="647" d="M89 0V700H376Q443 700 493 675T571 604T599 498Q599 428 560 379T453 309L602 0H517L375 299H166V0H89ZM166 363H370Q439 363 480 399T522 497Q522 559 481 595T370 632H166V363Z" />
<glyph unicode="S" horiz-adv-x="623" d="M315 -11Q233 -11 163 18T28 108L75 164Q138 105 193 80T317 55Q371 55 413 73T480 124T504 197Q504 250 469 277T348 320L235 339Q139 356 95 397T50 509Q50 568 80 613T165 685T290 711Q368 711 435 690T567 622L527
562Q473 603 413 624T291 646Q242 646 205 629T146 583T124 517Q124 471 155 445T256 408L368 389Q480 369 530 325T581 201Q581 140 547 92T452 17T315 -11Z" />
<glyph unicode="T" horiz-adv-x="617" d="M270 0V632H28V700H589V632H347V0H270Z" />
<glyph unicode="U" horiz-adv-x="712" d="M356 -11Q270 -11 207 26T109 133T75 296V700H152V296Q152 224 177 171T248 89T356 59Q418 59 464 88T535 171T560 296V700H637V296Q637 202 603 133T506 27T356 -11Z" />
<glyph unicode="V" horiz-adv-x="660" d="M283 0L9 700H91L331 74L572 700H651L375 0H283Z" />
<glyph unicode="W" horiz-adv-x="897" d="M193 0L42 700H120L239 121L412 700H487L660 123L780 700H855L704 0H626L449 594L271 0H193Z" />
<glyph unicode="X" horiz-adv-x="654" d="M11 0L281 362L28 700H120L329 419L536 700H626L373 361L643 0H550L326 305L101 0H11Z" />
<glyph unicode="Y" horiz-adv-x="646" d="M284 0V286L12 700H102L325 353L549 700H634L361 284V0H284Z" />
<glyph unicode="Z" horiz-adv-x="605" d="M37 0V54L467 635L40 633V700H564V646L133 65L572 67V0H37Z" />
<glyph unicode="[" horiz-adv-x="361" d="M69 -215V700H310V640H139V-155H310V-215H69Z" />
<glyph unicode="\" horiz-adv-x="471" d="M443 -209L43 700H119L519 -209H443Z" />
<glyph unicode="]" horiz-adv-x="361" d="M292 700V-215H51V-155H222V640H51V700H292Z" />
<glyph unicode="^" horiz-adv-x="600" d="M91 350L268 700H332L509 350H443L300 634L157 350H91Z" />
<glyph unicode="_" horiz-adv-x="457" d="M-1 -137V-80H458V-137H-1Z" />
<glyph unicode="`" horiz-adv-x="600" d="M294 584L150 706H253L365 584H294Z" />
<glyph unicode="a" horiz-adv-x="526" d="M226 -9Q174 -9 134 10T72 62T49 140Q49 184 72 216T136 267T232 285Q274 285 311 276T381 247V314Q381 374 349 404T255 435Q221 435 186 425T107 393L80 449Q178 496 264 496Q355 496 404 452T453 324V0H381V57Q349
24 310 8T226 -9ZM119 142Q119 99 152 73T241 47Q282 47 316 61T381 103V197Q350 215 317 223T243 232Q187 232 153 208T119 142Z" />
<glyph unicode="b" horiz-adv-x="583" d="M75 0V715L148 730V421Q176 456 216 475T305 494Q369 494 419 461T500 371T530 244Q530 174 500 117T418 27T301 -7Q255 -7 216 11T147 64V0H75ZM287 56Q336 56 374 80T435 147T458 243Q458 297 436 339T375 405T287 430Q244
430 208 413T148 363V124Q172 92 208 74T287 56Z" />
<glyph unicode="c" horiz-adv-x="509" d="M294 -8Q226 -8 172 25T85 116T53 244Q53 315 85 372T171 462T294 496Q348 496 397 476T482 420L435 369Q409 398 372 414T297 430Q249 430 211 405T149 338T126 244Q126 192 149 150T210 83T297 58Q335 58 372 74T435
119L482 68Q446 32 397 12T294 -8Z" />
<glyph unicode="d" horiz-adv-x="582" d="M278 -7Q215 -7 164 26T83 116T53 243Q53 314 83 370T166 460T282 494Q327 494 366 477T434 426V722L507 737V0H434V65Q406 30 366 12T278 -7ZM296 57Q339 57 375 74T434 122V364Q410 395 374 412T296 430Q247 430 209
406T148 340T125 244Q125 191 147 149T208 82T296 57Z" />
<glyph unicode="e" horiz-adv-x="557" d="M295 -10Q227 -10 172 23T85 114T53 244Q53 316 83 373T166 463T283 496Q347 496 397 464T477 376T507 250V228H124Q128 178 151 139T213 77T298 54Q336 54 371 67T432 104L478 55Q436 22 391 6T295 -10ZM126 280H435Q430
324 409 358T355 413T282 433Q242 433 209 414T155 360T126 280Z" />
<glyph unicode="f" horiz-adv-x="370" d="M137 0V428H28V488H137V590Q137 662 175 701T283 740Q303 740 319 738T349 731V665Q333 670 320 672T290 674Q248 674 229 654T210 589V488H349V428H210V0H137Z" />
<glyph unicode="g" horiz-adv-x="582" d="M301 -219Q252 -219 203 -206T111 -168L142 -112Q187 -135 224 -146T298 -157Q365 -157 399 -125T434 -32V66Q406 31 366 13T278 -6Q215 -6 164 27T83 117T53 244Q53 314 83 370T166 460T282 494Q328 494 367 477T435
425V488H507V-31Q507 -122 454 -170T301 -219ZM296 57Q339 57 375 74T434 123V364Q410 395 374 412T296 430Q247 430 209 406T148 340T125 244Q125 191 147 149T208 82T296 57Z" />
<glyph unicode="h" horiz-adv-x="552" d="M75 0V722L148 737V409Q176 453 215 474T303 496Q356 496 395 474T457 411T480 316V0H407V295Q407 360 372 397T276 435Q236 435 203 416T148 360V0H75Z" />
<glyph unicode="i" horiz-adv-x="222" d="M74 0V488H147V0H74ZM111 609Q89 609 74 624T58 661Q58 682 73 697T111 713Q133 713 148 698T164 661Q164 640 149 625T111 609Z" />
<glyph unicode="j" horiz-adv-x="223" d="M112 609Q90 609 75 624T59 661Q59 682 74 697T112 713Q134 713 149 698T165 661Q165 640 150 625T112 609ZM25 -219Q13 -219 2 -217T-20 -213V-150Q-11 -152 -3 -153T16 -154Q48 -154 61 -139T75 -90V488H148V-94Q148
-153 117 -186T25 -219Z" />
<glyph unicode="k" horiz-adv-x="489" d="M75 0V722L148 737V269L380 488H468L220 256L479 0H383L148 233V0H75Z" />
<glyph unicode="l" horiz-adv-x="223" d="M75 0V722L148 737V0H75Z" />
<glyph unicode="m" horiz-adv-x="845" d="M75 0V488H148V412Q176 454 212 475T293 496Q345 496 384 471T443 401Q472 448 512 472T606 496Q655 496 692 473T751 410T772 315V0H699V297Q699 361 667 398T579 435Q541 435 511 416T457 358Q459 348 460 337T461 315V0H388V297Q388
361 356 398T267 435Q192 435 148 363V0H75Z" />
<glyph unicode="n" horiz-adv-x="552" d="M75 0V488H148V409Q176 453 215 474T303 496Q356 496 395 474T457 411T480 316V0H407V295Q407 360 372 397T276 435Q236 435 203 416T148 360V0H75Z" />
<glyph unicode="o" horiz-adv-x="580" d="M291 -8Q223 -8 169 25T84 115T53 244Q53 316 84 373T169 463T291 496Q358 496 411 463T496 373T527 244Q527 172 496 115T412 25T291 -8ZM290 56Q338 56 375 80T433 148T455 244Q455 298 434 340T375 407T290 432Q242
432 205 408T147 341T125 244Q125 191 146 148T205 81T290 56Z" />
<glyph unicode="p" horiz-adv-x="583" d="M75 -209V488H147V418Q175 455 215 474T305 494Q369 494 419 461T500 371T530 244Q530 174 500 117T418 27T301 -7Q255 -7 216 10T148 61V-209H75ZM287 56Q336 56 374 80T435 147T458 243Q458 297 436 339T375 405T287
430Q244 430 208 413T148 363V124Q172 92 208 74T287 56Z" />
<glyph unicode="q" horiz-adv-x="582" d="M434 -209V65Q406 30 366 12T278 -7Q215 -7 164 26T83 116T53 243Q53 314 83 370T166 460T282 494Q327 494 366 477T434 426V488H507V-209H434ZM296 57Q339 57 375 74T434 122V364Q410 395 374 412T296 430Q247 430 209
406T148 340T125 244Q125 191 147 149T208 82T296 57Z" />
<glyph unicode="r" horiz-adv-x="352" d="M75 0V488H148V388Q167 439 202 467T284 496Q297 496 308 495T330 489V423Q318 427 305 429T279 432Q234 432 201 406T148 333V0H75Z" />
<glyph unicode="s" horiz-adv-x="452" d="M226 -10Q166 -10 115 8T28 62L67 110Q111 78 148 64T224 49Q277 49 312 74T347 138Q347 168 327 185T259 211L179 225Q108 238 75 269T41 353Q41 395 63 427T126 477T217 496Q267 496 312 482T403 435L367 384Q329 411
291 423T214 436Q166 436 137 415T108 358Q108 328 126 312T192 288L274 273Q348 260 382 228T416 142Q416 99 391 65T323 10T226 -10Z" />
<glyph unicode="t" horiz-adv-x="378" d="M261 -10Q198 -10 166 20T133 109V428H32V488H133V622L206 639V488H346V428H206V128Q206 89 222 72T277 55Q296 55 311 58T346 68V3Q326 -4 304 -7T261 -10Z" />
<glyph unicode="u" horiz-adv-x="552" d="M249 -8Q197 -8 157 15T95 79T72 173V488H146V194Q146 129 181 91T276 53Q317 53 349 72T404 127V488H477V0H404V79Q376 36 338 14T249 -8Z" />
<glyph unicode="v" horiz-adv-x="501" d="M215 0L15 488H94L252 91L408 488H486L285 0H215Z" />
<glyph unicode="w" horiz-adv-x="698" d="M162 0L28 488H99L201 98L318 488H383L500 98L601 488H670L537 0H466L350 394L234 0H162Z" />
<glyph unicode="x" horiz-adv-x="487" d="M13 0L200 253L24 488H111L246 302L380 488H463L286 251L474 0H387L241 199L96 0H13Z" />
<glyph unicode="y" horiz-adv-x="498" d="M96 -219Q73 -219 49 -212V-147Q59 -149 70 -150T89 -151Q117 -151 135 -136T167 -89L203 0L15 488H96L244 87L401 488H482L236 -111Q220 -150 201 -174T157 -208T96 -219Z" />
<glyph unicode="z" horiz-adv-x="459" d="M41 0V58L322 422L44 421V488H411V431L129 65L415 66V0H41Z" />
<glyph unicode="{" horiz-adv-x="394" d="M265 -219Q210 -219 176 -193T133 -122T146 -20L186 81Q208 138 188 176T116 215H42V276H116Q168 276 188 314T186 410L146 512Q124 569 132 614T175 685T265 711Q285 711 303 708T342 696L328 640Q312 646 298 648T269
651Q238 651 220 635T199 592T208 529L254 406Q268 370 262 337T234 280T177 246Q213 236 234 212T261 155T254 85L208 -37Q195 -72 198 -99T220 -142T269 -159Q284 -159 298 -157T328 -148L342 -204Q321 -212 303 -215T265 -219Z" />
<glyph unicode="|" horiz-adv-x="291" d="M112 -209V700H179V-209H112Z" />
<glyph unicode="}" horiz-adv-x="394" d="M129 711Q184 711 218 685T261 614T248 512L208 411Q186 354 206 316T278 277H352V216H278Q226 216 206 178T208 82L248 -20Q270 -77 262 -122T219 -193T129 -219Q109 -219 91 -216T52 -204L66 -148Q82 -154 96 -156T125
-159Q156 -159 174 -143T195 -100T186 -37L140 86Q126 122 132 155T160 212T217 246Q181 256 160 280T133 337T140 407L186 529Q199 564 196 591T174 634T125 651Q110 651 96 649T66 640L52 696Q73 704 91 707T129 711Z" />
<glyph unicode="~" horiz-adv-x="600" d="M120 301L63 308Q71 378 103 416T184 454Q203 454 223 448T272 425L347 385Q371 373 385 368T411 363Q470 363 481 454L537 447Q530 377 498 339T417 301Q398 301 377 307T328 329L253 369Q228 383 215 387T189 392Q132
392 120 301Z" />
<glyph unicode="&#xa0;" horiz-adv-x="233" />
<glyph unicode="&#xa1;" horiz-adv-x="222" d="M140 284L149 -238H74L83 284H140ZM111 497Q133 497 148 482T164 444Q164 421 149 406T111 391Q89 391 74 406T58 444Q58 466 73 481T111 497Z" />
<glyph unicode="&#xa2;" horiz-adv-x="509" d="M264 -118V-6Q204 2 156 36T81 125T53 244Q53 309 80 363T156 452T264 494V609H314V495Q362 492 405 473T482 420L435 369Q412 395 380 410T314 429V59Q348 62 380 78T435 119L482 68Q449 35 406 16T314 -7V-118H264ZM126
244Q126 198 144 160T193 96T264 61V427Q224 419 193 393T144 329T126 244Z" />
<glyph unicode="&#xa3;" horiz-adv-x="616" d="M457 -21Q444 -21 430 -20T399 -14L205 27Q195 29 185 30T166 31Q101 31 66 -37L12 -1Q38 44 71 67T148 95Q178 116 178 160Q178 164 177 173T171 214T153 312H52V369H143Q137 408 134 431T129 468T127 494Q127 561
151 609T222 684T332 711Q418 711 473 666T549 535L483 516Q469 581 431 614T332 648Q266 648 232 610T198 501Q198 492 199 479T203 441T215 369H414V312H225Q235 253 239 225T244 186T245 169Q245 118 218 89L412 49Q423 47 433 46T454 44Q516 44 548 104L603
69Q551 -21 457 -21Z" />
<glyph unicode="&#xa4;" horiz-adv-x="682" d="M85 64L46 104L139 198Q114 231 100 273T85 361Q85 408 99 449T140 523L46 618L86 659L180 564Q213 591 254 606T341 621Q387 621 428 606T502 564L596 659L635 619L540 524Q566 491 581 450T596 361Q596 315 582
274T542 199L636 104L596 63L502 157Q469 130 428 115T341 100Q295 100 253 115T178 158L85 64ZM341 167Q392 167 433 193T499 263T524 361Q524 416 500 459T434 529T341 555Q290 555 249 529T183 460T158 361Q158 307 182 263T248 193T341 167Z" />
<glyph unicode="&#xa5;" horiz-adv-x="646" d="M284 0V134H106V188H284V263H106V317H264L12 700H102L325 353L549 700H634L383 317H538V263H361V188H538V134H361V0H284Z" />
<glyph unicode="&#xa6;" horiz-adv-x="292" d="M112 287V700H180V287H112ZM112 -209V204H180V-209H112Z" />
<glyph unicode="&#xa7;" horiz-adv-x="568" d="M281 -50Q195 -50 110 -2L139 51Q179 29 214 17T281 5Q327 5 353 26T379 84Q379 113 362 132T307 165L203 201Q130 226 100 258T70 345Q70 392 97 424T174 470Q122 509 122 574Q122 636 167 673T287 711Q328 711
371 698T458 662L429 609Q389 632 353 644T287 656Q241 656 215 635T188 577Q188 548 206 529T261 496L364 460Q438 435 468 403T498 315Q498 269 470 237T393 190Q445 151 445 86Q445 25 400 -12T281 -50ZM336 220Q381 225 408 249T435 310Q435 342 414 363T349
400L239 437Q237 438 235 438T231 440Q186 435 160 412T133 350Q133 319 153 298T219 260L328 223Q330 222 332 222T336 220Z" />
<glyph unicode="&#xa8;" horiz-adv-x="600" d="M212 609Q190 609 175 624T159 661Q159 682 174 697T212 713Q234 713 249 698T265 661Q265 640 250 625T212 609ZM388 609Q366 609 351 624T335 661Q335 682 350 697T388 713Q410 713 425 698T441 661Q441 640 426
625T388 609Z" />
<glyph unicode="&#xa9;" horiz-adv-x="797" d="M408 166Q360 166 321 190T259 257T236 350Q236 402 259 443T321 510T408 535Q446 535 481 520T542 477L507 437Q488 459 462 471T410 483Q377 483 350 466T307 418T291 351Q291 313 307 283T350 236T410 218Q437
218 461 229T507 262L541 223Q515 196 481 181T408 166ZM398 -11Q326 -11 264 16T155 93T82 208T56 350Q56 426 82 491T155 606T264 683T398 711Q470 711 532 684T642 607T715 493T741 350Q741 274 715 208T642 93T533 17T398 -11ZM398 32Q461 32 515 56T609 124T673
226T696 350Q696 416 673 474T610 575T515 643T398 668Q337 668 283 644T189 576T125 474T102 350Q102 284 125 226T188 125T283 57T398 32Z" />
<glyph unicode="&#xaa;" horiz-adv-x="408" d="M173 319Q111 319 72 351T33 433Q33 486 74 517T186 548Q243 548 293 522V571Q293 658 196 658Q169 658 141 651T78 626L55 673Q97 693 133 702T203 711Q276 711 315 677T354 578V326H293V366Q242 319 173 319ZM185
367Q217 367 244 377T293 406V477Q271 491 246 497T188 504Q145 504 119 486T93 435Q93 404 118 386T185 367Z" />
<glyph unicode="&#xab;" horiz-adv-x="625" d="M267 0L44 245L267 488H344L127 247L347 0H267ZM491 0L268 245L491 488H568L351 247L571 0H491Z" />
<glyph unicode="&#xac;" horiz-adv-x="583" d="M462 0V254H67V314H524V0H462Z" />
<glyph unicode="&#xad;" horiz-adv-x="455" d="M61 250V313H394V250H61Z" />
<glyph unicode="&#xae;" horiz-adv-x="496" d="M247 312Q194 312 151 338T82 411T57 514Q57 570 82 615T150 687T248 714Q301 714 344 688T412 616T438 513Q438 457 413 411T344 339T247 312ZM247 346Q293 346 328 367T383 427T403 513Q403 561 383 599T328 658T247
680Q203 680 168 659T113 599T93 513Q93 466 113 428T168 368T247 346ZM184 420V608H256Q284 608 299 593T315 550Q315 514 282 498L327 420H291L251 491H217V420H184ZM251 580H217V517H251Q283 517 283 549Q283 580 251 580Z" />
<glyph unicode="&#xaf;" horiz-adv-x="600" d="M164 611V663H436V611H164Z" />
<glyph unicode="&#xb0;" horiz-adv-x="404" d="M202 423Q163 423 131 442T79 495T59 567Q59 607 78 639T130 691T203 711Q242 711 274 692T325 640T345 567Q345 528 326 495T274 443T202 423ZM202 472Q240 472 267 500T295 567Q295 606 268 634T202 662Q164 662
137 634T109 567Q109 528 136 500T202 472Z" />
<glyph unicode="&#xb1;" horiz-adv-x="600" d="M102 -1V59H498V-1H102ZM269 173V349H102V409H269V585H331V409H498V349H331V173H269Z" />
<glyph unicode="&#xb2;" horiz-adv-x="291" d="M27 350V388L167 518Q193 543 203 561T214 600Q214 626 194 643T143 660Q119 660 98 651T48 617L19 652Q48 678 79 691T144 705Q197 705 230 677T264 604Q264 574 250 550T201 494L94 394H269V350H27Z" />
<glyph unicode="&#xb3;" horiz-adv-x="313" d="M151 345Q77 345 20 390L50 428Q76 408 101 399T151 390Q187 390 210 406T233 448Q233 474 211 489T152 505H119V545H147Q179 545 199 562T220 605Q220 629 200 644T150 660Q125 660 103 651T56 622L25 658Q52 681
84 693T151 706Q204 706 238 679T272 609Q272 581 253 560T199 529Q237 522 260 501T284 447Q284 402 247 374T151 345Z" />
<glyph unicode="&#xb4;" horiz-adv-x="600" d="M236 584L348 706H447L303 584H236Z" />
<glyph unicode="&#xb5;" horiz-adv-x="555" d="M75 -209V488H148V193Q148 129 183 91T279 53Q320 53 352 72T407 128V488H480V0H407V79Q379 36 340 14T252 -8Q191 -8 148 26V-209H75Z" />
<glyph unicode="&#xb6;" horiz-adv-x="650" d="M316 0V289H262Q200 289 152 315T78 387T51 494Q51 556 77 602T151 674T261 700H562V0H496V289H383V0H316ZM383 352H496V637H383V352ZM262 352H316V637H262Q198 637 159 598T120 495Q120 430 159 391T262 352Z" />
<glyph unicode="&#xb7;" horiz-adv-x="250" d="M128 229Q106 229 91 245T75 283Q75 306 90 321T128 337Q150 337 165 322T181 283Q181 261 166 245T128 229Z" />
<glyph unicode="&#xb8;" horiz-adv-x="600" d="M285 -239Q251 -239 223 -230T175 -203L203 -171Q238 -200 282 -200Q313 -200 330 -186T347 -148Q347 -125 329 -112T276 -99H247L272 0H314L299 -66Q343 -68 369 -89T396 -146Q396 -186 365 -212T285 -239Z" />
<glyph unicode="&#xb9;" horiz-adv-x="165" d="M84 350V646L21 620V665L103 700H135V350H84Z" />
<glyph unicode="&#xba;" horiz-adv-x="464" d="M232 317Q178 317 134 343T64 414T38 514Q38 570 64 614T134 685T232 711Q286 711 330 685T400 615T426 514Q426 459 400 414T330 343T232 317ZM232 372Q269 372 299 391T346 442T364 514Q364 554 347 586T299 637T232
656Q195 656 165 637T118 586T100 514Q100 474 117 442T165 391T232 372Z" />
<glyph unicode="&#xbb;" horiz-adv-x="624" d="M357 488L580 243L357 0H280L497 241L277 488H357ZM134 488L357 243L134 0H57L274 241L54 488H134Z" />
<glyph unicode="&#xbc;" horiz-adv-x="603" d="M492 0V88H295V129L486 350H543V130H585V88H543V0H492ZM349 130H492V295L349 130ZM84 350V646L21 620V665L103 700H135V350H84ZM40 0L433 700H491L97 0H40Z" />
<glyph unicode="&#xbd;" horiz-adv-x="637" d="M84 350V646L21 620V665L103 700H135V350H84ZM40 0L433 700H491L97 0H40ZM373 0V38L513 168Q539 193 549 211T560 250Q560 276 540 293T489 310Q465 310 444 301T394 267L365 302Q394 328 425 341T490 355Q543 355
576 327T610 254Q610 224 596 200T547 144L440 44H615V0H373Z" />
<glyph unicode="&#xbe;" horiz-adv-x="697" d="M586 0V88H389V129L580 350H637V130H679V88H637V0H586ZM443 130H586V295L443 130ZM151 345Q77 345 20 390L50 428Q76 408 101 399T151 390Q187 390 210 406T233 448Q233 474 211 489T152 505H119V545H147Q179 545
199 562T220 605Q220 629 200 644T150 660Q125 660 103 651T56 622L25 658Q52 681 84 693T151 706Q204 706 238 679T272 609Q272 581 253 560T199 529Q237 522 260 501T284 447Q284 402 247 374T151 345ZM134 0L527 700H585L191 0H134Z" />
<glyph unicode="&#xbf;" horiz-adv-x="512" d="M319 282Q321 240 315 209T290 153T241 104L199 73Q158 41 141 15T124 -45Q124 -76 142 -100T191 -138T261 -153Q308 -153 349 -130T422 -63L478 -101Q437 -158 381 -188T258 -219Q199 -219 153 -197T80 -135T53
-46Q53 -12 63 15T98 69T165 126L197 150Q231 175 245 206T256 282H319ZM286 497Q308 497 323 482T339 444Q339 421 324 406T286 391Q264 391 249 406T234 444Q234 466 249 481T286 497Z" />
<glyph unicode="&#xc0;" horiz-adv-x="660" d="M9 0L286 700H378L651 0H568L485 220H173L90 0H9ZM197 281H462L329 630L197 281ZM326 796L182 918H285L397 796H326Z" />
<glyph unicode="&#xc1;" horiz-adv-x="660" d="M9 0L286 700H378L651 0H568L485 220H173L90 0H9ZM197 281H462L329 630L197 281ZM268 796L380 918H479L335 796H268Z" />
<glyph unicode="&#xc2;" horiz-adv-x="660" d="M9 0L286 700H378L651 0H568L485 220H173L90 0H9ZM197 281H462L329 630L197 281ZM425 791L331 875L238 791H179L293 918H371L485 791H425Z" />
<glyph unicode="&#xc3;" horiz-adv-x="660" d="M9 0L286 700H378L651 0H568L485 220H173L90 0H9ZM197 281H462L329 630L197 281ZM212 792L161 802Q175 853 200 879T261 906Q290 906 315 891T363 861T406 846Q423 846 432 860T452 910L503 900Q490 849 466 823T407
796Q379 796 354 811T307 841T263 856Q244 856 233 842T212 792Z" />
<glyph unicode="&#xc4;" horiz-adv-x="660" d="M9 0L286 700H378L651 0H568L485 220H173L90 0H9ZM197 281H462L329 630L197 281ZM244 821Q222 821 207 836T191 873Q191 894 206 909T244 925Q266 925 281 910T297 873Q297 852 282 837T244 821ZM420 821Q398 821
383 836T367 873Q367 894 382 909T420 925Q442 925 457 910T473 873Q473 852 458 837T420 821Z" />
<glyph unicode="&#xc5;" horiz-adv-x="660" d="M9 0L286 700H378L651 0H568L485 220H173L90 0H9ZM197 281H462L329 630L197 281ZM332 784Q301 784 276 799T235 839T220 896Q220 926 235 951T275 991T332 1006Q363 1006 388 991T429 951T444 895Q444 865 429 840T389
799T332 784ZM332 825Q361 825 381 845T402 895Q402 924 382 944T332 965Q303 965 283 945T262 895Q262 866 282 846T332 825Z" />
<glyph unicode="&#xc6;" horiz-adv-x="918" d="M9 0L286 700H870V632H409L501 387H738V320H526L621 68H870V0H567L484 220H173L89 0H9ZM196 281H461L329 631L196 281Z" />
<glyph unicode="&#xc7;" horiz-adv-x="726" d="M403 -239Q369 -239 341 -230T293 -203L321 -171Q356 -200 400 -200Q431 -200 448 -186T465 -148Q465 -125 447 -112T394 -99H365L387 -10Q317 -5 257 24T151 101T81 213T56 350Q56 426 83 491T159 606T272 683T412
711Q464 711 511 698T601 659T676 596L625 543Q586 590 530 615T412 641Q353 641 302 619T214 557T155 465T134 350Q134 289 155 236T213 143T302 81T412 59Q473 59 529 85T625 157L676 104Q630 52 566 23T430 -11L417 -66Q461 -68 487 -89T514 -146Q514 -186 483
-212T403 -239Z" />
<glyph unicode="&#xc8;" horiz-adv-x="619" d="M89 0V700H567V632H166V387H444V320H166V68H571V0H89ZM323 796L179 918H282L394 796H323Z" />
<glyph unicode="&#xc9;" horiz-adv-x="619" d="M89 0V700H567V632H166V387H444V320H166V68H571V0H89ZM265 796L377 918H476L332 796H265Z" />
<glyph unicode="&#xca;" horiz-adv-x="619" d="M89 0V700H567V632H166V387H444V320H166V68H571V0H89ZM422 791L328 875L235 791H176L290 918H368L482 791H422Z" />
<glyph unicode="&#xcb;" horiz-adv-x="619" d="M89 0V700H567V632H166V387H444V320H166V68H571V0H89ZM241 821Q219 821 204 836T188 873Q188 894 203 909T241 925Q263 925 278 910T294 873Q294 852 279 837T241 821ZM417 821Q395 821 380 836T364 873Q364 894
379 909T417 925Q439 925 454 910T470 873Q470 852 455 837T417 821Z" />
<glyph unicode="&#xcc;" horiz-adv-x="253" d="M88 0V700H165V0H88ZM120 796L-24 918H79L191 796H120Z" />
<glyph unicode="&#xcd;" horiz-adv-x="253" d="M88 0V700H165V0H88ZM62 796L174 918H273L129 796H62Z" />
<glyph unicode="&#xce;" horiz-adv-x="253" d="M88 0V700H165V0H88ZM219 791L125 875L32 791H-27L87 918H165L279 791H219Z" />
<glyph unicode="&#xcf;" horiz-adv-x="253" d="M88 0V700H165V0H88ZM38 821Q16 821 1 836T-15 873Q-15 894 0 909T38 925Q60 925 75 910T91 873Q91 852 76 837T38 821ZM214 821Q192 821 177 836T161 873Q161 894 176 909T214 925Q236 925 251 910T267 873Q267
852 252 837T214 821Z" />
<glyph unicode="&#xd0;" horiz-adv-x="760" d="M121 0V322H25V383H121V700H353Q430 700 494 674T605 600T677 489T703 350Q703 275 678 212T606 101T495 27T353 0H121ZM198 69H358Q434 69 494 106T589 206T625 350Q625 430 590 493T494 594T358 631H198V383H364V322H198V69Z"
/>
<glyph unicode="&#xd1;" horiz-adv-x="739" d="M89 0V700H169L579 120L577 700H650V0H580L160 593L162 0H89ZM253 792L202 802Q216 853 241 879T302 906Q331 906 356 891T404 861T447 846Q464 846 473 860T493 910L544 900Q531 849 507 823T448 796Q420 796 395
811T348 841T304 856Q285 856 274 842T253 792Z" />
<glyph unicode="&#xd2;" horiz-adv-x="810" d="M405 -11Q332 -11 269 16T159 93T84 208T57 350Q57 426 84 491T158 606T269 683T405 711Q478 711 541 684T651 607T726 492T753 350Q753 274 726 209T652 94T541 17T405 -11ZM405 59Q462 59 511 81T597 143T654 236T675
350Q675 412 655 464T597 557T511 619T405 641Q348 641 299 619T213 557T156 465T135 351Q135 289 155 236T213 143T299 81T405 59ZM398 796L254 918H357L469 796H398Z" />
<glyph unicode="&#xd3;" horiz-adv-x="810" d="M405 -11Q332 -11 269 16T159 93T84 208T57 350Q57 426 84 491T158 606T269 683T405 711Q478 711 541 684T651 607T726 492T753 350Q753 274 726 209T652 94T541 17T405 -11ZM405 59Q462 59 511 81T597 143T654 236T675
350Q675 412 655 464T597 557T511 619T405 641Q348 641 299 619T213 557T156 465T135 351Q135 289 155 236T213 143T299 81T405 59ZM340 796L452 918H551L407 796H340Z" />
<glyph unicode="&#xd4;" horiz-adv-x="810" d="M405 -11Q332 -11 269 16T159 93T84 208T57 350Q57 426 84 491T158 606T269 683T405 711Q478 711 541 684T651 607T726 492T753 350Q753 274 726 209T652 94T541 17T405 -11ZM405 59Q462 59 511 81T597 143T654 236T675
350Q675 412 655 464T597 557T511 619T405 641Q348 641 299 619T213 557T156 465T135 351Q135 289 155 236T213 143T299 81T405 59ZM497 791L403 875L310 791H251L365 918H443L557 791H497Z" />
<glyph unicode="&#xd5;" horiz-adv-x="810" d="M405 -11Q332 -11 269 16T159 93T84 208T57 350Q57 426 84 491T158 606T269 683T405 711Q478 711 541 684T651 607T726 492T753 350Q753 274 726 209T652 94T541 17T405 -11ZM405 59Q462 59 511 81T597 143T654 236T675
350Q675 412 655 464T597 557T511 619T405 641Q348 641 299 619T213 557T156 465T135 351Q135 289 155 236T213 143T299 81T405 59ZM284 792L233 802Q247 853 272 879T333 906Q362 906 387 891T435 861T478 846Q495 846 504 860T524 910L575 900Q562 849 538 823T479
796Q451 796 426 811T379 841T335 856Q316 856 305 842T284 792Z" />
<glyph unicode="&#xd6;" horiz-adv-x="810" d="M405 -11Q332 -11 269 16T159 93T84 208T57 350Q57 426 84 491T158 606T269 683T405 711Q478 711 541 684T651 607T726 492T753 350Q753 274 726 209T652 94T541 17T405 -11ZM405 59Q462 59 511 81T597 143T654 236T675
350Q675 412 655 464T597 557T511 619T405 641Q348 641 299 619T213 557T156 465T135 351Q135 289 155 236T213 143T299 81T405 59ZM316 821Q294 821 279 836T263 873Q263 894 278 909T316 925Q338 925 353 910T369 873Q369 852 354 837T316 821ZM492 821Q470 821
455 836T439 873Q439 894 454 909T492 925Q514 925 529 910T545 873Q545 852 530 837T492 821Z" />
<glyph unicode="&#xd7;" horiz-adv-x="600" d="M151 162L114 202L261 359L114 516L152 557L299 400L446 557L485 517L337 360L486 202L446 161L298 319L151 162Z" />
<glyph unicode="&#xd8;" horiz-adv-x="810" d="M405 -11Q347 -11 296 7T200 57L150 -5H77L158 94Q111 143 84 208T57 350Q57 426 84 491T158 606T269 683T405 711Q462 711 513 694T608 645L657 705H732L652 607Q699 558 726 492T753 350Q753 274 727 209T653 94T542
17T405 -11ZM205 152L562 589Q529 614 489 627T405 641Q348 641 299 619T213 557T156 465T135 350Q135 292 153 241T205 152ZM405 59Q462 59 511 81T597 143T654 236T675 350Q675 409 657 460T604 549L246 113Q280 88 320 74T405 59Z" />
<glyph unicode="&#xd9;" horiz-adv-x="712" d="M356 -11Q270 -11 207 26T109 133T75 296V700H152V296Q152 224 177 171T248 89T356 59Q418 59 464 88T535 171T560 296V700H637V296Q637 202 603 133T506 27T356 -11ZM350 796L206 918H309L421 796H350Z" />
<glyph unicode="&#xda;" horiz-adv-x="712" d="M356 -11Q270 -11 207 26T109 133T75 296V700H152V296Q152 224 177 171T248 89T356 59Q418 59 464 88T535 171T560 296V700H637V296Q637 202 603 133T506 27T356 -11ZM292 796L404 918H503L359 796H292Z" />
<glyph unicode="&#xdb;" horiz-adv-x="712" d="M356 -11Q270 -11 207 26T109 133T75 296V700H152V296Q152 224 177 171T248 89T356 59Q418 59 464 88T535 171T560 296V700H637V296Q637 202 603 133T506 27T356 -11ZM449 791L355 875L262 791H203L317 918H395L509
791H449Z" />
<glyph unicode="&#xdc;" horiz-adv-x="712" d="M356 -11Q270 -11 207 26T109 133T75 296V700H152V296Q152 224 177 171T248 89T356 59Q418 59 464 88T535 171T560 296V700H637V296Q637 202 603 133T506 27T356 -11ZM268 821Q246 821 231 836T215 873Q215 894 230
909T268 925Q290 925 305 910T321 873Q321 852 306 837T268 821ZM444 821Q422 821 407 836T391 873Q391 894 406 909T444 925Q466 925 481 910T497 873Q497 852 482 837T444 821Z" />
<glyph unicode="&#xdd;" horiz-adv-x="646" d="M284 0V286L12 700H102L325 353L549 700H634L361 284V0H284ZM262 796L374 918H473L329 796H262Z" />
<glyph unicode="&#xde;" horiz-adv-x="654" d="M89 0V700H166V557H378Q446 557 496 532T573 460T601 350Q601 288 574 241T496 169T378 143H166V0H89ZM166 209H369Q442 209 483 247T524 350Q524 415 483 452T369 490H166V209Z" />
<glyph unicode="&#xdf;" horiz-adv-x="592" d="M393 -11Q294 -11 226 50L267 98Q321 47 392 47Q439 47 468 72T497 138Q497 173 479 193T419 230L354 255Q319 269 298 285T267 322T257 371Q257 406 273 428T312 467T359 497T398 530T414 578Q414 619 379 646T290
673Q221 673 185 627T148 502V0H75V501Q75 573 100 626T174 708T289 737Q348 737 391 716T459 659T483 576Q483 539 467 514T428 472T381 440T341 409T325 371Q325 350 337 338T387 311L448 287Q509 263 537 228T566 140Q566 73 518 31T393 -11Z" />
<glyph unicode="&#xe0;" horiz-adv-x="526" d="M226 -9Q174 -9 134 10T72 62T49 140Q49 184 72 216T136 267T232 285Q274 285 311 276T381 247V314Q381 374 349 404T255 435Q221 435 186 425T107 393L80 449Q178 496 264 496Q355 496 404 452T453 324V0H381V57Q349
24 310 8T226 -9ZM119 142Q119 99 152 73T241 47Q282 47 316 61T381 103V197Q350 215 317 223T243 232Q187 232 153 208T119 142ZM514 584L370 706H473L585 584H514Z" />
<glyph unicode="&#xe1;" horiz-adv-x="526" d="M226 -9Q174 -9 134 10T72 62T49 140Q49 184 72 216T136 267T232 285Q274 285 311 276T381 247V314Q381 374 349 404T255 435Q221 435 186 425T107 393L80 449Q178 496 264 496Q355 496 404 452T453 324V0H381V57Q349
24 310 8T226 -9ZM119 142Q119 99 152 73T241 47Q282 47 316 61T381 103V197Q350 215 317 223T243 232Q187 232 153 208T119 142ZM456 584L568 706H667L523 584H456Z" />
<glyph unicode="&#xe2;" horiz-adv-x="526" d="M226 -9Q174 -9 134 10T72 62T49 140Q49 184 72 216T136 267T232 285Q274 285 311 276T381 247V314Q381 374 349 404T255 435Q221 435 186 425T107 393L80 449Q178 496 264 496Q355 496 404 452T453 324V0H381V57Q349
24 310 8T226 -9ZM119 142Q119 99 152 73T241 47Q282 47 316 61T381 103V197Q350 215 317 223T243 232Q187 232 153 208T119 142ZM613 579L519 663L426 579H367L481 706H559L673 579H613Z" />
<glyph unicode="&#xe3;" horiz-adv-x="526" d="M226 -9Q174 -9 134 10T72 62T49 140Q49 184 72 216T136 267T232 285Q274 285 311 276T381 247V314Q381 374 349 404T255 435Q221 435 186 425T107 393L80 449Q178 496 264 496Q355 496 404 452T453 324V0H381V57Q349
24 310 8T226 -9ZM119 142Q119 99 152 73T241 47Q282 47 316 61T381 103V197Q350 215 317 223T243 232Q187 232 153 208T119 142ZM400 580L349 590Q363 641 388 667T449 694Q478 694 503 679T551 649T594 634Q611 634 620 648T640 698L691 688Q678 637 654 611T595
584Q567 584 542 599T495 629T451 644Q432 644 421 630T400 580Z" />
<glyph unicode="&#xe4;" horiz-adv-x="526" d="M226 -9Q174 -9 134 10T72 62T49 140Q49 184 72 216T136 267T232 285Q274 285 311 276T381 247V314Q381 374 349 404T255 435Q221 435 186 425T107 393L80 449Q178 496 264 496Q355 496 404 452T453 324V0H381V57Q349
24 310 8T226 -9ZM119 142Q119 99 152 73T241 47Q282 47 316 61T381 103V197Q350 215 317 223T243 232Q187 232 153 208T119 142ZM432 609Q410 609 395 624T379 661Q379 682 394 697T432 713Q454 713 469 698T485 661Q485 640 470 625T432 609ZM608 609Q586 609
571 624T555 661Q555 682 570 697T608 713Q630 713 645 698T661 661Q661 640 646 625T608 609Z" />
<glyph unicode="&#xe5;" horiz-adv-x="526" d="M226 -9Q174 -9 134 10T72 62T49 140Q49 184 72 216T136 267T232 285Q274 285 311 276T381 247V314Q381 374 349 404T255 435Q221 435 186 425T107 393L80 449Q178 496 264 496Q355 496 404 452T453 324V0H381V57Q349
24 310 8T226 -9ZM119 142Q119 99 152 73T241 47Q282 47 316 61T381 103V197Q350 215 317 223T243 232Q187 232 153 208T119 142ZM520 572Q489 572 464 587T423 627T408 684Q408 714 423 739T463 779T520 794Q551 794 576 779T617 739T632 683Q632 653 617 628T577
587T520 572ZM520 613Q549 613 569 633T590 683Q590 712 570 732T520 753Q491 753 471 733T450 683Q450 654 470 634T520 613Z" />
<glyph unicode="&#xe6;" horiz-adv-x="886" d="M228 -9Q175 -9 135 10T73 63T50 141Q50 184 72 216T136 267T232 285Q315 285 381 248V314Q381 374 349 404T255 435Q221 435 186 425T107 393L80 449Q178 496 264 496Q328 496 371 473T434 404Q465 448 511 472T612
496Q676 496 726 464T806 376T836 250V228H453Q457 178 480 139T542 77T627 54Q665 54 700 67T760 104L806 55Q764 22 720 6T623 -10Q562 -10 512 17T429 90Q389 41 340 16T228 -9ZM455 280H764Q759 324 738 358T684 413T611 433Q570 433 537 414T483 360T455 280ZM241
47Q291 47 332 69T404 134Q391 161 385 195Q354 215 320 224T243 233Q187 233 153 208T119 142Q119 99 152 73T241 47Z" />
<glyph unicode="&#xe7;" horiz-adv-x="509" d="M288 -232Q254 -232 226 -223T178 -196L206 -164Q241 -193 285 -193Q316 -193 333 -179T350 -141Q350 -118 332 -105T279 -92H250L271 -7Q209 -1 160 33T82 123T53 244Q53 315 85 372T171 462T294 496Q348 496 397
476T482 420L435 369Q409 398 372 414T297 430Q249 430 211 405T149 338T126 244Q126 192 149 150T210 83T297 58Q335 58 372 74T435 119L482 68Q449 35 406 16T314 -7L302 -59Q346 -61 372 -82T399 -139Q399 -179 368 -205T288 -232Z" />
<glyph unicode="&#xe8;" horiz-adv-x="557" d="M295 -10Q227 -10 172 23T85 114T53 244Q53 316 83 373T166 463T283 496Q347 496 397 464T477 376T507 250V228H124Q128 178 151 139T213 77T298 54Q336 54 371 67T432 104L478 55Q436 22 391 6T295 -10ZM126 280H435Q430
324 409 358T355 413T282 433Q242 433 209 414T155 360T126 280ZM537 584L393 706H496L608 584H537Z" />
<glyph unicode="&#xe9;" horiz-adv-x="557" d="M295 -10Q227 -10 172 23T85 114T53 244Q53 316 83 373T166 463T283 496Q347 496 397 464T477 376T507 250V228H124Q128 178 151 139T213 77T298 54Q336 54 371 67T432 104L478 55Q436 22 391 6T295 -10ZM126 280H435Q430
324 409 358T355 413T282 433Q242 433 209 414T155 360T126 280ZM479 584L591 706H690L546 584H479Z" />
<glyph unicode="&#xea;" horiz-adv-x="557" d="M295 -10Q227 -10 172 23T85 114T53 244Q53 316 83 373T166 463T283 496Q347 496 397 464T477 376T507 250V228H124Q128 178 151 139T213 77T298 54Q336 54 371 67T432 104L478 55Q436 22 391 6T295 -10ZM126 280H435Q430
324 409 358T355 413T282 433Q242 433 209 414T155 360T126 280ZM636 579L542 663L449 579H390L504 706H582L696 579H636Z" />
<glyph unicode="&#xeb;" horiz-adv-x="557" d="M295 -10Q227 -10 172 23T85 114T53 244Q53 316 83 373T166 463T283 496Q347 496 397 464T477 376T507 250V228H124Q128 178 151 139T213 77T298 54Q336 54 371 67T432 104L478 55Q436 22 391 6T295 -10ZM126 280H435Q430
324 409 358T355 413T282 433Q242 433 209 414T155 360T126 280ZM455 609Q433 609 418 624T402 661Q402 682 417 697T455 713Q477 713 492 698T508 661Q508 640 493 625T455 609ZM631 609Q609 609 594 624T578 661Q578 682 593 697T631 713Q653 713 668 698T684
661Q684 640 669 625T631 609Z" />
<glyph unicode="&#xec;" horiz-adv-x="223" d="M75 0V488H148V0H75ZM106 584L-38 706H65L177 584H106Z" />
<glyph unicode="&#xed;" horiz-adv-x="223" d="M75 0V488H148V0H75ZM48 584L160 706H259L115 584H48Z" />
<glyph unicode="&#xee;" horiz-adv-x="223" d="M75 0V488H148V0H75ZM205 579L111 663L18 579H-41L73 706H151L265 579H205Z" />
<glyph unicode="&#xef;" horiz-adv-x="223" d="M75 0V488H148V0H75ZM24 609Q2 609 -13 624T-29 661Q-29 682 -14 697T24 713Q46 713 61 698T77 661Q77 640 62 625T24 609ZM200 609Q178 609 163 624T147 661Q147 682 162 697T200 713Q222 713 237 698T253 661Q253
640 238 625T200 609Z" />
<glyph unicode="&#xf0;" horiz-adv-x="590" d="M289 -10Q223 -10 169 23T84 112T52 238Q52 307 81 360T162 445T277 476Q341 476 390 445T465 362Q456 435 429 495T357 599L262 537L233 579L318 634Q295 651 269 663T214 685L244 737Q281 725 313 709T373 670L476
737L503 695L412 635Q472 574 503 487T534 289Q534 199 504 132T418 28T289 -10ZM291 54Q339 54 377 78T436 143T458 236Q458 288 437 329T377 394T291 418Q243 418 206 394T146 329T124 236Q124 185 146 144T205 78T291 54Z" />
<glyph unicode="&#xf1;" horiz-adv-x="552" d="M75 0V488H148V409Q176 453 215 474T303 496Q356 496 395 474T457 411T480 316V0H407V295Q407 360 372 397T276 435Q236 435 203 416T148 360V0H75ZM413 580L362 590Q376 641 401 667T462 694Q491 694 516 679T564
649T607 634Q624 634 633 648T653 698L704 688Q691 637 667 611T608 584Q580 584 555 599T508 629T464 644Q445 644 434 630T413 580Z" />
<glyph unicode="&#xf2;" horiz-adv-x="580" d="M291 -8Q223 -8 169 25T84 115T53 244Q53 316 84 373T169 463T291 496Q358 496 411 463T496 373T527 244Q527 172 496 115T412 25T291 -8ZM290 56Q338 56 375 80T433 148T455 244Q455 298 434 340T375 407T290 432Q242
432 205 408T147 341T125 244Q125 191 146 148T205 81T290 56ZM540 584L396 706H499L611 584H540Z" />
<glyph unicode="&#xf3;" horiz-adv-x="580" d="M291 -8Q223 -8 169 25T84 115T53 244Q53 316 84 373T169 463T291 496Q358 496 411 463T496 373T527 244Q527 172 496 115T412 25T291 -8ZM290 56Q338 56 375 80T433 148T455 244Q455 298 434 340T375 407T290 432Q242
432 205 408T147 341T125 244Q125 191 146 148T205 81T290 56ZM482 584L594 706H693L549 584H482Z" />
<glyph unicode="&#xf4;" horiz-adv-x="580" d="M291 -8Q223 -8 169 25T84 115T53 244Q53 316 84 373T169 463T291 496Q358 496 411 463T496 373T527 244Q527 172 496 115T412 25T291 -8ZM290 56Q338 56 375 80T433 148T455 244Q455 298 434 340T375 407T290 432Q242
432 205 408T147 341T125 244Q125 191 146 148T205 81T290 56ZM639 579L545 663L452 579H393L507 706H585L699 579H639Z" />
<glyph unicode="&#xf5;" horiz-adv-x="580" d="M291 -8Q223 -8 169 25T84 115T53 244Q53 316 84 373T169 463T291 496Q358 496 411 463T496 373T527 244Q527 172 496 115T412 25T291 -8ZM290 56Q338 56 375 80T433 148T455 244Q455 298 434 340T375 407T290 432Q242
432 205 408T147 341T125 244Q125 191 146 148T205 81T290 56ZM426 580L375 590Q389 641 414 667T475 694Q504 694 529 679T577 649T620 634Q637 634 646 648T666 698L717 688Q704 637 680 611T621 584Q593 584 568 599T521 629T477 644Q458 644 447 630T426 580Z"
/>
<glyph unicode="&#xf6;" horiz-adv-x="580" d="M291 -8Q223 -8 169 25T84 115T53 244Q53 316 84 373T169 463T291 496Q358 496 411 463T496 373T527 244Q527 172 496 115T412 25T291 -8ZM290 56Q338 56 375 80T433 148T455 244Q455 298 434 340T375 407T290 432Q242
432 205 408T147 341T125 244Q125 191 146 148T205 81T290 56ZM458 609Q436 609 421 624T405 661Q405 682 420 697T458 713Q480 713 495 698T511 661Q511 640 496 625T458 609ZM634 609Q612 609 597 624T581 661Q581 682 596 697T634 713Q656 713 671 698T687 661Q687
640 672 625T634 609Z" />
<glyph unicode="&#xf7;" horiz-adv-x="600" d="M300 489Q278 489 263 504T247 542Q247 564 262 579T300 595Q322 595 337 580T353 542Q353 520 338 505T300 489ZM300 121Q278 121 263 136T247 174Q247 196 262 211T300 227Q322 227 337 212T353 174Q353 152 338
137T300 121ZM102 328V388H498V328H102Z" />
<glyph unicode="&#xf8;" horiz-adv-x="580" d="M290 -8Q250 -8 215 4T150 38L118 0H57L115 70Q86 104 70 148T53 244Q53 316 84 373T169 463T291 496Q331 496 366 484T431 449L463 488H524L465 417Q494 384 510 340T527 244Q527 172 496 115T412 25T290 -8ZM161
124L388 398Q368 414 343 423T290 432Q242 432 205 408T147 341T125 244Q125 210 134 179T161 124ZM290 56Q338 56 375 80T433 148T455 244Q455 279 446 309T420 363L193 90Q213 74 237 65T290 56Z" />
<glyph unicode="&#xf9;" horiz-adv-x="552" d="M249 -8Q197 -8 157 15T95 79T72 173V488H146V194Q146 129 181 91T276 53Q317 53 349 72T404 127V488H477V0H404V79Q376 36 338 14T249 -8ZM526 584L382 706H485L597 584H526Z" />
<glyph unicode="&#xfa;" horiz-adv-x="552" d="M249 -8Q197 -8 157 15T95 79T72 173V488H146V194Q146 129 181 91T276 53Q317 53 349 72T404 127V488H477V0H404V79Q376 36 338 14T249 -8ZM468 584L580 706H679L535 584H468Z" />
<glyph unicode="&#xfb;" horiz-adv-x="552" d="M249 -8Q197 -8 157 15T95 79T72 173V488H146V194Q146 129 181 91T276 53Q317 53 349 72T404 127V488H477V0H404V79Q376 36 338 14T249 -8ZM625 579L531 663L438 579H379L493 706H571L685 579H625Z" />
<glyph unicode="&#xfc;" horiz-adv-x="552" d="M249 -8Q197 -8 157 15T95 79T72 173V488H146V194Q146 129 181 91T276 53Q317 53 349 72T404 127V488H477V0H404V79Q376 36 338 14T249 -8ZM444 609Q422 609 407 624T391 661Q391 682 406 697T444 713Q466 713 481
698T497 661Q497 640 482 625T444 609ZM620 609Q598 609 583 624T567 661Q567 682 582 697T620 713Q642 713 657 698T673 661Q673 640 658 625T620 609Z" />
<glyph unicode="&#xfd;" horiz-adv-x="498" d="M96 -219Q73 -219 49 -212V-147Q59 -149 70 -150T89 -151Q117 -151 135 -136T167 -89L203 0L15 488H96L244 87L401 488H482L236 -111Q220 -150 201 -174T157 -208T96 -219ZM441 584L553 706H652L508 584H441Z" />
<glyph unicode="&#xfe;" horiz-adv-x="583" d="M75 -209V722L148 737V420Q176 455 216 474T305 494Q369 494 419 461T500 371T530 244Q530 174 500 117T418 27T301 -7Q255 -7 216 10T148 61V-209H75ZM287 430Q244 430 208 413T148 363V124Q172 92 208 74T287 56Q336
56 374 80T435 147T458 243Q458 297 436 339T375 405T287 430Z" />
<glyph unicode="&#xff;" horiz-adv-x="498" d="M96 -219Q73 -219 49 -212V-147Q59 -149 70 -150T89 -151Q117 -151 135 -136T167 -89L203 0L15 488H96L244 87L401 488H482L236 -111Q220 -150 201 -174T157 -208T96 -219ZM417 609Q395 609 380 624T364 661Q364
682 379 697T417 713Q439 713 454 698T470 661Q470 640 455 625T417 609ZM593 609Q571 609 556 624T540 661Q540 682 555 697T593 713Q615 713 630 698T646 661Q646 640 631 625T593 609Z" />
<glyph unicode="&#x2013;" horiz-adv-x="550" d="M61 250V313H489V250H61Z" />
<glyph unicode="&#x2014;" horiz-adv-x="692" d="M61 250V313H631V250H61Z" />
<glyph unicode="&#x2018;" horiz-adv-x="250" d="M200 750L140 519H62L143 750H200Z" />
<glyph unicode="&#x2019;" horiz-adv-x="250" d="M50 519L110 750H188L107 519H50Z" />
<glyph unicode="&#x201a;" horiz-adv-x="250" d="M50 -157L110 74H188L107 -157H50Z" />
<glyph unicode="&#x201c;" horiz-adv-x="410" d="M200 750L140 519H62L143 750H200ZM360 750L300 519H222L303 750H360Z" />
<glyph unicode="&#x201d;" horiz-adv-x="410" d="M210 519L270 750H348L267 519H210ZM50 519L110 750H188L107 519H50Z" />
<glyph unicode="&#x201e;" horiz-adv-x="413" d="M213 -157L273 74H351L270 -157H213ZM50 -157L110 74H188L107 -157H50Z" />
<glyph unicode="&#x2022;" horiz-adv-x="342" d="M172 252Q131 252 101 281T71 353Q71 396 101 425T171 454Q212 454 241 425T271 353Q271 310 242 281T172 252Z" />
<glyph unicode="&#x2039;" horiz-adv-x="401" d="M267 0L44 245L267 488H344L127 247L347 0H267Z" />
<glyph unicode="&#x203a;" horiz-adv-x="401" d="M134 488L357 243L134 0H57L274 241L54 488H134Z" />
</font>
</defs>
</svg>
